<?xml version="1.0" encoding="UTF-8" standalone="no"?>
<!-- Created with Inkscape (http://www.inkscape.org/) -->

<svg
   xmlns:dc="http://purl.org/dc/elements/1.1/"
   xmlns:cc="http://creativecommons.org/ns#"
   xmlns:rdf="http://www.w3.org/1999/02/22-rdf-syntax-ns#"
   xmlns:svg="http://www.w3.org/2000/svg"
   xmlns="http://www.w3.org/2000/svg"
   xmlns:sodipodi="http://sodipodi.sourceforge.net/DTD/sodipodi-0.dtd"
   xmlns:inkscape="http://www.inkscape.org/namespaces/inkscape"
   width="744.09448819"
   height="1052.3622047"
   id="svg2"
   version="1.1"
   inkscape:version="0.48.4 r9939"
   sodipodi:docname="Keyboard layer base.dxf">
  <defs
     id="defs4" />
  <sodipodi:namedview
     id="base"
     pagecolor="#ffffff"
     bordercolor="#666666"
     borderopacity="1.0"
     inkscape:pageopacity="0.0"
     inkscape:pageshadow="2"
     inkscape:zoom="1.4"
     inkscape:cx="330.92845"
     inkscape:cy="914.08772"
     inkscape:document-units="px"
     inkscape:current-layer="layer2"
     showgrid="false"
     inkscape:window-width="1280"
     inkscape:window-height="972"
     inkscape:window-x="0"
     inkscape:window-y="0"
     inkscape:window-maximized="1" />
  <metadata
     id="metadata7">
    <rdf:RDF>
      <cc:Work
         rdf:about="">
        <dc:format>image/svg+xml</dc:format>
        <dc:type
           rdf:resource="http://purl.org/dc/dcmitype/StillImage" />
        <dc:title></dc:title>
      </cc:Work>
    </rdf:RDF>
  </metadata>
  <g
     inkscape:groupmode="layer"
     id="layer2"
     inkscape:label="Base"
     style="display:inline">
    <path
       style="fill:none;stroke:#ff0000;stroke-width:1.25887203;stroke-miterlimit:4;stroke-opacity:1"
       d="m 191.99372,54.746277 406.58886,0 c 12.05757,0 21.76457,9.707001 21.76457,21.764576 l 0,203.985407 c 0,12.05757 -9.707,21.76457 -21.76457,21.76457 l -406.58886,0 c -12.05758,0 -21.76458,-9.707 -21.76458,-21.76457 l 0,-203.985407 c 0,-12.057575 9.707,-21.764576 21.76458,-21.764576 z"
       id="rect16036" />
    <path
       transform="translate(0.26785714,-4.3664622)"
       style="fill:none;stroke:#ff0000;stroke-width:0.25;stroke-miterlimit:4;stroke-opacity:1"
       d="m 197.87946,80.308609 c 0,3.759974 -3.04806,6.808036 -6.80803,6.808036 -3.75998,0 -6.80804,-3.048062 -6.80804,-6.808036 0,-3.759974 3.04806,-6.808036 6.80804,-6.808036 3.75997,0 6.80803,3.048062 6.80803,6.808036 z"
       id="path16806" />
    <path
       transform="translate(0.49107142,201.0491)"
       style="fill:none;stroke:#ff0000;stroke-width:0.25;stroke-miterlimit:4;stroke-opacity:1"
       d="m 197.87946,80.308609 c 0,3.759974 -3.04806,6.808036 -6.80803,6.808036 -3.75998,0 -6.80804,-3.048062 -6.80804,-6.808036 0,-3.759974 3.04806,-6.808036 6.80804,-6.808036 3.75997,0 6.80803,3.048062 6.80803,6.808036 z"
       id="path16808" />
    <path
       transform="translate(408.37054,201.09375)"
       style="fill:none;stroke:#ff0000;stroke-width:0.25;stroke-miterlimit:4;stroke-opacity:1"
       d="m 197.87946,80.308609 c 0,3.759974 -3.04806,6.808036 -6.80803,6.808036 -3.75998,0 -6.80804,-3.048062 -6.80804,-6.808036 0,-3.759974 3.04806,-6.808036 6.80804,-6.808036 3.75997,0 6.80803,3.048062 6.80803,6.808036 z"
       id="path16810" />
    <path
       transform="translate(408.08036,-4.3664622)"
       style="fill:none;stroke:#ff0000;stroke-width:0.25;stroke-miterlimit:4;stroke-opacity:1"
       d="m 197.87946,80.308609 c 0,3.759974 -3.04806,6.808036 -6.80803,6.808036 -3.75998,0 -6.80804,-3.048062 -6.80804,-6.808036 0,-3.759974 3.04806,-6.808036 6.80804,-6.808036 3.75997,0 6.80803,3.048062 6.80803,6.808036 z"
       id="path16812" />
    <path
       style="fill:none;stroke:#ff0000;stroke-width:0.25;stroke-miterlimit:4;stroke-opacity:1"
       d="m 198.92857,190.57646 c 0,3.15591 -2.55838,5.71429 -5.71429,5.71429 -3.15591,0 -5.71429,-2.55838 -5.71429,-5.71429 0,-3.15591 2.55838,-5.71428 5.71429,-5.71428 3.15591,0 5.71429,2.55837 5.71429,5.71428 z"
       id="path17056" />
  </g>
</svg>
