<?xml version="1.0" encoding="UTF-8" standalone="no"?>
<!-- Created with Inkscape (http://www.inkscape.org/) -->

<svg
   xmlns:dc="http://purl.org/dc/elements/1.1/"
   xmlns:cc="http://creativecommons.org/ns#"
   xmlns:rdf="http://www.w3.org/1999/02/22-rdf-syntax-ns#"
   xmlns:svg="http://www.w3.org/2000/svg"
   xmlns="http://www.w3.org/2000/svg"
   xmlns:sodipodi="http://sodipodi.sourceforge.net/DTD/sodipodi-0.dtd"
   xmlns:inkscape="http://www.inkscape.org/namespaces/inkscape"
   width="744.09448819"
   height="1052.3622047"
   id="svg2"
   version="1.1"
   inkscape:version="0.48.4 r9939"
   sodipodi:docname="Keyboard layer middle.svg">
  <defs
     id="defs4" />
  <sodipodi:namedview
     id="base"
     pagecolor="#ffffff"
     bordercolor="#666666"
     borderopacity="1.0"
     inkscape:pageopacity="0.0"
     inkscape:pageshadow="2"
     inkscape:zoom="1.4"
     inkscape:cx="330.92845"
     inkscape:cy="914.08772"
     inkscape:document-units="px"
     inkscape:current-layer="g16906"
     showgrid="false"
     inkscape:window-width="1280"
     inkscape:window-height="972"
     inkscape:window-x="0"
     inkscape:window-y="0"
     inkscape:window-maximized="1" />
  <metadata
     id="metadata7">
    <rdf:RDF>
      <cc:Work
         rdf:about="">
        <dc:format>image/svg+xml</dc:format>
        <dc:type
           rdf:resource="http://purl.org/dc/dcmitype/StillImage" />
        <dc:title />
      </cc:Work>
    </rdf:RDF>
  </metadata>
  <g
     inkscape:groupmode="layer"
     id="g16906"
     inkscape:label="Top inner"
     style="display:inline">
    <path
       style="fill:none;stroke:#00ffff;stroke-width:1.25887203;stroke-miterlimit:4;stroke-opacity:1"
       d="m 191.99213,54.746277 406.59203,0 c 12.0567,0 21.76299,9.706295 21.76299,21.762993 l 0,203.98857 c 0,12.0567 -9.70629,21.76299 -21.76299,21.76299 l -406.59203,0 c -12.05669,0 -21.76299,-9.70629 -21.76299,-21.76299 l 0,-203.98857 c 0,-12.056698 9.7063,-21.762993 21.76299,-21.762993 z"
       id="rect16908" />
    <path
       transform="translate(0.26785714,-4.3664622)"
       style="fill:none;stroke:#00ffff;stroke-width:0.25;stroke-miterlimit:4;stroke-opacity:1"
       d="m 197.87946,80.308609 c 0,3.759974 -3.04806,6.808036 -6.80803,6.808036 -3.75998,0 -6.80804,-3.048062 -6.80804,-6.808036 0,-3.759974 3.04806,-6.808036 6.80804,-6.808036 3.75997,0 6.80803,3.048062 6.80803,6.808036 z"
       id="path16910" />
    <path
       transform="translate(0.49107142,201.0491)"
       style="fill:none;stroke:#00ffff;stroke-width:0.25;stroke-miterlimit:4;stroke-opacity:1"
       d="m 197.87946,80.308609 c 0,3.759974 -3.04806,6.808036 -6.80803,6.808036 -3.75998,0 -6.80804,-3.048062 -6.80804,-6.808036 0,-3.759974 3.04806,-6.808036 6.80804,-6.808036 3.75997,0 6.80803,3.048062 6.80803,6.808036 z"
       id="path16912" />
    <path
       transform="translate(408.37054,201.09375)"
       style="fill:none;stroke:#00ffff;stroke-width:0.25;stroke-miterlimit:4;stroke-opacity:1"
       d="m 197.87946,80.308609 c 0,3.759974 -3.04806,6.808036 -6.80803,6.808036 -3.75998,0 -6.80804,-3.048062 -6.80804,-6.808036 0,-3.759974 3.04806,-6.808036 6.80804,-6.808036 3.75997,0 6.80803,3.048062 6.80803,6.808036 z"
       id="path16914" />
    <path
       transform="translate(408.08036,-4.3664622)"
       style="fill:none;stroke:#00ffff;stroke-width:0.25;stroke-miterlimit:4;stroke-opacity:1"
       d="m 197.87946,80.308609 c 0,3.759974 -3.04806,6.808036 -6.80803,6.808036 -3.75998,0 -6.80804,-3.048062 -6.80804,-6.808036 0,-3.759974 3.04806,-6.808036 6.80804,-6.808036 3.75997,0 6.80803,3.048062 6.80803,6.808036 z"
       id="path16916" />
    <path
       style="fill:none;stroke:#00ffff;stroke-width:0.25229642;stroke-miterlimit:4;stroke-opacity:1"
       d="m 223.58184,116.04256 22.05216,0 c 1.48082,0 2.67297,1.19214 2.67297,2.67296 l 0,28.55502 c 0,1.48082 -1.19215,2.67296 -2.67297,2.67296 l -22.05216,0 c -1.48082,0 -2.67297,-1.19214 -2.67297,-2.67296 l 0,-28.55502 c 0,-1.48082 1.19215,-2.67296 2.67297,-2.67296 z"
       id="rect16918" />
    <path
       style="fill:none;stroke:#00ffff;stroke-width:0.25229642;stroke-miterlimit:4;stroke-opacity:1"
       d="m 259.63164,116.04256 22.05217,0 c 1.48082,0 2.67296,1.19214 2.67296,2.67296 l 0,28.55502 c 0,1.48082 -1.19214,2.67296 -2.67296,2.67296 l -22.05217,0 c -1.48082,0 -2.67296,-1.19214 -2.67296,-2.67296 l 0,-28.55502 c 0,-1.48082 1.19214,-2.67296 2.67296,-2.67296 z"
       id="rect16920" />
    <path
       style="fill:none;stroke:#00ffff;stroke-width:0.25229642;stroke-miterlimit:4;stroke-opacity:1"
       d="m 295.5552,116.04256 22.05216,0 c 1.48082,0 2.67296,1.19214 2.67296,2.67296 l 0,28.55502 c 0,1.48082 -1.19214,2.67296 -2.67296,2.67296 l -22.05216,0 c -1.48083,0 -2.67297,-1.19214 -2.67297,-2.67296 l 0,-28.55502 c 0,-1.48082 1.19214,-2.67296 2.67297,-2.67296 z"
       id="rect16922" />
    <path
       style="fill:none;stroke:#00ffff;stroke-width:0.25229642;stroke-miterlimit:4;stroke-opacity:1"
       d="m 331.605,116.04256 22.05217,0 c 1.48082,0 2.67296,1.19214 2.67296,2.67296 l 0,28.55502 c 0,1.48082 -1.19214,2.67296 -2.67296,2.67296 l -22.05217,0 c -1.48082,0 -2.67296,-1.19214 -2.67296,-2.67296 l 0,-28.55502 c 0,-1.48082 1.19214,-2.67296 2.67296,-2.67296 z"
       id="rect16924" />
    <path
       style="fill:none;stroke:#00ffff;stroke-width:0.25229642;stroke-miterlimit:4;stroke-opacity:1"
       d="m 367.64718,116.04256 22.05216,0 c 1.48082,0 2.67296,1.19214 2.67296,2.67296 l 0,28.55502 c 0,1.48082 -1.19214,2.67296 -2.67296,2.67296 l -22.05216,0 c -1.48083,0 -2.67297,-1.19214 -2.67297,-2.67296 l 0,-28.55502 c 0,-1.48082 1.19214,-2.67296 2.67297,-2.67296 z"
       id="rect16926" />
    <path
       style="fill:none;stroke:#00ffff;stroke-width:0.25229642;stroke-miterlimit:4;stroke-opacity:1"
       d="m 403.69698,116.04256 22.05217,0 c 1.48082,0 2.67296,1.19214 2.67296,2.67296 l 0,28.55502 c 0,1.48082 -1.19214,2.67296 -2.67296,2.67296 l -22.05217,0 c -1.48082,0 -2.67296,-1.19214 -2.67296,-2.67296 l 0,-28.55502 c 0,-1.48082 1.19214,-2.67296 2.67296,-2.67296 z"
       id="rect16928" />
    <path
       style="fill:none;stroke:#00ffff;stroke-width:0.25229642;stroke-miterlimit:4;stroke-opacity:1"
       d="m 439.62054,116.04256 22.05216,0 c 1.48082,0 2.67296,1.19214 2.67296,2.67296 l 0,28.55502 c 0,1.48082 -1.19214,2.67296 -2.67296,2.67296 l -22.05216,0 c -1.48083,0 -2.67297,-1.19214 -2.67297,-2.67296 l 0,-28.55502 c 0,-1.48082 1.19214,-2.67296 2.67297,-2.67296 z"
       id="rect16930" />
    <path
       style="fill:none;stroke:#00ffff;stroke-width:0.25229642;stroke-miterlimit:4;stroke-opacity:1"
       d="m 475.67034,116.04256 22.05216,0 c 1.48083,0 2.67297,1.19214 2.67297,2.67296 l 0,28.55502 c 0,1.48082 -1.19214,2.67296 -2.67297,2.67296 l -22.05216,0 c -1.48082,0 -2.67296,-1.19214 -2.67296,-2.67296 l 0,-28.55502 c 0,-1.48082 1.19214,-2.67296 2.67296,-2.67296 z"
       id="rect16932" />
    <path
       style="fill:none;stroke:#00ffff;stroke-width:0.25229642;stroke-miterlimit:4;stroke-opacity:1"
       d="m 511.60604,116.04256 22.05216,0 c 1.48083,0 2.67297,1.19214 2.67297,2.67296 l 0,28.55502 c 0,1.48082 -1.19214,2.67296 -2.67297,2.67296 l -22.05216,0 c -1.48082,0 -2.67297,-1.19214 -2.67297,-2.67296 l 0,-28.55502 c 0,-1.48082 1.19215,-2.67296 2.67297,-2.67296 z"
       id="rect16934" />
    <path
       style="fill:none;stroke:#00ffff;stroke-width:0.25229642;stroke-miterlimit:4;stroke-opacity:1"
       d="m 547.65581,116.04256 22.05217,0 c 1.48082,0 2.67296,1.19214 2.67296,2.67296 l 0,28.55502 c 0,1.48082 -1.19214,2.67296 -2.67296,2.67296 l -22.05217,0 c -1.48082,0 -2.67296,-1.19214 -2.67296,-2.67296 l 0,-28.55502 c 0,-1.48082 1.19214,-2.67296 2.67296,-2.67296 z"
       id="rect16936" />
    <path
       style="fill:none;stroke:#00ffff;stroke-width:0.25229642;stroke-miterlimit:4;stroke-opacity:1"
       d="m 232.67321,161.12062 22.05216,0 c 1.48082,0 2.67297,1.19214 2.67297,2.67297 l 0,28.55501 c 0,1.48083 -1.19215,2.67297 -2.67297,2.67297 l -22.05216,0 c -1.48082,0 -2.67297,-1.19214 -2.67297,-2.67297 l 0,-28.55501 c 0,-1.48083 1.19215,-2.67297 2.67297,-2.67297 z"
       id="rect16938" />
    <path
       style="fill:none;stroke:#00ffff;stroke-width:0.25229642;stroke-miterlimit:4;stroke-opacity:1"
       d="m 268.72301,161.12062 22.05217,0 c 1.48082,0 2.67296,1.19214 2.67296,2.67297 l 0,28.55501 c 0,1.48083 -1.19214,2.67297 -2.67296,2.67297 l -22.05217,0 c -1.48082,0 -2.67296,-1.19214 -2.67296,-2.67297 l 0,-28.55501 c 0,-1.48083 1.19214,-2.67297 2.67296,-2.67297 z"
       id="rect16940" />
    <path
       style="fill:none;stroke:#00ffff;stroke-width:0.25229642;stroke-miterlimit:4;stroke-opacity:1"
       d="m 304.64657,161.12062 22.05216,0 c 1.48082,0 2.67296,1.19214 2.67296,2.67297 l 0,28.55501 c 0,1.48083 -1.19214,2.67297 -2.67296,2.67297 l -22.05216,0 c -1.48083,0 -2.67297,-1.19214 -2.67297,-2.67297 l 0,-28.55501 c 0,-1.48083 1.19214,-2.67297 2.67297,-2.67297 z"
       id="rect16942" />
    <path
       style="fill:none;stroke:#00ffff;stroke-width:0.25229642;stroke-miterlimit:4;stroke-opacity:1"
       d="m 340.69637,161.12062 22.05216,0 c 1.48083,0 2.67297,1.19214 2.67297,2.67297 l 0,28.55501 c 0,1.48083 -1.19214,2.67297 -2.67297,2.67297 l -22.05216,0 c -1.48082,0 -2.67296,-1.19214 -2.67296,-2.67297 l 0,-28.55501 c 0,-1.48083 1.19214,-2.67297 2.67296,-2.67297 z"
       id="rect16944" />
    <path
       style="fill:none;stroke:#00ffff;stroke-width:0.25229642;stroke-miterlimit:4;stroke-opacity:1"
       d="m 376.73855,161.12062 22.05216,0 c 1.48082,0 2.67296,1.19214 2.67296,2.67297 l 0,28.55501 c 0,1.48083 -1.19214,2.67297 -2.67296,2.67297 l -22.05216,0 c -1.48083,0 -2.67297,-1.19214 -2.67297,-2.67297 l 0,-28.55501 c 0,-1.48083 1.19214,-2.67297 2.67297,-2.67297 z"
       id="rect16946" />
    <path
       style="fill:none;stroke:#00ffff;stroke-width:0.25229642;stroke-miterlimit:4;stroke-opacity:1"
       d="m 412.78835,161.12062 22.05216,0 c 1.48083,0 2.67297,1.19214 2.67297,2.67297 l 0,28.55501 c 0,1.48083 -1.19214,2.67297 -2.67297,2.67297 l -22.05216,0 c -1.48082,0 -2.67296,-1.19214 -2.67296,-2.67297 l 0,-28.55501 c 0,-1.48083 1.19214,-2.67297 2.67296,-2.67297 z"
       id="rect16948" />
    <path
       style="fill:none;stroke:#00ffff;stroke-width:0.25229642;stroke-miterlimit:4;stroke-opacity:1"
       d="m 448.71191,161.12062 22.05216,0 c 1.48082,0 2.67296,1.19214 2.67296,2.67297 l 0,28.55501 c 0,1.48083 -1.19214,2.67297 -2.67296,2.67297 l -22.05216,0 c -1.48083,0 -2.67297,-1.19214 -2.67297,-2.67297 l 0,-28.55501 c 0,-1.48083 1.19214,-2.67297 2.67297,-2.67297 z"
       id="rect16950" />
    <path
       style="fill:none;stroke:#00ffff;stroke-width:0.25229642;stroke-miterlimit:4;stroke-opacity:1"
       d="m 484.76171,161.12062 22.05216,0 c 1.48083,0 2.67297,1.19214 2.67297,2.67297 l 0,28.55501 c 0,1.48083 -1.19214,2.67297 -2.67297,2.67297 l -22.05216,0 c -1.48082,0 -2.67296,-1.19214 -2.67296,-2.67297 l 0,-28.55501 c 0,-1.48083 1.19214,-2.67297 2.67296,-2.67297 z"
       id="rect16952" />
    <path
       style="fill:none;stroke:#00ffff;stroke-width:0.25229642;stroke-miterlimit:4;stroke-opacity:1"
       d="m 520.69744,161.12062 22.05216,0 c 1.48083,0 2.67297,1.19214 2.67297,2.67297 l 0,28.55501 c 0,1.48083 -1.19214,2.67297 -2.67297,2.67297 l -22.05216,0 c -1.48082,0 -2.67296,-1.19214 -2.67296,-2.67297 l 0,-28.55501 c 0,-1.48083 1.19214,-2.67297 2.67296,-2.67297 z"
       id="rect16954" />
    <path
       style="fill:none;stroke:#00ffff;stroke-width:0.25229642;stroke-miterlimit:4;stroke-opacity:1"
       d="m 556.74718,161.12062 22.05217,0 c 1.48082,0 2.67296,1.19214 2.67296,2.67297 l 0,28.55501 c 0,1.48083 -1.19214,2.67297 -2.67296,2.67297 l -22.05217,0 c -1.48082,0 -2.67296,-1.19214 -2.67296,-2.67297 l 0,-28.55501 c 0,-1.48083 1.19214,-2.67297 2.67296,-2.67297 z"
       id="rect16956" />
    <path
       style="fill:none;stroke:#00ffff;stroke-width:0.25229642;stroke-miterlimit:4;stroke-opacity:1"
       d="m 241.67574,206.03583 22.05216,0 c 1.48083,0 2.67297,1.19214 2.67297,2.67296 l 0,28.55502 c 0,1.48082 -1.19214,2.67297 -2.67297,2.67297 l -22.05216,0 c -1.48082,0 -2.67296,-1.19215 -2.67296,-2.67297 l 0,-28.55502 c 0,-1.48082 1.19214,-2.67296 2.67296,-2.67296 z"
       id="rect16958" />
    <path
       style="fill:none;stroke:#00ffff;stroke-width:0.25229642;stroke-miterlimit:4;stroke-opacity:1"
       d="m 277.72555,206.03583 22.05216,0 c 1.48082,0 2.67296,1.19214 2.67296,2.67296 l 0,28.55502 c 0,1.48082 -1.19214,2.67297 -2.67296,2.67297 l -22.05216,0 c -1.48083,0 -2.67297,-1.19215 -2.67297,-2.67297 l 0,-28.55502 c 0,-1.48082 1.19214,-2.67296 2.67297,-2.67296 z"
       id="rect16960" />
    <path
       style="fill:none;stroke:#00ffff;stroke-width:0.25229642;stroke-miterlimit:4;stroke-opacity:1"
       d="m 313.6491,206.03583 22.05216,0 c 1.48083,0 2.67297,1.19214 2.67297,2.67296 l 0,28.55502 c 0,1.48082 -1.19214,2.67297 -2.67297,2.67297 l -22.05216,0 c -1.48082,0 -2.67296,-1.19215 -2.67296,-2.67297 l 0,-28.55502 c 0,-1.48082 1.19214,-2.67296 2.67296,-2.67296 z"
       id="rect16962" />
    <path
       style="fill:none;stroke:#00ffff;stroke-width:0.25229642;stroke-miterlimit:4;stroke-opacity:1"
       d="m 349.6989,206.03583 22.05217,0 c 1.48082,0 2.67296,1.19214 2.67296,2.67296 l 0,28.55502 c 0,1.48082 -1.19214,2.67297 -2.67296,2.67297 l -22.05217,0 c -1.48082,0 -2.67296,-1.19215 -2.67296,-2.67297 l 0,-28.55502 c 0,-1.48082 1.19214,-2.67296 2.67296,-2.67296 z"
       id="rect16964" />
    <path
       style="fill:none;stroke:#00ffff;stroke-width:0.25229642;stroke-miterlimit:4;stroke-opacity:1"
       d="m 385.74108,206.03583 22.05216,0 c 1.48083,0 2.67297,1.19214 2.67297,2.67296 l 0,28.55502 c 0,1.48082 -1.19214,2.67297 -2.67297,2.67297 l -22.05216,0 c -1.48082,0 -2.67296,-1.19215 -2.67296,-2.67297 l 0,-28.55502 c 0,-1.48082 1.19214,-2.67296 2.67296,-2.67296 z"
       id="rect16966" />
    <path
       style="fill:none;stroke:#00ffff;stroke-width:0.25229642;stroke-miterlimit:4;stroke-opacity:1"
       d="m 421.79088,206.03583 22.05217,0 c 1.48082,0 2.67296,1.19214 2.67296,2.67296 l 0,28.55502 c 0,1.48082 -1.19214,2.67297 -2.67296,2.67297 l -22.05217,0 c -1.48082,0 -2.67296,-1.19215 -2.67296,-2.67297 l 0,-28.55502 c 0,-1.48082 1.19214,-2.67296 2.67296,-2.67296 z"
       id="rect16968" />
    <path
       style="fill:none;stroke:#00ffff;stroke-width:0.25229642;stroke-miterlimit:4;stroke-opacity:1"
       d="m 457.71444,206.03583 22.05216,0 c 1.48082,0 2.67297,1.19214 2.67297,2.67296 l 0,28.55502 c 0,1.48082 -1.19215,2.67297 -2.67297,2.67297 l -22.05216,0 c -1.48082,0 -2.67297,-1.19215 -2.67297,-2.67297 l 0,-28.55502 c 0,-1.48082 1.19215,-2.67296 2.67297,-2.67296 z"
       id="rect16970" />
    <path
       style="fill:none;stroke:#00ffff;stroke-width:0.25229642;stroke-miterlimit:4;stroke-opacity:1"
       d="m 493.76424,206.03583 22.05217,0 c 1.48082,0 2.67296,1.19214 2.67296,2.67296 l 0,28.55502 c 0,1.48082 -1.19214,2.67297 -2.67296,2.67297 l -22.05217,0 c -1.48082,0 -2.67296,-1.19215 -2.67296,-2.67297 l 0,-28.55502 c 0,-1.48082 1.19214,-2.67296 2.67296,-2.67296 z"
       id="rect16972" />
    <path
       style="fill:none;stroke:#00ffff;stroke-width:0.25229642;stroke-miterlimit:4;stroke-opacity:1"
       d="m 529.7,206.03583 22.05217,0 c 1.48082,0 2.67296,1.19214 2.67296,2.67296 l 0,28.55502 c 0,1.48082 -1.19214,2.67297 -2.67296,2.67297 l -22.05217,0 c -1.48082,0 -2.67296,-1.19215 -2.67296,-2.67297 l 0,-28.55502 c 0,-1.48082 1.19214,-2.67296 2.67296,-2.67296 z"
       id="rect16974" />
    <path
       style="fill:none;stroke:#00ffff;stroke-width:0.25229642;stroke-miterlimit:4;stroke-opacity:1"
       d="m 565.74975,206.03583 22.05216,0 c 1.48082,0 2.67296,1.19214 2.67296,2.67296 l 0,28.55502 c 0,1.48082 -1.19214,2.67297 -2.67296,2.67297 l -22.05216,0 c -1.48083,0 -2.67297,-1.19215 -2.67297,-2.67297 l 0,-28.55502 c 0,-1.48082 1.19214,-2.67296 2.67297,-2.67296 z"
       id="rect16976" />
    <path
       style="fill:none;stroke:#00ffff;stroke-width:0.25229642;stroke-miterlimit:4;stroke-opacity:1"
       d="m 223.74554,251.08232 22.05216,0 c 1.48082,0 2.67296,1.19214 2.67296,2.67297 l 0,28.55501 c 0,1.48083 -1.19214,2.67297 -2.67296,2.67297 l -22.05216,0 c -1.48083,0 -2.67297,-1.19214 -2.67297,-2.67297 l 0,-28.55501 c 0,-1.48083 1.19214,-2.67297 2.67297,-2.67297 z"
       id="rect16978" />
    <path
       style="fill:none;stroke:#00ffff;stroke-width:0.25229642;stroke-miterlimit:4;stroke-opacity:1"
       d="m 259.79534,251.08232 22.05216,0 c 1.48083,0 2.67297,1.19214 2.67297,2.67297 l 0,28.55501 c 0,1.48083 -1.19214,2.67297 -2.67297,2.67297 l -22.05216,0 c -1.48082,0 -2.67296,-1.19214 -2.67296,-2.67297 l 0,-28.55501 c 0,-1.48083 1.19214,-2.67297 2.67296,-2.67297 z"
       id="rect16980" />
    <path
       style="fill:none;stroke:#00ffff;stroke-width:0.25229642;stroke-miterlimit:4;stroke-opacity:1"
       d="m 295.71889,251.08232 22.05217,0 c 1.48082,0 2.67296,1.19214 2.67296,2.67297 l 0,28.55501 c 0,1.48083 -1.19214,2.67297 -2.67296,2.67297 l -22.05217,0 c -1.48082,0 -2.67296,-1.19214 -2.67296,-2.67297 l 0,-28.55501 c 0,-1.48083 1.19214,-2.67297 2.67296,-2.67297 z"
       id="rect16982" />
    <path
       style="fill:none;stroke:#00ffff;stroke-width:0.25229642;stroke-miterlimit:4;stroke-opacity:1"
       d="m 331.7687,251.08232 22.05216,0 c 1.48082,0 2.67297,1.19214 2.67297,2.67297 l 0,28.55501 c 0,1.48083 -1.19215,2.67297 -2.67297,2.67297 l -22.05216,0 c -1.48082,0 -2.67297,-1.19214 -2.67297,-2.67297 l 0,-28.55501 c 0,-1.48083 1.19215,-2.67297 2.67297,-2.67297 z"
       id="rect16984" />
    <path
       style="fill:none;stroke:#00ffff;stroke-width:0.25229642;stroke-miterlimit:4;stroke-opacity:1"
       d="m 367.81087,251.08232 22.05217,0 c 1.48082,0 2.67296,1.19214 2.67296,2.67297 l 0,28.55501 c 0,1.48083 -1.19214,2.67297 -2.67296,2.67297 l -22.05217,0 c -1.48082,0 -2.67296,-1.19214 -2.67296,-2.67297 l 0,-28.55501 c 0,-1.48083 1.19214,-2.67297 2.67296,-2.67297 z"
       id="rect16986" />
    <path
       style="fill:none;stroke:#00ffff;stroke-width:0.25229642;stroke-miterlimit:4;stroke-opacity:1"
       d="m 403.86068,251.08232 22.05216,0 c 1.48082,0 2.67297,1.19214 2.67297,2.67297 l 0,28.55501 c 0,1.48083 -1.19215,2.67297 -2.67297,2.67297 l -22.05216,0 c -1.48082,0 -2.67297,-1.19214 -2.67297,-2.67297 l 0,-28.55501 c 0,-1.48083 1.19215,-2.67297 2.67297,-2.67297 z"
       id="rect16988" />
    <path
       style="fill:none;stroke:#00ffff;stroke-width:0.25229642;stroke-miterlimit:4;stroke-opacity:1"
       d="m 439.78423,251.08232 22.05216,0 c 1.48083,0 2.67297,1.19214 2.67297,2.67297 l 0,28.55501 c 0,1.48083 -1.19214,2.67297 -2.67297,2.67297 l -22.05216,0 c -1.48082,0 -2.67296,-1.19214 -2.67296,-2.67297 l 0,-28.55501 c 0,-1.48083 1.19214,-2.67297 2.67296,-2.67297 z"
       id="rect16990" />
    <path
       style="fill:none;stroke:#00ffff;stroke-width:0.25229642;stroke-miterlimit:4;stroke-opacity:1"
       d="m 475.83404,251.08232 22.05216,0 c 1.48082,0 2.67296,1.19214 2.67296,2.67297 l 0,28.55501 c 0,1.48083 -1.19214,2.67297 -2.67296,2.67297 l -22.05216,0 c -1.48083,0 -2.67297,-1.19214 -2.67297,-2.67297 l 0,-28.55501 c 0,-1.48083 1.19214,-2.67297 2.67297,-2.67297 z"
       id="rect16992" />
    <path
       style="fill:none;stroke:#00ffff;stroke-width:0.25229642;stroke-miterlimit:4;stroke-opacity:1"
       d="m 511.7698,251.08232 22.05216,0 c 1.48082,0 2.67296,1.19214 2.67296,2.67297 l 0,28.55501 c 0,1.48083 -1.19214,2.67297 -2.67296,2.67297 l -22.05216,0 c -1.48083,0 -2.67297,-1.19214 -2.67297,-2.67297 l 0,-28.55501 c 0,-1.48083 1.19214,-2.67297 2.67297,-2.67297 z"
       id="rect16994" />
    <path
       style="fill:none;stroke:#00ffff;stroke-width:0.25229642;stroke-miterlimit:4;stroke-opacity:1"
       d="m 547.81957,251.08232 22.05216,0 c 1.48083,0 2.67297,1.19214 2.67297,2.67297 l 0,28.55501 c 0,1.48083 -1.19214,2.67297 -2.67297,2.67297 l -22.05216,0 c -1.48082,0 -2.67296,-1.19214 -2.67296,-2.67297 l 0,-28.55501 c 0,-1.48083 1.19214,-2.67297 2.67296,-2.67297 z"
       id="rect16996" />
    <path
       style="fill:none;stroke:#00ffff;stroke-width:0.25;stroke-miterlimit:4;stroke-opacity:1"
       d="m 177.85154,113.96932 6.43978,0 c 1.48083,0 2.67297,1.19214 2.67297,2.67297 l 0,85.72549 c 0,1.48083 -1.19214,2.67297 -2.67297,2.67297 l -6.43978,0 c -1.48082,0 -2.67297,-1.19214 -2.67297,-2.67297 l 0,-85.72549 c 0,-1.48083 1.19215,-2.67297 2.67297,-2.67297 z"
       id="rect16998" />
    <path
       style="fill:none;stroke:#00ffff;stroke-width:0.25;stroke-miterlimit:4;stroke-opacity:1"
       d="m 205.53011,176.82646 3.40407,0 c 1.48083,0 2.67297,1.19214 2.67297,2.67297 l 0,21.9755 c 0,1.48082 -1.19214,2.67296 -2.67297,2.67296 l -3.40407,0 c -1.48082,0 -2.67296,-1.19214 -2.67296,-2.67296 l 0,-21.9755 c 0,-1.48083 1.19214,-2.67297 2.67296,-2.67297 z"
       id="rect17000" />
    <path
       style="fill:none;stroke:#00ffff;stroke-width:0.25;stroke-miterlimit:4;stroke-opacity:1"
       d="m 191.42296,159.86218 13.2255,0 c 1.48083,0 2.67297,1.19214 2.67297,2.67297 l 0,3.76121 c 0,1.48082 -1.19214,2.67297 -2.67297,2.67297 l -13.2255,0 c -1.48082,0 -2.67296,-1.19215 -2.67296,-2.67297 l 0,-3.76121 c 0,-1.48083 1.19214,-2.67297 2.67296,-2.67297 z"
       id="rect17002" />
    <path
       style="fill:none;stroke:#00ffff;stroke-width:0.25;stroke-miterlimit:4;stroke-opacity:1"
       d="m 199.63724,117.18361 5.54693,0 c 1.48082,0 2.67297,1.19214 2.67297,2.67296 l 0,31.9755 c 0,1.48083 -1.19215,2.67297 -2.67297,2.67297 l -5.54693,0 c -1.48082,0 -2.67296,-1.19214 -2.67296,-2.67297 l 0,-31.9755 c 0,-1.48082 1.19214,-2.67296 2.67296,-2.67296 z"
       id="rect17004" />
    <path
       style="fill:none;stroke:#00ffff;stroke-width:0.25;stroke-miterlimit:4;stroke-opacity:1"
       d="m 214.63724,103.96932 105.36836,0 c 1.48082,0 2.67297,1.19214 2.67297,2.67297 l 0,3.93978 c 0,1.48082 -1.19215,2.67297 -2.67297,2.67297 l -105.36836,0 c -1.48082,0 -2.67296,-1.19215 -2.67296,-2.67297 l 0,-3.93978 c 0,-1.48083 1.19214,-2.67297 2.67296,-2.67297 z"
       id="rect17006" />
    <path
       style="fill:none;stroke:#00ffff;stroke-width:0.25;stroke-miterlimit:4;stroke-opacity:1"
       d="m 224.10154,84.683609 121.43978,0 c 1.48082,0 2.67297,1.192142 2.67297,2.672965 l 0,4.65407 c 0,1.480823 -1.19215,2.672965 -2.67297,2.672965 l -121.43978,0 c -1.48082,0 -2.67297,-1.192142 -2.67297,-2.672965 l 0,-4.65407 c 0,-1.480823 1.19215,-2.672965 2.67297,-2.672965 z"
       id="rect17008" />
    <path
       style="fill:none;stroke:#00ffff;stroke-width:0.25;stroke-miterlimit:4;stroke-opacity:1"
       d="m 215.53011,68.255035 102.15407,0 c 1.48083,0 2.67297,1.192143 2.67297,2.672965 l 0,3.225499 c 0,1.480822 -1.19214,2.672965 -2.67297,2.672965 l -102.15407,0 c -1.48082,0 -2.67296,-1.192143 -2.67296,-2.672965 l 0,-3.225499 c 0,-1.480822 1.19214,-2.672965 2.67296,-2.672965 z"
       id="rect17010" />
    <path
       style="fill:none;stroke:#00ffff;stroke-width:0.25;stroke-miterlimit:4;stroke-opacity:1"
       d="m 224.10154,58.433609 121.26121,0 c 1.48082,0 2.67296,1.192142 2.67296,2.672965 l 0,2.868356 c 0,1.480823 -1.19214,2.672965 -2.67296,2.672965 l -121.26121,0 c -1.48082,0 -2.67297,-1.192142 -2.67297,-2.672965 l 0,-2.868356 c 0,-1.480823 1.19215,-2.672965 2.67297,-2.672965 z"
       id="rect17012" />
    <path
       style="fill:none;stroke:#00ffff;stroke-width:0.25;stroke-miterlimit:4;stroke-opacity:1"
       d="m 359.99441,64.147896 27.15407,0 c 1.48082,0 2.67296,1.192142 2.67296,2.672964 l 0,2.511214 c 0,1.480823 -1.19214,2.672965 -2.67296,2.672965 l -27.15407,0 c -1.48083,0 -2.67297,-1.192142 -2.67297,-2.672965 l 0,-2.511214 c 0,-1.480822 1.19214,-2.672964 2.67297,-2.672964 z"
       id="rect17014" />
    <path
       style="fill:none;stroke:#00ffff;stroke-width:0.25;stroke-miterlimit:4;stroke-opacity:1"
       d="m 360.53011,80.933609 26.08264,0 c 1.48083,0 2.67297,1.192142 2.67297,2.672965 l 0,3.225499 c 0,1.480822 -1.19214,2.672964 -2.67297,2.672964 l -26.08264,0 c -1.48082,0 -2.67296,-1.192142 -2.67296,-2.672964 l 0,-3.225499 c 0,-1.480823 1.19214,-2.672965 2.67296,-2.672965 z"
       id="rect17016" />
    <path
       style="fill:none;stroke:#00ffff;stroke-width:0.25;stroke-miterlimit:4;stroke-opacity:1"
       d="m 407.49441,84.147896 3.93978,0 c 1.48082,0 2.67297,1.192142 2.67297,2.672964 l 0,13.40407 c 0,1.48082 -1.19215,2.67297 -2.67297,2.67297 l -3.93978,0 c -1.48083,0 -2.67297,-1.19215 -2.67297,-2.67297 l 0,-13.40407 c 0,-1.480822 1.19214,-2.672964 2.67297,-2.672964 z"
       id="rect17018" />
    <path
       style="fill:none;stroke:#00ffff;stroke-width:0.25;stroke-miterlimit:4;stroke-opacity:1"
       d="m 444.28011,84.862183 12.86836,0 c 1.48082,0 2.67296,1.192142 2.67296,2.672964 l 0,13.582643 c 0,1.48082 -1.19214,2.67296 -2.67296,2.67296 l -12.86836,0 c -1.48082,0 -2.67296,-1.19214 -2.67296,-2.67296 l 0,-13.582643 c 0,-1.480822 1.19214,-2.672964 2.67296,-2.672964 z"
       id="rect17020" />
    <path
       style="fill:none;stroke:#00ffff;stroke-width:0.25;stroke-miterlimit:4;stroke-opacity:1"
       d="m 488.74441,84.862183 12.51121,0 c 1.48082,0 2.67297,1.192142 2.67297,2.672964 l 0,13.582643 c 0,1.48082 -1.19215,2.67296 -2.67297,2.67296 l -12.51121,0 c -1.48083,0 -2.67297,-1.19214 -2.67297,-2.67296 l 0,-13.582643 c 0,-1.480822 1.19214,-2.672964 2.67297,-2.672964 z"
       id="rect17022" />
    <path
       style="fill:none;stroke:#00ffff;stroke-width:0.25;stroke-miterlimit:4;stroke-opacity:1"
       d="m 533.38726,84.147896 13.76121,0 c 1.48083,0 2.67297,1.192142 2.67297,2.672964 l 0,14.29693 c 0,1.48082 -1.19214,2.67296 -2.67297,2.67296 l -13.76121,0 c -1.48082,0 -2.67297,-1.19214 -2.67297,-2.67296 l 0,-14.29693 c 0,-1.480822 1.19215,-2.672964 2.67297,-2.672964 z"
       id="rect17024" />
    <path
       style="fill:none;stroke:#00ffff;stroke-width:0.25;stroke-miterlimit:4;stroke-opacity:1"
       d="m 578.20867,84.683609 4.11836,0 c 1.48082,0 2.67296,1.192142 2.67296,2.672965 l 0,13.404066 c 0,1.48083 -1.19214,2.67297 -2.67296,2.67297 l -4.11836,0 c -1.48082,0 -2.67296,-1.19214 -2.67296,-2.67297 l 0,-13.404066 c 0,-1.480823 1.19214,-2.672965 2.67296,-2.672965 z"
       id="rect17026" />
    <path
       style="fill:none;stroke:#00ffff;stroke-width:0.25;stroke-miterlimit:4;stroke-opacity:1"
       d="m 491.95867,63.790752 65.90407,0 c 1.48082,0 2.67297,1.192143 2.67297,2.672965 l 0,6.082643 c 0,1.480822 -1.19215,2.672964 -2.67297,2.672964 l -65.90407,0 c -1.48082,0 -2.67296,-1.192142 -2.67296,-2.672964 l 0,-6.082643 c 0,-1.480822 1.19214,-2.672965 2.67296,-2.672965 z"
       id="rect17028" />
    <path
       style="fill:none;stroke:#00ffff;stroke-width:0.25;stroke-miterlimit:4;stroke-opacity:1"
       d="m 437.13726,65.219322 39.83264,0 c 1.48082,0 2.67296,1.192142 2.67296,2.672965 l 0,4.118356 c 0,1.480823 -1.19214,2.672965 -2.67296,2.672965 l -39.83264,0 c -1.48082,0 -2.67297,-1.192142 -2.67297,-2.672965 l 0,-4.118356 c 0,-1.480823 1.19215,-2.672965 2.67297,-2.672965 z"
       id="rect17030" />
  </g>
</svg>
