<?xml version="1.0" encoding="UTF-8" standalone="no"?>
<!-- Created with Inkscape (http://www.inkscape.org/) -->

<svg
   xmlns:dc="http://purl.org/dc/elements/1.1/"
   xmlns:cc="http://creativecommons.org/ns#"
   xmlns:rdf="http://www.w3.org/1999/02/22-rdf-syntax-ns#"
   xmlns:svg="http://www.w3.org/2000/svg"
   xmlns="http://www.w3.org/2000/svg"
   xmlns:sodipodi="http://sodipodi.sourceforge.net/DTD/sodipodi-0.dtd"
   xmlns:inkscape="http://www.inkscape.org/namespaces/inkscape"
   width="744.09448819"
   height="1052.3622047"
   id="svg2"
   version="1.1"
   inkscape:version="0.48.4 r9939"
   sodipodi:docname="Keyboard layer top.svg">
  <defs
     id="defs4" />
  <sodipodi:namedview
     id="base"
     pagecolor="#ffffff"
     bordercolor="#666666"
     borderopacity="1.0"
     inkscape:pageopacity="0.0"
     inkscape:pageshadow="2"
     inkscape:zoom="1.4"
     inkscape:cx="330.92845"
     inkscape:cy="914.08772"
     inkscape:document-units="px"
     inkscape:current-layer="g16814"
     showgrid="false"
     inkscape:window-width="1280"
     inkscape:window-height="972"
     inkscape:window-x="0"
     inkscape:window-y="0"
     inkscape:window-maximized="1" />
  <metadata
     id="metadata7">
    <rdf:RDF>
      <cc:Work
         rdf:about="">
        <dc:format>image/svg+xml</dc:format>
        <dc:type
           rdf:resource="http://purl.org/dc/dcmitype/StillImage" />
        <dc:title />
      </cc:Work>
    </rdf:RDF>
  </metadata>
  <g
     style="display:inline"
     inkscape:label="Top 1"
     id="g16814"
     inkscape:groupmode="layer">
    <path
       style="fill:none;stroke:#00ff00;stroke-width:1.25887203;stroke-miterlimit:4;stroke-opacity:1"
       d="m 191.99372,54.746277 406.58886,0 c 12.05757,0 21.76457,9.707001 21.76457,21.764576 l 0,203.985407 c 0,12.05757 -9.707,21.76457 -21.76457,21.76457 l -406.58886,0 c -12.05758,0 -21.76458,-9.707 -21.76458,-21.76457 l 0,-203.985407 c 0,-12.057575 9.707,-21.764576 21.76458,-21.764576 z"
       id="rect16816" />
    <path
       transform="translate(0.26785714,-4.3664622)"
       style="fill:none;stroke:#00ff00;stroke-width:0.25;stroke-miterlimit:4;stroke-opacity:1"
       d="m 197.87946,80.308609 c 0,3.759974 -3.04806,6.808036 -6.80803,6.808036 -3.75998,0 -6.80804,-3.048062 -6.80804,-6.808036 0,-3.759974 3.04806,-6.808036 6.80804,-6.808036 3.75997,0 6.80803,3.048062 6.80803,6.808036 z"
       id="path16818" />
    <path
       transform="translate(0.49107142,201.0491)"
       style="fill:none;stroke:#00ff00;stroke-width:0.25;stroke-miterlimit:4;stroke-opacity:1"
       d="m 197.87946,80.308609 c 0,3.759974 -3.04806,6.808036 -6.80803,6.808036 -3.75998,0 -6.80804,-3.048062 -6.80804,-6.808036 0,-3.759974 3.04806,-6.808036 6.80804,-6.808036 3.75997,0 6.80803,3.048062 6.80803,6.808036 z"
       id="path16820" />
    <path
       transform="translate(408.37054,201.09375)"
       style="fill:none;stroke:#00ff00;stroke-width:0.25;stroke-miterlimit:4;stroke-opacity:1"
       d="m 197.87946,80.308609 c 0,3.759974 -3.04806,6.808036 -6.80803,6.808036 -3.75998,0 -6.80804,-3.048062 -6.80804,-6.808036 0,-3.759974 3.04806,-6.808036 6.80804,-6.808036 3.75997,0 6.80803,3.048062 6.80803,6.808036 z"
       id="path16822" />
    <path
       transform="translate(408.08036,-4.3664622)"
       style="fill:none;stroke:#00ff00;stroke-width:0.25;stroke-miterlimit:4;stroke-opacity:1"
       d="m 197.87946,80.308609 c 0,3.759974 -3.04806,6.808036 -6.80803,6.808036 -3.75998,0 -6.80804,-3.048062 -6.80804,-6.808036 0,-3.759974 3.04806,-6.808036 6.80804,-6.808036 3.75997,0 6.80803,3.048062 6.80803,6.808036 z"
       id="path16824" />
    <path
       style="fill:none;stroke:#00ff00;stroke-width:0.25229642;stroke-miterlimit:4;stroke-opacity:1"
       d="m 223.58184,116.04256 22.05216,0 c 1.48082,0 2.67297,1.19214 2.67297,2.67296 l 0,28.55502 c 0,1.48082 -1.19215,2.67296 -2.67297,2.67296 l -22.05216,0 c -1.48082,0 -2.67297,-1.19214 -2.67297,-2.67296 l 0,-28.55502 c 0,-1.48082 1.19215,-2.67296 2.67297,-2.67296 z"
       id="rect16826" />
    <path
       style="fill:none;stroke:#00ff00;stroke-width:0.25229642;stroke-miterlimit:4;stroke-opacity:1"
       d="m 259.63164,116.04256 22.05217,0 c 1.48082,0 2.67296,1.19214 2.67296,2.67296 l 0,28.55502 c 0,1.48082 -1.19214,2.67296 -2.67296,2.67296 l -22.05217,0 c -1.48082,0 -2.67296,-1.19214 -2.67296,-2.67296 l 0,-28.55502 c 0,-1.48082 1.19214,-2.67296 2.67296,-2.67296 z"
       id="rect16828" />
    <path
       style="fill:none;stroke:#00ff00;stroke-width:0.25229642;stroke-miterlimit:4;stroke-opacity:1"
       d="m 295.5552,116.04256 22.05216,0 c 1.48082,0 2.67296,1.19214 2.67296,2.67296 l 0,28.55502 c 0,1.48082 -1.19214,2.67296 -2.67296,2.67296 l -22.05216,0 c -1.48083,0 -2.67297,-1.19214 -2.67297,-2.67296 l 0,-28.55502 c 0,-1.48082 1.19214,-2.67296 2.67297,-2.67296 z"
       id="rect16830" />
    <path
       style="fill:none;stroke:#00ff00;stroke-width:0.25229642;stroke-miterlimit:4;stroke-opacity:1"
       d="m 331.605,116.04256 22.05217,0 c 1.48082,0 2.67296,1.19214 2.67296,2.67296 l 0,28.55502 c 0,1.48082 -1.19214,2.67296 -2.67296,2.67296 l -22.05217,0 c -1.48082,0 -2.67296,-1.19214 -2.67296,-2.67296 l 0,-28.55502 c 0,-1.48082 1.19214,-2.67296 2.67296,-2.67296 z"
       id="rect16832" />
    <path
       style="fill:none;stroke:#00ff00;stroke-width:0.25229642;stroke-miterlimit:4;stroke-opacity:1"
       d="m 367.64718,116.04256 22.05216,0 c 1.48082,0 2.67296,1.19214 2.67296,2.67296 l 0,28.55502 c 0,1.48082 -1.19214,2.67296 -2.67296,2.67296 l -22.05216,0 c -1.48083,0 -2.67297,-1.19214 -2.67297,-2.67296 l 0,-28.55502 c 0,-1.48082 1.19214,-2.67296 2.67297,-2.67296 z"
       id="rect16834" />
    <path
       style="fill:none;stroke:#00ff00;stroke-width:0.25229642;stroke-miterlimit:4;stroke-opacity:1"
       d="m 403.69698,116.04256 22.05217,0 c 1.48082,0 2.67296,1.19214 2.67296,2.67296 l 0,28.55502 c 0,1.48082 -1.19214,2.67296 -2.67296,2.67296 l -22.05217,0 c -1.48082,0 -2.67296,-1.19214 -2.67296,-2.67296 l 0,-28.55502 c 0,-1.48082 1.19214,-2.67296 2.67296,-2.67296 z"
       id="rect16836" />
    <path
       style="fill:none;stroke:#00ff00;stroke-width:0.25229642;stroke-miterlimit:4;stroke-opacity:1"
       d="m 439.62054,116.04256 22.05216,0 c 1.48082,0 2.67296,1.19214 2.67296,2.67296 l 0,28.55502 c 0,1.48082 -1.19214,2.67296 -2.67296,2.67296 l -22.05216,0 c -1.48083,0 -2.67297,-1.19214 -2.67297,-2.67296 l 0,-28.55502 c 0,-1.48082 1.19214,-2.67296 2.67297,-2.67296 z"
       id="rect16838" />
    <path
       style="fill:none;stroke:#00ff00;stroke-width:0.25229642;stroke-miterlimit:4;stroke-opacity:1"
       d="m 475.67034,116.04256 22.05216,0 c 1.48083,0 2.67297,1.19214 2.67297,2.67296 l 0,28.55502 c 0,1.48082 -1.19214,2.67296 -2.67297,2.67296 l -22.05216,0 c -1.48082,0 -2.67296,-1.19214 -2.67296,-2.67296 l 0,-28.55502 c 0,-1.48082 1.19214,-2.67296 2.67296,-2.67296 z"
       id="rect16840" />
    <path
       style="fill:none;stroke:#00ff00;stroke-width:0.25229642;stroke-miterlimit:4;stroke-opacity:1"
       d="m 511.60604,116.04256 22.05216,0 c 1.48083,0 2.67297,1.19214 2.67297,2.67296 l 0,28.55502 c 0,1.48082 -1.19214,2.67296 -2.67297,2.67296 l -22.05216,0 c -1.48082,0 -2.67297,-1.19214 -2.67297,-2.67296 l 0,-28.55502 c 0,-1.48082 1.19215,-2.67296 2.67297,-2.67296 z"
       id="rect16842" />
    <path
       style="fill:none;stroke:#00ff00;stroke-width:0.25229642;stroke-miterlimit:4;stroke-opacity:1"
       d="m 547.65581,116.04256 22.05217,0 c 1.48082,0 2.67296,1.19214 2.67296,2.67296 l 0,28.55502 c 0,1.48082 -1.19214,2.67296 -2.67296,2.67296 l -22.05217,0 c -1.48082,0 -2.67296,-1.19214 -2.67296,-2.67296 l 0,-28.55502 c 0,-1.48082 1.19214,-2.67296 2.67296,-2.67296 z"
       id="rect16844" />
    <path
       style="fill:none;stroke:#00ff00;stroke-width:0.25229642;stroke-miterlimit:4;stroke-opacity:1"
       d="m 232.67321,161.12062 22.05216,0 c 1.48082,0 2.67297,1.19214 2.67297,2.67297 l 0,28.55501 c 0,1.48083 -1.19215,2.67297 -2.67297,2.67297 l -22.05216,0 c -1.48082,0 -2.67297,-1.19214 -2.67297,-2.67297 l 0,-28.55501 c 0,-1.48083 1.19215,-2.67297 2.67297,-2.67297 z"
       id="rect16846" />
    <path
       style="fill:none;stroke:#00ff00;stroke-width:0.25229642;stroke-miterlimit:4;stroke-opacity:1"
       d="m 268.72301,161.12062 22.05217,0 c 1.48082,0 2.67296,1.19214 2.67296,2.67297 l 0,28.55501 c 0,1.48083 -1.19214,2.67297 -2.67296,2.67297 l -22.05217,0 c -1.48082,0 -2.67296,-1.19214 -2.67296,-2.67297 l 0,-28.55501 c 0,-1.48083 1.19214,-2.67297 2.67296,-2.67297 z"
       id="rect16848" />
    <path
       style="fill:none;stroke:#00ff00;stroke-width:0.25229642;stroke-miterlimit:4;stroke-opacity:1"
       d="m 304.64657,161.12062 22.05216,0 c 1.48082,0 2.67296,1.19214 2.67296,2.67297 l 0,28.55501 c 0,1.48083 -1.19214,2.67297 -2.67296,2.67297 l -22.05216,0 c -1.48083,0 -2.67297,-1.19214 -2.67297,-2.67297 l 0,-28.55501 c 0,-1.48083 1.19214,-2.67297 2.67297,-2.67297 z"
       id="rect16850" />
    <path
       style="fill:none;stroke:#00ff00;stroke-width:0.25229642;stroke-miterlimit:4;stroke-opacity:1"
       d="m 340.69637,161.12062 22.05216,0 c 1.48083,0 2.67297,1.19214 2.67297,2.67297 l 0,28.55501 c 0,1.48083 -1.19214,2.67297 -2.67297,2.67297 l -22.05216,0 c -1.48082,0 -2.67296,-1.19214 -2.67296,-2.67297 l 0,-28.55501 c 0,-1.48083 1.19214,-2.67297 2.67296,-2.67297 z"
       id="rect16852" />
    <path
       style="fill:none;stroke:#00ff00;stroke-width:0.25229642;stroke-miterlimit:4;stroke-opacity:1"
       d="m 376.73855,161.12062 22.05216,0 c 1.48082,0 2.67296,1.19214 2.67296,2.67297 l 0,28.55501 c 0,1.48083 -1.19214,2.67297 -2.67296,2.67297 l -22.05216,0 c -1.48083,0 -2.67297,-1.19214 -2.67297,-2.67297 l 0,-28.55501 c 0,-1.48083 1.19214,-2.67297 2.67297,-2.67297 z"
       id="rect16854" />
    <path
       style="fill:none;stroke:#00ff00;stroke-width:0.25229642;stroke-miterlimit:4;stroke-opacity:1"
       d="m 412.78835,161.12062 22.05216,0 c 1.48083,0 2.67297,1.19214 2.67297,2.67297 l 0,28.55501 c 0,1.48083 -1.19214,2.67297 -2.67297,2.67297 l -22.05216,0 c -1.48082,0 -2.67296,-1.19214 -2.67296,-2.67297 l 0,-28.55501 c 0,-1.48083 1.19214,-2.67297 2.67296,-2.67297 z"
       id="rect16856" />
    <path
       style="fill:none;stroke:#00ff00;stroke-width:0.25229642;stroke-miterlimit:4;stroke-opacity:1"
       d="m 448.71191,161.12062 22.05216,0 c 1.48082,0 2.67296,1.19214 2.67296,2.67297 l 0,28.55501 c 0,1.48083 -1.19214,2.67297 -2.67296,2.67297 l -22.05216,0 c -1.48083,0 -2.67297,-1.19214 -2.67297,-2.67297 l 0,-28.55501 c 0,-1.48083 1.19214,-2.67297 2.67297,-2.67297 z"
       id="rect16858" />
    <path
       style="fill:none;stroke:#00ff00;stroke-width:0.25229642;stroke-miterlimit:4;stroke-opacity:1"
       d="m 484.76171,161.12062 22.05216,0 c 1.48083,0 2.67297,1.19214 2.67297,2.67297 l 0,28.55501 c 0,1.48083 -1.19214,2.67297 -2.67297,2.67297 l -22.05216,0 c -1.48082,0 -2.67296,-1.19214 -2.67296,-2.67297 l 0,-28.55501 c 0,-1.48083 1.19214,-2.67297 2.67296,-2.67297 z"
       id="rect16860" />
    <path
       style="fill:none;stroke:#00ff00;stroke-width:0.25229642;stroke-miterlimit:4;stroke-opacity:1"
       d="m 520.69744,161.12062 22.05216,0 c 1.48083,0 2.67297,1.19214 2.67297,2.67297 l 0,28.55501 c 0,1.48083 -1.19214,2.67297 -2.67297,2.67297 l -22.05216,0 c -1.48082,0 -2.67296,-1.19214 -2.67296,-2.67297 l 0,-28.55501 c 0,-1.48083 1.19214,-2.67297 2.67296,-2.67297 z"
       id="rect16862" />
    <path
       style="fill:none;stroke:#00ff00;stroke-width:0.25229642;stroke-miterlimit:4;stroke-opacity:1"
       d="m 556.74718,161.12062 22.05217,0 c 1.48082,0 2.67296,1.19214 2.67296,2.67297 l 0,28.55501 c 0,1.48083 -1.19214,2.67297 -2.67296,2.67297 l -22.05217,0 c -1.48082,0 -2.67296,-1.19214 -2.67296,-2.67297 l 0,-28.55501 c 0,-1.48083 1.19214,-2.67297 2.67296,-2.67297 z"
       id="rect16864" />
    <path
       style="fill:none;stroke:#00ff00;stroke-width:0.25229642;stroke-miterlimit:4;stroke-opacity:1"
       d="m 241.67574,206.03583 22.05216,0 c 1.48083,0 2.67297,1.19214 2.67297,2.67296 l 0,28.55502 c 0,1.48082 -1.19214,2.67297 -2.67297,2.67297 l -22.05216,0 c -1.48082,0 -2.67296,-1.19215 -2.67296,-2.67297 l 0,-28.55502 c 0,-1.48082 1.19214,-2.67296 2.67296,-2.67296 z"
       id="rect16866" />
    <path
       style="fill:none;stroke:#00ff00;stroke-width:0.25229642;stroke-miterlimit:4;stroke-opacity:1"
       d="m 277.72555,206.03583 22.05216,0 c 1.48082,0 2.67296,1.19214 2.67296,2.67296 l 0,28.55502 c 0,1.48082 -1.19214,2.67297 -2.67296,2.67297 l -22.05216,0 c -1.48083,0 -2.67297,-1.19215 -2.67297,-2.67297 l 0,-28.55502 c 0,-1.48082 1.19214,-2.67296 2.67297,-2.67296 z"
       id="rect16868" />
    <path
       style="fill:none;stroke:#00ff00;stroke-width:0.25229642;stroke-miterlimit:4;stroke-opacity:1"
       d="m 313.6491,206.03583 22.05216,0 c 1.48083,0 2.67297,1.19214 2.67297,2.67296 l 0,28.55502 c 0,1.48082 -1.19214,2.67297 -2.67297,2.67297 l -22.05216,0 c -1.48082,0 -2.67296,-1.19215 -2.67296,-2.67297 l 0,-28.55502 c 0,-1.48082 1.19214,-2.67296 2.67296,-2.67296 z"
       id="rect16870" />
    <path
       style="fill:none;stroke:#00ff00;stroke-width:0.25229642;stroke-miterlimit:4;stroke-opacity:1"
       d="m 349.6989,206.03583 22.05217,0 c 1.48082,0 2.67296,1.19214 2.67296,2.67296 l 0,28.55502 c 0,1.48082 -1.19214,2.67297 -2.67296,2.67297 l -22.05217,0 c -1.48082,0 -2.67296,-1.19215 -2.67296,-2.67297 l 0,-28.55502 c 0,-1.48082 1.19214,-2.67296 2.67296,-2.67296 z"
       id="rect16872" />
    <path
       style="fill:none;stroke:#00ff00;stroke-width:0.25229642;stroke-miterlimit:4;stroke-opacity:1"
       d="m 385.74108,206.03583 22.05216,0 c 1.48083,0 2.67297,1.19214 2.67297,2.67296 l 0,28.55502 c 0,1.48082 -1.19214,2.67297 -2.67297,2.67297 l -22.05216,0 c -1.48082,0 -2.67296,-1.19215 -2.67296,-2.67297 l 0,-28.55502 c 0,-1.48082 1.19214,-2.67296 2.67296,-2.67296 z"
       id="rect16874" />
    <path
       style="fill:none;stroke:#00ff00;stroke-width:0.25229642;stroke-miterlimit:4;stroke-opacity:1"
       d="m 421.79088,206.03583 22.05217,0 c 1.48082,0 2.67296,1.19214 2.67296,2.67296 l 0,28.55502 c 0,1.48082 -1.19214,2.67297 -2.67296,2.67297 l -22.05217,0 c -1.48082,0 -2.67296,-1.19215 -2.67296,-2.67297 l 0,-28.55502 c 0,-1.48082 1.19214,-2.67296 2.67296,-2.67296 z"
       id="rect16876" />
    <path
       style="fill:none;stroke:#00ff00;stroke-width:0.25229642;stroke-miterlimit:4;stroke-opacity:1"
       d="m 457.71444,206.03583 22.05216,0 c 1.48082,0 2.67297,1.19214 2.67297,2.67296 l 0,28.55502 c 0,1.48082 -1.19215,2.67297 -2.67297,2.67297 l -22.05216,0 c -1.48082,0 -2.67297,-1.19215 -2.67297,-2.67297 l 0,-28.55502 c 0,-1.48082 1.19215,-2.67296 2.67297,-2.67296 z"
       id="rect16878" />
    <path
       style="fill:none;stroke:#00ff00;stroke-width:0.25229642;stroke-miterlimit:4;stroke-opacity:1"
       d="m 493.76424,206.03583 22.05217,0 c 1.48082,0 2.67296,1.19214 2.67296,2.67296 l 0,28.55502 c 0,1.48082 -1.19214,2.67297 -2.67296,2.67297 l -22.05217,0 c -1.48082,0 -2.67296,-1.19215 -2.67296,-2.67297 l 0,-28.55502 c 0,-1.48082 1.19214,-2.67296 2.67296,-2.67296 z"
       id="rect16880" />
    <path
       style="fill:none;stroke:#00ff00;stroke-width:0.25229642;stroke-miterlimit:4;stroke-opacity:1"
       d="m 529.7,206.03583 22.05217,0 c 1.48082,0 2.67296,1.19214 2.67296,2.67296 l 0,28.55502 c 0,1.48082 -1.19214,2.67297 -2.67296,2.67297 l -22.05217,0 c -1.48082,0 -2.67296,-1.19215 -2.67296,-2.67297 l 0,-28.55502 c 0,-1.48082 1.19214,-2.67296 2.67296,-2.67296 z"
       id="rect16882" />
    <path
       style="fill:none;stroke:#00ff00;stroke-width:0.25229642;stroke-miterlimit:4;stroke-opacity:1"
       d="m 565.74975,206.03583 22.05216,0 c 1.48082,0 2.67296,1.19214 2.67296,2.67296 l 0,28.55502 c 0,1.48082 -1.19214,2.67297 -2.67296,2.67297 l -22.05216,0 c -1.48083,0 -2.67297,-1.19215 -2.67297,-2.67297 l 0,-28.55502 c 0,-1.48082 1.19214,-2.67296 2.67297,-2.67296 z"
       id="rect16884" />
    <path
       style="fill:none;stroke:#00ff00;stroke-width:0.25229642;stroke-miterlimit:4;stroke-opacity:1"
       d="m 223.74554,251.08232 22.05216,0 c 1.48082,0 2.67296,1.19214 2.67296,2.67297 l 0,28.55501 c 0,1.48083 -1.19214,2.67297 -2.67296,2.67297 l -22.05216,0 c -1.48083,0 -2.67297,-1.19214 -2.67297,-2.67297 l 0,-28.55501 c 0,-1.48083 1.19214,-2.67297 2.67297,-2.67297 z"
       id="rect16886" />
    <path
       style="fill:none;stroke:#00ff00;stroke-width:0.25229642;stroke-miterlimit:4;stroke-opacity:1"
       d="m 259.79534,251.08232 22.05216,0 c 1.48083,0 2.67297,1.19214 2.67297,2.67297 l 0,28.55501 c 0,1.48083 -1.19214,2.67297 -2.67297,2.67297 l -22.05216,0 c -1.48082,0 -2.67296,-1.19214 -2.67296,-2.67297 l 0,-28.55501 c 0,-1.48083 1.19214,-2.67297 2.67296,-2.67297 z"
       id="rect16888" />
    <path
       style="fill:none;stroke:#00ff00;stroke-width:0.25229642;stroke-miterlimit:4;stroke-opacity:1"
       d="m 295.71889,251.08232 22.05217,0 c 1.48082,0 2.67296,1.19214 2.67296,2.67297 l 0,28.55501 c 0,1.48083 -1.19214,2.67297 -2.67296,2.67297 l -22.05217,0 c -1.48082,0 -2.67296,-1.19214 -2.67296,-2.67297 l 0,-28.55501 c 0,-1.48083 1.19214,-2.67297 2.67296,-2.67297 z"
       id="rect16890" />
    <path
       style="fill:none;stroke:#00ff00;stroke-width:0.25229642;stroke-miterlimit:4;stroke-opacity:1"
       d="m 331.7687,251.08232 22.05216,0 c 1.48082,0 2.67297,1.19214 2.67297,2.67297 l 0,28.55501 c 0,1.48083 -1.19215,2.67297 -2.67297,2.67297 l -22.05216,0 c -1.48082,0 -2.67297,-1.19214 -2.67297,-2.67297 l 0,-28.55501 c 0,-1.48083 1.19215,-2.67297 2.67297,-2.67297 z"
       id="rect16892" />
    <path
       style="fill:none;stroke:#00ff00;stroke-width:0.25229642;stroke-miterlimit:4;stroke-opacity:1"
       d="m 367.81087,251.08232 22.05217,0 c 1.48082,0 2.67296,1.19214 2.67296,2.67297 l 0,28.55501 c 0,1.48083 -1.19214,2.67297 -2.67296,2.67297 l -22.05217,0 c -1.48082,0 -2.67296,-1.19214 -2.67296,-2.67297 l 0,-28.55501 c 0,-1.48083 1.19214,-2.67297 2.67296,-2.67297 z"
       id="rect16894" />
    <path
       style="fill:none;stroke:#00ff00;stroke-width:0.25229642;stroke-miterlimit:4;stroke-opacity:1"
       d="m 403.86068,251.08232 22.05216,0 c 1.48082,0 2.67297,1.19214 2.67297,2.67297 l 0,28.55501 c 0,1.48083 -1.19215,2.67297 -2.67297,2.67297 l -22.05216,0 c -1.48082,0 -2.67297,-1.19214 -2.67297,-2.67297 l 0,-28.55501 c 0,-1.48083 1.19215,-2.67297 2.67297,-2.67297 z"
       id="rect16896" />
    <path
       style="fill:none;stroke:#00ff00;stroke-width:0.25229642;stroke-miterlimit:4;stroke-opacity:1"
       d="m 439.78423,251.08232 22.05216,0 c 1.48083,0 2.67297,1.19214 2.67297,2.67297 l 0,28.55501 c 0,1.48083 -1.19214,2.67297 -2.67297,2.67297 l -22.05216,0 c -1.48082,0 -2.67296,-1.19214 -2.67296,-2.67297 l 0,-28.55501 c 0,-1.48083 1.19214,-2.67297 2.67296,-2.67297 z"
       id="rect16898" />
    <path
       style="fill:none;stroke:#00ff00;stroke-width:0.25229642;stroke-miterlimit:4;stroke-opacity:1"
       d="m 475.83404,251.08232 22.05216,0 c 1.48082,0 2.67296,1.19214 2.67296,2.67297 l 0,28.55501 c 0,1.48083 -1.19214,2.67297 -2.67296,2.67297 l -22.05216,0 c -1.48083,0 -2.67297,-1.19214 -2.67297,-2.67297 l 0,-28.55501 c 0,-1.48083 1.19214,-2.67297 2.67297,-2.67297 z"
       id="rect16900" />
    <path
       style="fill:none;stroke:#00ff00;stroke-width:0.25229642;stroke-miterlimit:4;stroke-opacity:1"
       d="m 511.7698,251.08232 22.05216,0 c 1.48082,0 2.67296,1.19214 2.67296,2.67297 l 0,28.55501 c 0,1.48083 -1.19214,2.67297 -2.67296,2.67297 l -22.05216,0 c -1.48083,0 -2.67297,-1.19214 -2.67297,-2.67297 l 0,-28.55501 c 0,-1.48083 1.19214,-2.67297 2.67297,-2.67297 z"
       id="rect16902" />
    <path
       style="fill:none;stroke:#00ff00;stroke-width:0.25229642;stroke-miterlimit:4;stroke-opacity:1"
       d="m 547.81957,251.08232 22.05216,0 c 1.48083,0 2.67297,1.19214 2.67297,2.67297 l 0,28.55501 c 0,1.48083 -1.19214,2.67297 -2.67297,2.67297 l -22.05216,0 c -1.48082,0 -2.67296,-1.19214 -2.67296,-2.67297 l 0,-28.55501 c 0,-1.48083 1.19214,-2.67297 2.67296,-2.67297 z"
       id="rect16904" />
  </g>
</svg>
