  0
SECTION
  2
HEADER
  9
$ACADVER
  1
AC1014
  9
$HANDSEED
  5
FFFF
  9
$MEASUREMENT
 70
     1
  0
ENDSEC
  0
SECTION
  2
TABLES
  0
TABLE
  2
VPORT
  5
8
330
0
100
AcDbSymbolTable
 70
     4
  0
VPORT
  5
2E
330
8
100
AcDbSymbolTableRecord
100
AcDbViewportTableRecord
  2
*ACTIVE
 70
     0
 10
0.0
 20
0.0
 11
1.0
 21
1.0
 12
210.0
 22
148.5
 13
0.0
 23
0.0
 14
10.0
 24
10.0
 15
10.0
 25
10.0
 16
0.0
 26
0.0
 36
1.0
 17
0.0
 27
0.0
 37
0.0
 40
341.0
 41
1.24
 42
50.0
 43
0.0
 44
0.0
 50
0.0
 51
0.0
 71
     0
 72
   100
 73
     1
 74
     3
 75
     0
 76
     0
 77
     0
 78
     0
  0
ENDTAB
  0
TABLE
  2
LTYPE
  5
5
330
0
100
AcDbSymbolTable
 70
     1
  0
LTYPE
  5
14
330
5
100
AcDbSymbolTableRecord
100
AcDbLinetypeTableRecord
  2
BYBLOCK
 70
     0
  3

 72
    65
 73
     0
 40
0.0
  0
LTYPE
  5
15
330
5
100
AcDbSymbolTableRecord
100
AcDbLinetypeTableRecord
  2
BYLAYER
 70
     0
  3

 72
    65
 73
     0
 40
0.0
  0
LTYPE
  5
16
330
5
100
AcDbSymbolTableRecord
100
AcDbLinetypeTableRecord
  2
CONTINUOUS
 70
     0
  3
Solid line
 72
    65
 73
     0
 40
0.0
  0
ENDTAB
  0
TABLE
  2
LAYER
  5
2
100
AcDbSymbolTable
 70
2
  0
LAYER
  5
50
100
AcDbSymbolTableRecord
100
AcDbLayerTableRecord
  2
0
 70
0
  6
CONTINUOUS
  0
LAYER
  5
51
100
AcDbSymbolTableRecord
100
AcDbLayerTableRecord
  2
Top_1
 70
0
  6
CONTINUOUS
  0
ENDTAB
  0
TABLE
  2
STYLE
  5
3
330
0
100
AcDbSymbolTable
 70
     1
  0
STYLE
  5
11
330
3
100
AcDbSymbolTableRecord
100
AcDbTextStyleTableRecord
  2
STANDARD
 70
     0
 40
0.0
 41
1.0
 50
0.0
 71
     0
 42
2.5
  3
txt
  4

  0
ENDTAB
  0
TABLE
  2
VIEW
  5
6
330
0
100
AcDbSymbolTable
 70
     0
  0
ENDTAB
  0
TABLE
  2
UCS
  5
7
330
0
100
AcDbSymbolTable
 70
     0
  0
ENDTAB
  0
TABLE
  2
APPID
  5
9
330
0
100
AcDbSymbolTable
 70
     2
  0
APPID
  5
12
330
9
100
AcDbSymbolTableRecord
100
AcDbRegAppTableRecord
  2
ACAD
 70
     0
  0
ENDTAB
  0
TABLE
  2
DIMSTYLE
  5
A
330
0
100
AcDbSymbolTable
 70
     1
  0
DIMSTYLE
105
27
330
A
100
AcDbSymbolTableRecord
100
AcDbDimStyleTableRecord
  2
ISO-25
 70
     0
  3

  4

  5

  6

  7

 40
1.0
 41
2.5
 42
0.625
 43
3.75
 44
1.25
 45
0.0
 46
0.0
 47
0.0
 48
0.0
140
2.5
141
2.5
142
0.0
143
0.03937007874016
144
1.0
145
0.0
146
1.0
147
0.625
 71
     0
 72
     0
 73
     0
 74
     0
 75
     0
 76
     0
 77
     1
 78
     8
170
     0
171
     3
172
     1
173
     0
174
     0
175
     0
176
     0
177
     0
178
     0
270
     2
271
     2
272
     2
273
     2
274
     3
340
11
275
     0
280
     0
281
     0
282
     0
283
     0
284
     8
285
     0
286
     0
287
     3
288
     0
  0
ENDTAB
  0
TABLE
  2
BLOCK_RECORD
  5
1
330
0
100
AcDbSymbolTable
 70
     1
  0
BLOCK_RECORD
  5
1F
330
1
100
AcDbSymbolTableRecord
100
AcDbBlockTableRecord
  2
*MODEL_SPACE
  0
BLOCK_RECORD
  5
1B
330
1
100
AcDbSymbolTableRecord
100
AcDbBlockTableRecord
  2
*PAPER_SPACE
  0
ENDTAB
  0
ENDSEC
  0
SECTION
  2
BLOCKS
  0
BLOCK
  5
20
330
1F
100
AcDbEntity
  8
0
100
AcDbBlockBegin
  2
*MODEL_SPACE
 70
     0
 10
0.0
 20
0.0
 30
0.0
  3
*MODEL_SPACE
  1

  0
ENDBLK
  5
21
330
1F
100
AcDbEntity
  8
0
100
AcDbBlockEnd
  0
BLOCK
  5
1C
330
1B
100
AcDbEntity
 67
     1
  8
0
100
AcDbBlockBegin
  2
*PAPER_SPACE
  1

  0
ENDBLK
  5
1D
330
1B
100
AcDbEntity
 67
     1
  8
0
100
AcDbBlockEnd
  0
ENDSEC
  0
SECTION
  2
ENTITIES
  0
LINE
  5
100
100
AcDbEntity
  8
Top_1
 62
3
100
AcDbLine
 10
54.184894
 20
281.549384
 30
0.0
 11
168.933306
 21
281.549384
 31
0.0
  0
SPLINE
  5
101
100
AcDbEntity
  8
Top_1
 62
3
100
AcDbSpline
 70
8
 71
3
 72
8
 73
4
 74
0
 40
0
 40
0
 40
0
 40
0
 40
1
 40
1
 40
1
 40
1
 10
168.933306
 20
281.549384
 30
0.0
 10
172.336220
 20
281.549384
 30
0.0
 10
175.075751
 20
278.809853
 30
0.0
 10
175.075751
 20
275.406937
 30
0.0
  0
LINE
  5
102
100
AcDbEntity
  8
Top_1
 62
3
100
AcDbLine
 10
175.075751
 20
275.406937
 30
0.0
 11
175.075751
 21
217.837722
 31
0.0
  0
SPLINE
  5
103
100
AcDbEntity
  8
Top_1
 62
3
100
AcDbSpline
 70
8
 71
3
 72
8
 73
4
 74
0
 40
0
 40
0
 40
0
 40
0
 40
1
 40
1
 40
1
 40
1
 10
175.075751
 20
217.837722
 30
0.0
 10
175.075751
 20
214.434808
 30
0.0
 10
172.336220
 20
211.695277
 30
0.0
 10
168.933306
 20
211.695277
 30
0.0
  0
LINE
  5
104
100
AcDbEntity
  8
Top_1
 62
3
100
AcDbLine
 10
168.933306
 20
211.695277
 30
0.0
 11
54.184894
 21
211.695277
 31
0.0
  0
SPLINE
  5
105
100
AcDbEntity
  8
Top_1
 62
3
100
AcDbSpline
 70
8
 71
3
 72
8
 73
4
 74
0
 40
0
 40
0
 40
0
 40
0
 40
1
 40
1
 40
1
 40
1
 10
54.184894
 20
211.695277
 30
0.0
 10
50.781977
 20
211.695277
 30
0.0
 10
48.042446
 20
214.434808
 30
0.0
 10
48.042446
 20
217.837722
 30
0.0
  0
LINE
  5
106
100
AcDbEntity
  8
Top_1
 62
3
100
AcDbLine
 10
48.042446
 20
217.837722
 30
0.0
 11
48.042446
 21
275.406937
 31
0.0
  0
SPLINE
  5
107
100
AcDbEntity
  8
Top_1
 62
3
100
AcDbSpline
 70
8
 71
3
 72
8
 73
4
 74
0
 40
0
 40
0
 40
0
 40
0
 40
1
 40
1
 40
1
 40
1
 10
48.042446
 20
275.406937
 30
0.0
 10
48.042446
 20
278.809853
 30
0.0
 10
50.781977
 20
281.549384
 30
0.0
 10
54.184894
 20
281.549384
 30
0.0
  0
LINE
  5
108
100
AcDbEntity
  8
Top_1
 62
3
100
AcDbLine
 10
54.184894
 20
281.549384
 30
0.0
 11
54.184894
 21
281.549384
 31
0.0
  0
SPLINE
  5
109
100
AcDbEntity
  8
Top_1
 62
3
100
AcDbSpline
 70
8
 71
3
 72
8
 73
4
 74
0
 40
0
 40
0
 40
0
 40
0
 40
1
 40
1
 40
1
 40
1
 10
55.921576
 20
275.567439
 30
0.0
 10
55.921576
 20
274.506290
 30
0.0
 10
55.061346
 20
273.646060
 30
0.0
 10
54.000199
 20
273.646060
 30
0.0
  0
SPLINE
  5
10a
100
AcDbEntity
  8
Top_1
 62
3
100
AcDbSpline
 70
8
 71
3
 72
8
 73
4
 74
0
 40
0
 40
0
 40
0
 40
0
 40
1
 40
1
 40
1
 40
1
 10
54.000199
 20
273.646060
 30
0.0
 10
52.939049
 20
273.646060
 30
0.0
 10
52.078819
 20
274.506290
 30
0.0
 10
52.078819
 20
275.567439
 30
0.0
  0
SPLINE
  5
10b
100
AcDbEntity
  8
Top_1
 62
3
100
AcDbSpline
 70
8
 71
3
 72
8
 73
4
 74
0
 40
0
 40
0
 40
0
 40
0
 40
1
 40
1
 40
1
 40
1
 10
52.078819
 20
275.567439
 30
0.0
 10
52.078819
 20
276.628587
 30
0.0
 10
52.939049
 20
277.488818
 30
0.0
 10
54.000199
 20
277.488818
 30
0.0
  0
SPLINE
  5
10c
100
AcDbEntity
  8
Top_1
 62
3
100
AcDbSpline
 70
8
 71
3
 72
8
 73
4
 74
0
 40
0
 40
0
 40
0
 40
0
 40
1
 40
1
 40
1
 40
1
 10
54.000199
 20
277.488818
 30
0.0
 10
55.061346
 20
277.488818
 30
0.0
 10
55.921576
 20
276.628587
 30
0.0
 10
55.921576
 20
275.567439
 30
0.0
  0
LINE
  5
10d
100
AcDbEntity
  8
Top_1
 62
3
100
AcDbLine
 10
55.921576
 20
275.567439
 30
0.0
 11
55.921576
 21
275.567439
 31
0.0
  0
SPLINE
  5
10e
100
AcDbEntity
  8
Top_1
 62
3
100
AcDbSpline
 70
8
 71
3
 72
8
 73
4
 74
0
 40
0
 40
0
 40
0
 40
0
 40
1
 40
1
 40
1
 40
1
 10
55.984572
 20
217.594602
 30
0.0
 10
55.984572
 20
216.533454
 30
0.0
 10
55.124342
 20
215.673223
 30
0.0
 10
54.063195
 20
215.673223
 30
0.0
  0
SPLINE
  5
10f
100
AcDbEntity
  8
Top_1
 62
3
100
AcDbSpline
 70
8
 71
3
 72
8
 73
4
 74
0
 40
0
 40
0
 40
0
 40
0
 40
1
 40
1
 40
1
 40
1
 10
54.063195
 20
215.673223
 30
0.0
 10
53.002045
 20
215.673223
 30
0.0
 10
52.141815
 20
216.533454
 30
0.0
 10
52.141815
 20
217.594602
 30
0.0
  0
SPLINE
  5
110
100
AcDbEntity
  8
Top_1
 62
3
100
AcDbSpline
 70
8
 71
3
 72
8
 73
4
 74
0
 40
0
 40
0
 40
0
 40
0
 40
1
 40
1
 40
1
 40
1
 10
52.141815
 20
217.594602
 30
0.0
 10
52.141815
 20
218.655750
 30
0.0
 10
53.002045
 20
219.515981
 30
0.0
 10
54.063195
 20
219.515981
 30
0.0
  0
SPLINE
  5
111
100
AcDbEntity
  8
Top_1
 62
3
100
AcDbSpline
 70
8
 71
3
 72
8
 73
4
 74
0
 40
0
 40
0
 40
0
 40
0
 40
1
 40
1
 40
1
 40
1
 10
54.063195
 20
219.515981
 30
0.0
 10
55.124342
 20
219.515981
 30
0.0
 10
55.984572
 20
218.655750
 30
0.0
 10
55.984572
 20
217.594602
 30
0.0
  0
LINE
  5
112
100
AcDbEntity
  8
Top_1
 62
3
100
AcDbLine
 10
55.984572
 20
217.594602
 30
0.0
 11
55.984572
 21
217.594602
 31
0.0
  0
SPLINE
  5
113
100
AcDbEntity
  8
Top_1
 62
3
100
AcDbSpline
 70
8
 71
3
 72
8
 73
4
 74
0
 40
0
 40
0
 40
0
 40
0
 40
1
 40
1
 40
1
 40
1
 10
171.097222
 20
217.582001
 30
0.0
 10
171.097222
 20
216.520853
 30
0.0
 10
170.236992
 20
215.660622
 30
0.0
 10
169.175845
 20
215.660622
 30
0.0
  0
SPLINE
  5
114
100
AcDbEntity
  8
Top_1
 62
3
100
AcDbSpline
 70
8
 71
3
 72
8
 73
4
 74
0
 40
0
 40
0
 40
0
 40
0
 40
1
 40
1
 40
1
 40
1
 10
169.175845
 20
215.660622
 30
0.0
 10
168.114695
 20
215.660622
 30
0.0
 10
167.254465
 20
216.520853
 30
0.0
 10
167.254465
 20
217.582001
 30
0.0
  0
SPLINE
  5
115
100
AcDbEntity
  8
Top_1
 62
3
100
AcDbSpline
 70
8
 71
3
 72
8
 73
4
 74
0
 40
0
 40
0
 40
0
 40
0
 40
1
 40
1
 40
1
 40
1
 10
167.254465
 20
217.582001
 30
0.0
 10
167.254465
 20
218.643149
 30
0.0
 10
168.114695
 20
219.503380
 30
0.0
 10
169.175845
 20
219.503380
 30
0.0
  0
SPLINE
  5
116
100
AcDbEntity
  8
Top_1
 62
3
100
AcDbSpline
 70
8
 71
3
 72
8
 73
4
 74
0
 40
0
 40
0
 40
0
 40
0
 40
1
 40
1
 40
1
 40
1
 10
169.175845
 20
219.503380
 30
0.0
 10
170.236992
 20
219.503380
 30
0.0
 10
171.097222
 20
218.643149
 30
0.0
 10
171.097222
 20
217.582001
 30
0.0
  0
LINE
  5
117
100
AcDbEntity
  8
Top_1
 62
3
100
AcDbLine
 10
171.097222
 20
217.582001
 30
0.0
 11
171.097222
 21
217.582001
 31
0.0
  0
SPLINE
  5
118
100
AcDbEntity
  8
Top_1
 62
3
100
AcDbSpline
 70
8
 71
3
 72
8
 73
4
 74
0
 40
0
 40
0
 40
0
 40
0
 40
1
 40
1
 40
1
 40
1
 10
171.015327
 20
275.567439
 30
0.0
 10
171.015327
 20
274.506290
 30
0.0
 10
170.155097
 20
273.646060
 30
0.0
 10
169.093950
 20
273.646060
 30
0.0
  0
SPLINE
  5
119
100
AcDbEntity
  8
Top_1
 62
3
100
AcDbSpline
 70
8
 71
3
 72
8
 73
4
 74
0
 40
0
 40
0
 40
0
 40
0
 40
1
 40
1
 40
1
 40
1
 10
169.093950
 20
273.646060
 30
0.0
 10
168.032800
 20
273.646060
 30
0.0
 10
167.172569
 20
274.506290
 30
0.0
 10
167.172569
 20
275.567439
 30
0.0
  0
SPLINE
  5
11a
100
AcDbEntity
  8
Top_1
 62
3
100
AcDbSpline
 70
8
 71
3
 72
8
 73
4
 74
0
 40
0
 40
0
 40
0
 40
0
 40
1
 40
1
 40
1
 40
1
 10
167.172569
 20
275.567439
 30
0.0
 10
167.172569
 20
276.628587
 30
0.0
 10
168.032800
 20
277.488818
 30
0.0
 10
169.093950
 20
277.488818
 30
0.0
  0
SPLINE
  5
11b
100
AcDbEntity
  8
Top_1
 62
3
100
AcDbSpline
 70
8
 71
3
 72
8
 73
4
 74
0
 40
0
 40
0
 40
0
 40
0
 40
1
 40
1
 40
1
 40
1
 10
169.093950
 20
277.488818
 30
0.0
 10
170.155097
 20
277.488818
 30
0.0
 10
171.015327
 20
276.628587
 30
0.0
 10
171.015327
 20
275.567439
 30
0.0
  0
LINE
  5
11c
100
AcDbEntity
  8
Top_1
 62
3
100
AcDbLine
 10
171.015327
 20
275.567439
 30
0.0
 11
171.015327
 21
275.567439
 31
0.0
  0
LINE
  5
11d
100
AcDbEntity
  8
Top_1
 62
3
100
AcDbLine
 10
63.099764
 20
264.250211
 30
0.0
 11
69.323373
 21
264.250211
 31
0.0
  0
SPLINE
  5
11e
100
AcDbEntity
  8
Top_1
 62
3
100
AcDbSpline
 70
8
 71
3
 72
8
 73
4
 74
0
 40
0
 40
0
 40
0
 40
0
 40
1
 40
1
 40
1
 40
1
 10
69.323373
 20
264.250211
 30
0.0
 10
69.741294
 20
264.250211
 30
0.0
 10
70.077745
 20
263.913762
 30
0.0
 10
70.077745
 20
263.495842
 30
0.0
  0
LINE
  5
11f
100
AcDbEntity
  8
Top_1
 62
3
100
AcDbLine
 10
70.077745
 20
263.495842
 30
0.0
 11
70.077745
 21
255.436981
 31
0.0
  0
SPLINE
  5
120
100
AcDbEntity
  8
Top_1
 62
3
100
AcDbSpline
 70
8
 71
3
 72
8
 73
4
 74
0
 40
0
 40
0
 40
0
 40
0
 40
1
 40
1
 40
1
 40
1
 10
70.077745
 20
255.436981
 30
0.0
 10
70.077745
 20
255.019061
 30
0.0
 10
69.741294
 20
254.682612
 30
0.0
 10
69.323373
 20
254.682612
 30
0.0
  0
LINE
  5
121
100
AcDbEntity
  8
Top_1
 62
3
100
AcDbLine
 10
69.323373
 20
254.682612
 30
0.0
 11
63.099764
 21
254.682612
 31
0.0
  0
SPLINE
  5
122
100
AcDbEntity
  8
Top_1
 62
3
100
AcDbSpline
 70
8
 71
3
 72
8
 73
4
 74
0
 40
0
 40
0
 40
0
 40
0
 40
1
 40
1
 40
1
 40
1
 10
63.099764
 20
254.682612
 30
0.0
 10
62.681843
 20
254.682612
 30
0.0
 10
62.345392
 20
255.019061
 30
0.0
 10
62.345392
 20
255.436981
 30
0.0
  0
LINE
  5
123
100
AcDbEntity
  8
Top_1
 62
3
100
AcDbLine
 10
62.345392
 20
255.436981
 30
0.0
 11
62.345392
 21
263.495842
 31
0.0
  0
SPLINE
  5
124
100
AcDbEntity
  8
Top_1
 62
3
100
AcDbSpline
 70
8
 71
3
 72
8
 73
4
 74
0
 40
0
 40
0
 40
0
 40
0
 40
1
 40
1
 40
1
 40
1
 10
62.345392
 20
263.495842
 30
0.0
 10
62.345392
 20
263.913762
 30
0.0
 10
62.681843
 20
264.250211
 30
0.0
 10
63.099764
 20
264.250211
 30
0.0
  0
LINE
  5
125
100
AcDbEntity
  8
Top_1
 62
3
100
AcDbLine
 10
63.099764
 20
264.250211
 30
0.0
 11
63.099764
 21
264.250211
 31
0.0
  0
LINE
  5
126
100
AcDbEntity
  8
Top_1
 62
3
100
AcDbLine
 10
73.273818
 20
264.250211
 30
0.0
 11
79.497431
 21
264.250211
 31
0.0
  0
SPLINE
  5
127
100
AcDbEntity
  8
Top_1
 62
3
100
AcDbSpline
 70
8
 71
3
 72
8
 73
4
 74
0
 40
0
 40
0
 40
0
 40
0
 40
1
 40
1
 40
1
 40
1
 10
79.497431
 20
264.250211
 30
0.0
 10
79.915351
 20
264.250211
 30
0.0
 10
80.251800
 20
263.913762
 30
0.0
 10
80.251800
 20
263.495842
 30
0.0
  0
LINE
  5
128
100
AcDbEntity
  8
Top_1
 62
3
100
AcDbLine
 10
80.251800
 20
263.495842
 30
0.0
 11
80.251800
 21
255.436981
 31
0.0
  0
SPLINE
  5
129
100
AcDbEntity
  8
Top_1
 62
3
100
AcDbSpline
 70
8
 71
3
 72
8
 73
4
 74
0
 40
0
 40
0
 40
0
 40
0
 40
1
 40
1
 40
1
 40
1
 10
80.251800
 20
255.436981
 30
0.0
 10
80.251800
 20
255.019061
 30
0.0
 10
79.915351
 20
254.682612
 30
0.0
 10
79.497431
 20
254.682612
 30
0.0
  0
LINE
  5
12a
100
AcDbEntity
  8
Top_1
 62
3
100
AcDbLine
 10
79.497431
 20
254.682612
 30
0.0
 11
73.273818
 21
254.682612
 31
0.0
  0
SPLINE
  5
12b
100
AcDbEntity
  8
Top_1
 62
3
100
AcDbSpline
 70
8
 71
3
 72
8
 73
4
 74
0
 40
0
 40
0
 40
0
 40
0
 40
1
 40
1
 40
1
 40
1
 10
73.273818
 20
254.682612
 30
0.0
 10
72.855898
 20
254.682612
 30
0.0
 10
72.519450
 20
255.019061
 30
0.0
 10
72.519450
 20
255.436981
 30
0.0
  0
LINE
  5
12c
100
AcDbEntity
  8
Top_1
 62
3
100
AcDbLine
 10
72.519450
 20
255.436981
 30
0.0
 11
72.519450
 21
263.495842
 31
0.0
  0
SPLINE
  5
12d
100
AcDbEntity
  8
Top_1
 62
3
100
AcDbSpline
 70
8
 71
3
 72
8
 73
4
 74
0
 40
0
 40
0
 40
0
 40
0
 40
1
 40
1
 40
1
 40
1
 10
72.519450
 20
263.495842
 30
0.0
 10
72.519450
 20
263.913762
 30
0.0
 10
72.855898
 20
264.250211
 30
0.0
 10
73.273818
 20
264.250211
 30
0.0
  0
LINE
  5
12e
100
AcDbEntity
  8
Top_1
 62
3
100
AcDbLine
 10
73.273818
 20
264.250211
 30
0.0
 11
73.273818
 21
264.250211
 31
0.0
  0
LINE
  5
12f
100
AcDbEntity
  8
Top_1
 62
3
100
AcDbLine
 10
83.412245
 20
264.250211
 30
0.0
 11
89.635855
 21
264.250211
 31
0.0
  0
SPLINE
  5
130
100
AcDbEntity
  8
Top_1
 62
3
100
AcDbSpline
 70
8
 71
3
 72
8
 73
4
 74
0
 40
0
 40
0
 40
0
 40
0
 40
1
 40
1
 40
1
 40
1
 10
89.635855
 20
264.250211
 30
0.0
 10
90.053775
 20
264.250211
 30
0.0
 10
90.390224
 20
263.913762
 30
0.0
 10
90.390224
 20
263.495842
 30
0.0
  0
LINE
  5
131
100
AcDbEntity
  8
Top_1
 62
3
100
AcDbLine
 10
90.390224
 20
263.495842
 30
0.0
 11
90.390224
 21
255.436981
 31
0.0
  0
SPLINE
  5
132
100
AcDbEntity
  8
Top_1
 62
3
100
AcDbSpline
 70
8
 71
3
 72
8
 73
4
 74
0
 40
0
 40
0
 40
0
 40
0
 40
1
 40
1
 40
1
 40
1
 10
90.390224
 20
255.436981
 30
0.0
 10
90.390224
 20
255.019061
 30
0.0
 10
90.053775
 20
254.682612
 30
0.0
 10
89.635855
 20
254.682612
 30
0.0
  0
LINE
  5
133
100
AcDbEntity
  8
Top_1
 62
3
100
AcDbLine
 10
89.635855
 20
254.682612
 30
0.0
 11
83.412245
 21
254.682612
 31
0.0
  0
SPLINE
  5
134
100
AcDbEntity
  8
Top_1
 62
3
100
AcDbSpline
 70
8
 71
3
 72
8
 73
4
 74
0
 40
0
 40
0
 40
0
 40
0
 40
1
 40
1
 40
1
 40
1
 10
83.412245
 20
254.682612
 30
0.0
 10
82.994322
 20
254.682612
 30
0.0
 10
82.657874
 20
255.019061
 30
0.0
 10
82.657874
 20
255.436981
 30
0.0
  0
LINE
  5
135
100
AcDbEntity
  8
Top_1
 62
3
100
AcDbLine
 10
82.657874
 20
255.436981
 30
0.0
 11
82.657874
 21
263.495842
 31
0.0
  0
SPLINE
  5
136
100
AcDbEntity
  8
Top_1
 62
3
100
AcDbSpline
 70
8
 71
3
 72
8
 73
4
 74
0
 40
0
 40
0
 40
0
 40
0
 40
1
 40
1
 40
1
 40
1
 10
82.657874
 20
263.495842
 30
0.0
 10
82.657874
 20
263.913762
 30
0.0
 10
82.994322
 20
264.250211
 30
0.0
 10
83.412245
 20
264.250211
 30
0.0
  0
LINE
  5
137
100
AcDbEntity
  8
Top_1
 62
3
100
AcDbLine
 10
83.412245
 20
264.250211
 30
0.0
 11
83.412245
 21
264.250211
 31
0.0
  0
LINE
  5
138
100
AcDbEntity
  8
Top_1
 62
3
100
AcDbLine
 10
93.586300
 20
264.250211
 30
0.0
 11
99.809912
 21
264.250211
 31
0.0
  0
SPLINE
  5
139
100
AcDbEntity
  8
Top_1
 62
3
100
AcDbSpline
 70
8
 71
3
 72
8
 73
4
 74
0
 40
0
 40
0
 40
0
 40
0
 40
1
 40
1
 40
1
 40
1
 10
99.809912
 20
264.250211
 30
0.0
 10
100.227833
 20
264.250211
 30
0.0
 10
100.564281
 20
263.913762
 30
0.0
 10
100.564281
 20
263.495842
 30
0.0
  0
LINE
  5
13a
100
AcDbEntity
  8
Top_1
 62
3
100
AcDbLine
 10
100.564281
 20
263.495842
 30
0.0
 11
100.564281
 21
255.436981
 31
0.0
  0
SPLINE
  5
13b
100
AcDbEntity
  8
Top_1
 62
3
100
AcDbSpline
 70
8
 71
3
 72
8
 73
4
 74
0
 40
0
 40
0
 40
0
 40
0
 40
1
 40
1
 40
1
 40
1
 10
100.564281
 20
255.436981
 30
0.0
 10
100.564281
 20
255.019061
 30
0.0
 10
100.227833
 20
254.682612
 30
0.0
 10
99.809912
 20
254.682612
 30
0.0
  0
LINE
  5
13c
100
AcDbEntity
  8
Top_1
 62
3
100
AcDbLine
 10
99.809912
 20
254.682612
 30
0.0
 11
93.586300
 21
254.682612
 31
0.0
  0
SPLINE
  5
13d
100
AcDbEntity
  8
Top_1
 62
3
100
AcDbSpline
 70
8
 71
3
 72
8
 73
4
 74
0
 40
0
 40
0
 40
0
 40
0
 40
1
 40
1
 40
1
 40
1
 10
93.586300
 20
254.682612
 30
0.0
 10
93.168380
 20
254.682612
 30
0.0
 10
92.831931
 20
255.019061
 30
0.0
 10
92.831931
 20
255.436981
 30
0.0
  0
LINE
  5
13e
100
AcDbEntity
  8
Top_1
 62
3
100
AcDbLine
 10
92.831931
 20
255.436981
 30
0.0
 11
92.831931
 21
263.495842
 31
0.0
  0
SPLINE
  5
13f
100
AcDbEntity
  8
Top_1
 62
3
100
AcDbSpline
 70
8
 71
3
 72
8
 73
4
 74
0
 40
0
 40
0
 40
0
 40
0
 40
1
 40
1
 40
1
 40
1
 10
92.831931
 20
263.495842
 30
0.0
 10
92.831931
 20
263.913762
 30
0.0
 10
93.168380
 20
264.250211
 30
0.0
 10
93.586300
 20
264.250211
 30
0.0
  0
LINE
  5
140
100
AcDbEntity
  8
Top_1
 62
3
100
AcDbLine
 10
93.586300
 20
264.250211
 30
0.0
 11
93.586300
 21
264.250211
 31
0.0
  0
LINE
  5
141
100
AcDbEntity
  8
Top_1
 62
3
100
AcDbLine
 10
103.758204
 20
264.250211
 30
0.0
 11
109.981814
 21
264.250211
 31
0.0
  0
SPLINE
  5
142
100
AcDbEntity
  8
Top_1
 62
3
100
AcDbSpline
 70
8
 71
3
 72
8
 73
4
 74
0
 40
0
 40
0
 40
0
 40
0
 40
1
 40
1
 40
1
 40
1
 10
109.981814
 20
264.250211
 30
0.0
 10
110.399734
 20
264.250211
 30
0.0
 10
110.736182
 20
263.913762
 30
0.0
 10
110.736182
 20
263.495842
 30
0.0
  0
LINE
  5
143
100
AcDbEntity
  8
Top_1
 62
3
100
AcDbLine
 10
110.736182
 20
263.495842
 30
0.0
 11
110.736182
 21
255.436981
 31
0.0
  0
SPLINE
  5
144
100
AcDbEntity
  8
Top_1
 62
3
100
AcDbSpline
 70
8
 71
3
 72
8
 73
4
 74
0
 40
0
 40
0
 40
0
 40
0
 40
1
 40
1
 40
1
 40
1
 10
110.736182
 20
255.436981
 30
0.0
 10
110.736182
 20
255.019061
 30
0.0
 10
110.399734
 20
254.682612
 30
0.0
 10
109.981814
 20
254.682612
 30
0.0
  0
LINE
  5
145
100
AcDbEntity
  8
Top_1
 62
3
100
AcDbLine
 10
109.981814
 20
254.682612
 30
0.0
 11
103.758204
 21
254.682612
 31
0.0
  0
SPLINE
  5
146
100
AcDbEntity
  8
Top_1
 62
3
100
AcDbSpline
 70
8
 71
3
 72
8
 73
4
 74
0
 40
0
 40
0
 40
0
 40
0
 40
1
 40
1
 40
1
 40
1
 10
103.758204
 20
254.682612
 30
0.0
 10
103.340281
 20
254.682612
 30
0.0
 10
103.003833
 20
255.019061
 30
0.0
 10
103.003833
 20
255.436981
 30
0.0
  0
LINE
  5
147
100
AcDbEntity
  8
Top_1
 62
3
100
AcDbLine
 10
103.003833
 20
255.436981
 30
0.0
 11
103.003833
 21
263.495842
 31
0.0
  0
SPLINE
  5
148
100
AcDbEntity
  8
Top_1
 62
3
100
AcDbSpline
 70
8
 71
3
 72
8
 73
4
 74
0
 40
0
 40
0
 40
0
 40
0
 40
1
 40
1
 40
1
 40
1
 10
103.003833
 20
263.495842
 30
0.0
 10
103.003833
 20
263.913762
 30
0.0
 10
103.340281
 20
264.250211
 30
0.0
 10
103.758204
 20
264.250211
 30
0.0
  0
LINE
  5
149
100
AcDbEntity
  8
Top_1
 62
3
100
AcDbLine
 10
103.758204
 20
264.250211
 30
0.0
 11
103.758204
 21
264.250211
 31
0.0
  0
LINE
  5
14a
100
AcDbEntity
  8
Top_1
 62
3
100
AcDbLine
 10
113.932259
 20
264.250211
 30
0.0
 11
120.155871
 21
264.250211
 31
0.0
  0
SPLINE
  5
14b
100
AcDbEntity
  8
Top_1
 62
3
100
AcDbSpline
 70
8
 71
3
 72
8
 73
4
 74
0
 40
0
 40
0
 40
0
 40
0
 40
1
 40
1
 40
1
 40
1
 10
120.155871
 20
264.250211
 30
0.0
 10
120.573792
 20
264.250211
 30
0.0
 10
120.910240
 20
263.913762
 30
0.0
 10
120.910240
 20
263.495842
 30
0.0
  0
LINE
  5
14c
100
AcDbEntity
  8
Top_1
 62
3
100
AcDbLine
 10
120.910240
 20
263.495842
 30
0.0
 11
120.910240
 21
255.436981
 31
0.0
  0
SPLINE
  5
14d
100
AcDbEntity
  8
Top_1
 62
3
100
AcDbSpline
 70
8
 71
3
 72
8
 73
4
 74
0
 40
0
 40
0
 40
0
 40
0
 40
1
 40
1
 40
1
 40
1
 10
120.910240
 20
255.436981
 30
0.0
 10
120.910240
 20
255.019061
 30
0.0
 10
120.573792
 20
254.682612
 30
0.0
 10
120.155871
 20
254.682612
 30
0.0
  0
LINE
  5
14e
100
AcDbEntity
  8
Top_1
 62
3
100
AcDbLine
 10
120.155871
 20
254.682612
 30
0.0
 11
113.932259
 21
254.682612
 31
0.0
  0
SPLINE
  5
14f
100
AcDbEntity
  8
Top_1
 62
3
100
AcDbSpline
 70
8
 71
3
 72
8
 73
4
 74
0
 40
0
 40
0
 40
0
 40
0
 40
1
 40
1
 40
1
 40
1
 10
113.932259
 20
254.682612
 30
0.0
 10
113.514338
 20
254.682612
 30
0.0
 10
113.177890
 20
255.019061
 30
0.0
 10
113.177890
 20
255.436981
 30
0.0
  0
LINE
  5
150
100
AcDbEntity
  8
Top_1
 62
3
100
AcDbLine
 10
113.177890
 20
255.436981
 30
0.0
 11
113.177890
 21
263.495842
 31
0.0
  0
SPLINE
  5
151
100
AcDbEntity
  8
Top_1
 62
3
100
AcDbSpline
 70
8
 71
3
 72
8
 73
4
 74
0
 40
0
 40
0
 40
0
 40
0
 40
1
 40
1
 40
1
 40
1
 10
113.177890
 20
263.495842
 30
0.0
 10
113.177890
 20
263.913762
 30
0.0
 10
113.514338
 20
264.250211
 30
0.0
 10
113.932259
 20
264.250211
 30
0.0
  0
LINE
  5
152
100
AcDbEntity
  8
Top_1
 62
3
100
AcDbLine
 10
113.932259
 20
264.250211
 30
0.0
 11
113.932259
 21
264.250211
 31
0.0
  0
LINE
  5
153
100
AcDbEntity
  8
Top_1
 62
3
100
AcDbLine
 10
124.070686
 20
264.250211
 30
0.0
 11
130.294295
 21
264.250211
 31
0.0
  0
SPLINE
  5
154
100
AcDbEntity
  8
Top_1
 62
3
100
AcDbSpline
 70
8
 71
3
 72
8
 73
4
 74
0
 40
0
 40
0
 40
0
 40
0
 40
1
 40
1
 40
1
 40
1
 10
130.294295
 20
264.250211
 30
0.0
 10
130.712216
 20
264.250211
 30
0.0
 10
131.048664
 20
263.913762
 30
0.0
 10
131.048664
 20
263.495842
 30
0.0
  0
LINE
  5
155
100
AcDbEntity
  8
Top_1
 62
3
100
AcDbLine
 10
131.048664
 20
263.495842
 30
0.0
 11
131.048664
 21
255.436981
 31
0.0
  0
SPLINE
  5
156
100
AcDbEntity
  8
Top_1
 62
3
100
AcDbSpline
 70
8
 71
3
 72
8
 73
4
 74
0
 40
0
 40
0
 40
0
 40
0
 40
1
 40
1
 40
1
 40
1
 10
131.048664
 20
255.436981
 30
0.0
 10
131.048664
 20
255.019061
 30
0.0
 10
130.712216
 20
254.682612
 30
0.0
 10
130.294295
 20
254.682612
 30
0.0
  0
LINE
  5
157
100
AcDbEntity
  8
Top_1
 62
3
100
AcDbLine
 10
130.294295
 20
254.682612
 30
0.0
 11
124.070686
 21
254.682612
 31
0.0
  0
SPLINE
  5
158
100
AcDbEntity
  8
Top_1
 62
3
100
AcDbSpline
 70
8
 71
3
 72
8
 73
4
 74
0
 40
0
 40
0
 40
0
 40
0
 40
1
 40
1
 40
1
 40
1
 10
124.070686
 20
254.682612
 30
0.0
 10
123.652763
 20
254.682612
 30
0.0
 10
123.316314
 20
255.019061
 30
0.0
 10
123.316314
 20
255.436981
 30
0.0
  0
LINE
  5
159
100
AcDbEntity
  8
Top_1
 62
3
100
AcDbLine
 10
123.316314
 20
255.436981
 30
0.0
 11
123.316314
 21
263.495842
 31
0.0
  0
SPLINE
  5
15a
100
AcDbEntity
  8
Top_1
 62
3
100
AcDbSpline
 70
8
 71
3
 72
8
 73
4
 74
0
 40
0
 40
0
 40
0
 40
0
 40
1
 40
1
 40
1
 40
1
 10
123.316314
 20
263.495842
 30
0.0
 10
123.316314
 20
263.913762
 30
0.0
 10
123.652763
 20
264.250211
 30
0.0
 10
124.070686
 20
264.250211
 30
0.0
  0
LINE
  5
15b
100
AcDbEntity
  8
Top_1
 62
3
100
AcDbLine
 10
124.070686
 20
264.250211
 30
0.0
 11
124.070686
 21
264.250211
 31
0.0
  0
LINE
  5
15c
100
AcDbEntity
  8
Top_1
 62
3
100
AcDbLine
 10
134.244740
 20
264.250211
 30
0.0
 11
140.468350
 21
264.250211
 31
0.0
  0
SPLINE
  5
15d
100
AcDbEntity
  8
Top_1
 62
3
100
AcDbSpline
 70
8
 71
3
 72
8
 73
4
 74
0
 40
0
 40
0
 40
0
 40
0
 40
1
 40
1
 40
1
 40
1
 10
140.468350
 20
264.250211
 30
0.0
 10
140.886273
 20
264.250211
 30
0.0
 10
141.222722
 20
263.913762
 30
0.0
 10
141.222722
 20
263.495842
 30
0.0
  0
LINE
  5
15e
100
AcDbEntity
  8
Top_1
 62
3
100
AcDbLine
 10
141.222722
 20
263.495842
 30
0.0
 11
141.222722
 21
255.436981
 31
0.0
  0
SPLINE
  5
15f
100
AcDbEntity
  8
Top_1
 62
3
100
AcDbSpline
 70
8
 71
3
 72
8
 73
4
 74
0
 40
0
 40
0
 40
0
 40
0
 40
1
 40
1
 40
1
 40
1
 10
141.222722
 20
255.436981
 30
0.0
 10
141.222722
 20
255.019061
 30
0.0
 10
140.886273
 20
254.682612
 30
0.0
 10
140.468350
 20
254.682612
 30
0.0
  0
LINE
  5
160
100
AcDbEntity
  8
Top_1
 62
3
100
AcDbLine
 10
140.468350
 20
254.682612
 30
0.0
 11
134.244740
 21
254.682612
 31
0.0
  0
SPLINE
  5
161
100
AcDbEntity
  8
Top_1
 62
3
100
AcDbSpline
 70
8
 71
3
 72
8
 73
4
 74
0
 40
0
 40
0
 40
0
 40
0
 40
1
 40
1
 40
1
 40
1
 10
134.244740
 20
254.682612
 30
0.0
 10
133.826820
 20
254.682612
 30
0.0
 10
133.490372
 20
255.019061
 30
0.0
 10
133.490372
 20
255.436981
 30
0.0
  0
LINE
  5
162
100
AcDbEntity
  8
Top_1
 62
3
100
AcDbLine
 10
133.490372
 20
255.436981
 30
0.0
 11
133.490372
 21
263.495842
 31
0.0
  0
SPLINE
  5
163
100
AcDbEntity
  8
Top_1
 62
3
100
AcDbSpline
 70
8
 71
3
 72
8
 73
4
 74
0
 40
0
 40
0
 40
0
 40
0
 40
1
 40
1
 40
1
 40
1
 10
133.490372
 20
263.495842
 30
0.0
 10
133.490372
 20
263.913762
 30
0.0
 10
133.826820
 20
264.250211
 30
0.0
 10
134.244740
 20
264.250211
 30
0.0
  0
LINE
  5
164
100
AcDbEntity
  8
Top_1
 62
3
100
AcDbLine
 10
134.244740
 20
264.250211
 30
0.0
 11
134.244740
 21
264.250211
 31
0.0
  0
LINE
  5
165
100
AcDbEntity
  8
Top_1
 62
3
100
AcDbLine
 10
144.386594
 20
264.250211
 30
0.0
 11
150.610203
 21
264.250211
 31
0.0
  0
SPLINE
  5
166
100
AcDbEntity
  8
Top_1
 62
3
100
AcDbSpline
 70
8
 71
3
 72
8
 73
4
 74
0
 40
0
 40
0
 40
0
 40
0
 40
1
 40
1
 40
1
 40
1
 10
150.610203
 20
264.250211
 30
0.0
 10
151.028126
 20
264.250211
 30
0.0
 10
151.364575
 20
263.913762
 30
0.0
 10
151.364575
 20
263.495842
 30
0.0
  0
LINE
  5
167
100
AcDbEntity
  8
Top_1
 62
3
100
AcDbLine
 10
151.364575
 20
263.495842
 30
0.0
 11
151.364575
 21
255.436981
 31
0.0
  0
SPLINE
  5
168
100
AcDbEntity
  8
Top_1
 62
3
100
AcDbSpline
 70
8
 71
3
 72
8
 73
4
 74
0
 40
0
 40
0
 40
0
 40
0
 40
1
 40
1
 40
1
 40
1
 10
151.364575
 20
255.436981
 30
0.0
 10
151.364575
 20
255.019061
 30
0.0
 10
151.028126
 20
254.682612
 30
0.0
 10
150.610203
 20
254.682612
 30
0.0
  0
LINE
  5
169
100
AcDbEntity
  8
Top_1
 62
3
100
AcDbLine
 10
150.610203
 20
254.682612
 30
0.0
 11
144.386594
 21
254.682612
 31
0.0
  0
SPLINE
  5
16a
100
AcDbEntity
  8
Top_1
 62
3
100
AcDbSpline
 70
8
 71
3
 72
8
 73
4
 74
0
 40
0
 40
0
 40
0
 40
0
 40
1
 40
1
 40
1
 40
1
 10
144.386594
 20
254.682612
 30
0.0
 10
143.968673
 20
254.682612
 30
0.0
 10
143.632222
 20
255.019061
 30
0.0
 10
143.632222
 20
255.436981
 30
0.0
  0
LINE
  5
16b
100
AcDbEntity
  8
Top_1
 62
3
100
AcDbLine
 10
143.632222
 20
255.436981
 30
0.0
 11
143.632222
 21
263.495842
 31
0.0
  0
SPLINE
  5
16c
100
AcDbEntity
  8
Top_1
 62
3
100
AcDbSpline
 70
8
 71
3
 72
8
 73
4
 74
0
 40
0
 40
0
 40
0
 40
0
 40
1
 40
1
 40
1
 40
1
 10
143.632222
 20
263.495842
 30
0.0
 10
143.632222
 20
263.913762
 30
0.0
 10
143.968673
 20
264.250211
 30
0.0
 10
144.386594
 20
264.250211
 30
0.0
  0
LINE
  5
16d
100
AcDbEntity
  8
Top_1
 62
3
100
AcDbLine
 10
144.386594
 20
264.250211
 30
0.0
 11
144.386594
 21
264.250211
 31
0.0
  0
LINE
  5
16e
100
AcDbEntity
  8
Top_1
 62
3
100
AcDbLine
 10
154.560640
 20
264.250211
 30
0.0
 11
160.784252
 21
264.250211
 31
0.0
  0
SPLINE
  5
16f
100
AcDbEntity
  8
Top_1
 62
3
100
AcDbSpline
 70
8
 71
3
 72
8
 73
4
 74
0
 40
0
 40
0
 40
0
 40
0
 40
1
 40
1
 40
1
 40
1
 10
160.784252
 20
264.250211
 30
0.0
 10
161.202172
 20
264.250211
 30
0.0
 10
161.538621
 20
263.913762
 30
0.0
 10
161.538621
 20
263.495842
 30
0.0
  0
LINE
  5
170
100
AcDbEntity
  8
Top_1
 62
3
100
AcDbLine
 10
161.538621
 20
263.495842
 30
0.0
 11
161.538621
 21
255.436981
 31
0.0
  0
SPLINE
  5
171
100
AcDbEntity
  8
Top_1
 62
3
100
AcDbSpline
 70
8
 71
3
 72
8
 73
4
 74
0
 40
0
 40
0
 40
0
 40
0
 40
1
 40
1
 40
1
 40
1
 10
161.538621
 20
255.436981
 30
0.0
 10
161.538621
 20
255.019061
 30
0.0
 10
161.202172
 20
254.682612
 30
0.0
 10
160.784252
 20
254.682612
 30
0.0
  0
LINE
  5
172
100
AcDbEntity
  8
Top_1
 62
3
100
AcDbLine
 10
160.784252
 20
254.682612
 30
0.0
 11
154.560640
 21
254.682612
 31
0.0
  0
SPLINE
  5
173
100
AcDbEntity
  8
Top_1
 62
3
100
AcDbSpline
 70
8
 71
3
 72
8
 73
4
 74
0
 40
0
 40
0
 40
0
 40
0
 40
1
 40
1
 40
1
 40
1
 10
154.560640
 20
254.682612
 30
0.0
 10
154.142719
 20
254.682612
 30
0.0
 10
153.806271
 20
255.019061
 30
0.0
 10
153.806271
 20
255.436981
 30
0.0
  0
LINE
  5
174
100
AcDbEntity
  8
Top_1
 62
3
100
AcDbLine
 10
153.806271
 20
255.436981
 30
0.0
 11
153.806271
 21
263.495842
 31
0.0
  0
SPLINE
  5
175
100
AcDbEntity
  8
Top_1
 62
3
100
AcDbSpline
 70
8
 71
3
 72
8
 73
4
 74
0
 40
0
 40
0
 40
0
 40
0
 40
1
 40
1
 40
1
 40
1
 10
153.806271
 20
263.495842
 30
0.0
 10
153.806271
 20
263.913762
 30
0.0
 10
154.142719
 20
264.250211
 30
0.0
 10
154.560640
 20
264.250211
 30
0.0
  0
LINE
  5
176
100
AcDbEntity
  8
Top_1
 62
3
100
AcDbLine
 10
154.560640
 20
264.250211
 30
0.0
 11
154.560640
 21
264.250211
 31
0.0
  0
LINE
  5
177
100
AcDbEntity
  8
Top_1
 62
3
100
AcDbLine
 10
65.665550
 20
251.528181
 30
0.0
 11
71.889160
 21
251.528181
 31
0.0
  0
SPLINE
  5
178
100
AcDbEntity
  8
Top_1
 62
3
100
AcDbSpline
 70
8
 71
3
 72
8
 73
4
 74
0
 40
0
 40
0
 40
0
 40
0
 40
1
 40
1
 40
1
 40
1
 10
71.889160
 20
251.528181
 30
0.0
 10
72.307080
 20
251.528181
 30
0.0
 10
72.643532
 20
251.191732
 30
0.0
 10
72.643532
 20
250.773809
 30
0.0
  0
LINE
  5
179
100
AcDbEntity
  8
Top_1
 62
3
100
AcDbLine
 10
72.643532
 20
250.773809
 30
0.0
 11
72.643532
 21
242.714951
 31
0.0
  0
SPLINE
  5
17a
100
AcDbEntity
  8
Top_1
 62
3
100
AcDbSpline
 70
8
 71
3
 72
8
 73
4
 74
0
 40
0
 40
0
 40
0
 40
0
 40
1
 40
1
 40
1
 40
1
 10
72.643532
 20
242.714951
 30
0.0
 10
72.643532
 20
242.297028
 30
0.0
 10
72.307080
 20
241.960579
 30
0.0
 10
71.889160
 20
241.960579
 30
0.0
  0
LINE
  5
17b
100
AcDbEntity
  8
Top_1
 62
3
100
AcDbLine
 10
71.889160
 20
241.960579
 30
0.0
 11
65.665550
 21
241.960579
 31
0.0
  0
SPLINE
  5
17c
100
AcDbEntity
  8
Top_1
 62
3
100
AcDbSpline
 70
8
 71
3
 72
8
 73
4
 74
0
 40
0
 40
0
 40
0
 40
0
 40
1
 40
1
 40
1
 40
1
 10
65.665550
 20
241.960579
 30
0.0
 10
65.247630
 20
241.960579
 30
0.0
 10
64.911179
 20
242.297028
 30
0.0
 10
64.911179
 20
242.714951
 30
0.0
  0
LINE
  5
17d
100
AcDbEntity
  8
Top_1
 62
3
100
AcDbLine
 10
64.911179
 20
242.714951
 30
0.0
 11
64.911179
 21
250.773809
 31
0.0
  0
SPLINE
  5
17e
100
AcDbEntity
  8
Top_1
 62
3
100
AcDbSpline
 70
8
 71
3
 72
8
 73
4
 74
0
 40
0
 40
0
 40
0
 40
0
 40
1
 40
1
 40
1
 40
1
 10
64.911179
 20
250.773809
 30
0.0
 10
64.911179
 20
251.191732
 30
0.0
 10
65.247630
 20
251.528181
 30
0.0
 10
65.665550
 20
251.528181
 30
0.0
  0
LINE
  5
17f
100
AcDbEntity
  8
Top_1
 62
3
100
AcDbLine
 10
65.665550
 20
251.528181
 30
0.0
 11
65.665550
 21
251.528181
 31
0.0
  0
LINE
  5
180
100
AcDbEntity
  8
Top_1
 62
3
100
AcDbLine
 10
75.839605
 20
251.528181
 30
0.0
 11
82.063217
 21
251.528181
 31
0.0
  0
SPLINE
  5
181
100
AcDbEntity
  8
Top_1
 62
3
100
AcDbSpline
 70
8
 71
3
 72
8
 73
4
 74
0
 40
0
 40
0
 40
0
 40
0
 40
1
 40
1
 40
1
 40
1
 10
82.063217
 20
251.528181
 30
0.0
 10
82.481138
 20
251.528181
 30
0.0
 10
82.817586
 20
251.191732
 30
0.0
 10
82.817586
 20
250.773809
 30
0.0
  0
LINE
  5
182
100
AcDbEntity
  8
Top_1
 62
3
100
AcDbLine
 10
82.817586
 20
250.773809
 30
0.0
 11
82.817586
 21
242.714951
 31
0.0
  0
SPLINE
  5
183
100
AcDbEntity
  8
Top_1
 62
3
100
AcDbSpline
 70
8
 71
3
 72
8
 73
4
 74
0
 40
0
 40
0
 40
0
 40
0
 40
1
 40
1
 40
1
 40
1
 10
82.817586
 20
242.714951
 30
0.0
 10
82.817586
 20
242.297028
 30
0.0
 10
82.481138
 20
241.960579
 30
0.0
 10
82.063217
 20
241.960579
 30
0.0
  0
LINE
  5
184
100
AcDbEntity
  8
Top_1
 62
3
100
AcDbLine
 10
82.063217
 20
241.960579
 30
0.0
 11
75.839605
 21
241.960579
 31
0.0
  0
SPLINE
  5
185
100
AcDbEntity
  8
Top_1
 62
3
100
AcDbSpline
 70
8
 71
3
 72
8
 73
4
 74
0
 40
0
 40
0
 40
0
 40
0
 40
1
 40
1
 40
1
 40
1
 10
75.839605
 20
241.960579
 30
0.0
 10
75.421685
 20
241.960579
 30
0.0
 10
75.085236
 20
242.297028
 30
0.0
 10
75.085236
 20
242.714951
 30
0.0
  0
LINE
  5
186
100
AcDbEntity
  8
Top_1
 62
3
100
AcDbLine
 10
75.085236
 20
242.714951
 30
0.0
 11
75.085236
 21
250.773809
 31
0.0
  0
SPLINE
  5
187
100
AcDbEntity
  8
Top_1
 62
3
100
AcDbSpline
 70
8
 71
3
 72
8
 73
4
 74
0
 40
0
 40
0
 40
0
 40
0
 40
1
 40
1
 40
1
 40
1
 10
75.085236
 20
250.773809
 30
0.0
 10
75.085236
 20
251.191732
 30
0.0
 10
75.421685
 20
251.528181
 30
0.0
 10
75.839605
 20
251.528181
 30
0.0
  0
LINE
  5
188
100
AcDbEntity
  8
Top_1
 62
3
100
AcDbLine
 10
75.839605
 20
251.528181
 30
0.0
 11
75.839605
 21
251.528181
 31
0.0
  0
LINE
  5
189
100
AcDbEntity
  8
Top_1
 62
3
100
AcDbLine
 10
85.978032
 20
251.528181
 30
0.0
 11
92.201642
 21
251.528181
 31
0.0
  0
SPLINE
  5
18a
100
AcDbEntity
  8
Top_1
 62
3
100
AcDbSpline
 70
8
 71
3
 72
8
 73
4
 74
0
 40
0
 40
0
 40
0
 40
0
 40
1
 40
1
 40
1
 40
1
 10
92.201642
 20
251.528181
 30
0.0
 10
92.619562
 20
251.528181
 30
0.0
 10
92.956010
 20
251.191732
 30
0.0
 10
92.956010
 20
250.773809
 30
0.0
  0
LINE
  5
18b
100
AcDbEntity
  8
Top_1
 62
3
100
AcDbLine
 10
92.956010
 20
250.773809
 30
0.0
 11
92.956010
 21
242.714951
 31
0.0
  0
SPLINE
  5
18c
100
AcDbEntity
  8
Top_1
 62
3
100
AcDbSpline
 70
8
 71
3
 72
8
 73
4
 74
0
 40
0
 40
0
 40
0
 40
0
 40
1
 40
1
 40
1
 40
1
 10
92.956010
 20
242.714951
 30
0.0
 10
92.956010
 20
242.297028
 30
0.0
 10
92.619562
 20
241.960579
 30
0.0
 10
92.201642
 20
241.960579
 30
0.0
  0
LINE
  5
18d
100
AcDbEntity
  8
Top_1
 62
3
100
AcDbLine
 10
92.201642
 20
241.960579
 30
0.0
 11
85.978032
 21
241.960579
 31
0.0
  0
SPLINE
  5
18e
100
AcDbEntity
  8
Top_1
 62
3
100
AcDbSpline
 70
8
 71
3
 72
8
 73
4
 74
0
 40
0
 40
0
 40
0
 40
0
 40
1
 40
1
 40
1
 40
1
 10
85.978032
 20
241.960579
 30
0.0
 10
85.560109
 20
241.960579
 30
0.0
 10
85.223660
 20
242.297028
 30
0.0
 10
85.223660
 20
242.714951
 30
0.0
  0
LINE
  5
18f
100
AcDbEntity
  8
Top_1
 62
3
100
AcDbLine
 10
85.223660
 20
242.714951
 30
0.0
 11
85.223660
 21
250.773809
 31
0.0
  0
SPLINE
  5
190
100
AcDbEntity
  8
Top_1
 62
3
100
AcDbSpline
 70
8
 71
3
 72
8
 73
4
 74
0
 40
0
 40
0
 40
0
 40
0
 40
1
 40
1
 40
1
 40
1
 10
85.223660
 20
250.773809
 30
0.0
 10
85.223660
 20
251.191732
 30
0.0
 10
85.560109
 20
251.528181
 30
0.0
 10
85.978032
 20
251.528181
 30
0.0
  0
LINE
  5
191
100
AcDbEntity
  8
Top_1
 62
3
100
AcDbLine
 10
85.978032
 20
251.528181
 30
0.0
 11
85.978032
 21
251.528181
 31
0.0
  0
LINE
  5
192
100
AcDbEntity
  8
Top_1
 62
3
100
AcDbLine
 10
96.152087
 20
251.528181
 30
0.0
 11
102.375696
 21
251.528181
 31
0.0
  0
SPLINE
  5
193
100
AcDbEntity
  8
Top_1
 62
3
100
AcDbSpline
 70
8
 71
3
 72
8
 73
4
 74
0
 40
0
 40
0
 40
0
 40
0
 40
1
 40
1
 40
1
 40
1
 10
102.375696
 20
251.528181
 30
0.0
 10
102.793619
 20
251.528181
 30
0.0
 10
103.130068
 20
251.191732
 30
0.0
 10
103.130068
 20
250.773809
 30
0.0
  0
LINE
  5
194
100
AcDbEntity
  8
Top_1
 62
3
100
AcDbLine
 10
103.130068
 20
250.773809
 30
0.0
 11
103.130068
 21
242.714951
 31
0.0
  0
SPLINE
  5
195
100
AcDbEntity
  8
Top_1
 62
3
100
AcDbSpline
 70
8
 71
3
 72
8
 73
4
 74
0
 40
0
 40
0
 40
0
 40
0
 40
1
 40
1
 40
1
 40
1
 10
103.130068
 20
242.714951
 30
0.0
 10
103.130068
 20
242.297028
 30
0.0
 10
102.793619
 20
241.960579
 30
0.0
 10
102.375696
 20
241.960579
 30
0.0
  0
LINE
  5
196
100
AcDbEntity
  8
Top_1
 62
3
100
AcDbLine
 10
102.375696
 20
241.960579
 30
0.0
 11
96.152087
 21
241.960579
 31
0.0
  0
SPLINE
  5
197
100
AcDbEntity
  8
Top_1
 62
3
100
AcDbSpline
 70
8
 71
3
 72
8
 73
4
 74
0
 40
0
 40
0
 40
0
 40
0
 40
1
 40
1
 40
1
 40
1
 10
96.152087
 20
241.960579
 30
0.0
 10
95.734166
 20
241.960579
 30
0.0
 10
95.397718
 20
242.297028
 30
0.0
 10
95.397718
 20
242.714951
 30
0.0
  0
LINE
  5
198
100
AcDbEntity
  8
Top_1
 62
3
100
AcDbLine
 10
95.397718
 20
242.714951
 30
0.0
 11
95.397718
 21
250.773809
 31
0.0
  0
SPLINE
  5
199
100
AcDbEntity
  8
Top_1
 62
3
100
AcDbSpline
 70
8
 71
3
 72
8
 73
4
 74
0
 40
0
 40
0
 40
0
 40
0
 40
1
 40
1
 40
1
 40
1
 10
95.397718
 20
250.773809
 30
0.0
 10
95.397718
 20
251.191732
 30
0.0
 10
95.734166
 20
251.528181
 30
0.0
 10
96.152087
 20
251.528181
 30
0.0
  0
LINE
  5
19a
100
AcDbEntity
  8
Top_1
 62
3
100
AcDbLine
 10
96.152087
 20
251.528181
 30
0.0
 11
96.152087
 21
251.528181
 31
0.0
  0
LINE
  5
19b
100
AcDbEntity
  8
Top_1
 62
3
100
AcDbLine
 10
106.323991
 20
251.528181
 30
0.0
 11
112.547600
 21
251.528181
 31
0.0
  0
SPLINE
  5
19c
100
AcDbEntity
  8
Top_1
 62
3
100
AcDbSpline
 70
8
 71
3
 72
8
 73
4
 74
0
 40
0
 40
0
 40
0
 40
0
 40
1
 40
1
 40
1
 40
1
 10
112.547600
 20
251.528181
 30
0.0
 10
112.965521
 20
251.528181
 30
0.0
 10
113.301969
 20
251.191732
 30
0.0
 10
113.301969
 20
250.773809
 30
0.0
  0
LINE
  5
19d
100
AcDbEntity
  8
Top_1
 62
3
100
AcDbLine
 10
113.301969
 20
250.773809
 30
0.0
 11
113.301969
 21
242.714951
 31
0.0
  0
SPLINE
  5
19e
100
AcDbEntity
  8
Top_1
 62
3
100
AcDbSpline
 70
8
 71
3
 72
8
 73
4
 74
0
 40
0
 40
0
 40
0
 40
0
 40
1
 40
1
 40
1
 40
1
 10
113.301969
 20
242.714951
 30
0.0
 10
113.301969
 20
242.297028
 30
0.0
 10
112.965521
 20
241.960579
 30
0.0
 10
112.547600
 20
241.960579
 30
0.0
  0
LINE
  5
19f
100
AcDbEntity
  8
Top_1
 62
3
100
AcDbLine
 10
112.547600
 20
241.960579
 30
0.0
 11
106.323991
 21
241.960579
 31
0.0
  0
SPLINE
  5
1a0
100
AcDbEntity
  8
Top_1
 62
3
100
AcDbSpline
 70
8
 71
3
 72
8
 73
4
 74
0
 40
0
 40
0
 40
0
 40
0
 40
1
 40
1
 40
1
 40
1
 10
106.323991
 20
241.960579
 30
0.0
 10
105.906068
 20
241.960579
 30
0.0
 10
105.569619
 20
242.297028
 30
0.0
 10
105.569619
 20
242.714951
 30
0.0
  0
LINE
  5
1a1
100
AcDbEntity
  8
Top_1
 62
3
100
AcDbLine
 10
105.569619
 20
242.714951
 30
0.0
 11
105.569619
 21
250.773809
 31
0.0
  0
SPLINE
  5
1a2
100
AcDbEntity
  8
Top_1
 62
3
100
AcDbSpline
 70
8
 71
3
 72
8
 73
4
 74
0
 40
0
 40
0
 40
0
 40
0
 40
1
 40
1
 40
1
 40
1
 10
105.569619
 20
250.773809
 30
0.0
 10
105.569619
 20
251.191732
 30
0.0
 10
105.906068
 20
251.528181
 30
0.0
 10
106.323991
 20
251.528181
 30
0.0
  0
LINE
  5
1a3
100
AcDbEntity
  8
Top_1
 62
3
100
AcDbLine
 10
106.323991
 20
251.528181
 30
0.0
 11
106.323991
 21
251.528181
 31
0.0
  0
LINE
  5
1a4
100
AcDbEntity
  8
Top_1
 62
3
100
AcDbLine
 10
116.498045
 20
251.528181
 30
0.0
 11
122.721655
 21
251.528181
 31
0.0
  0
SPLINE
  5
1a5
100
AcDbEntity
  8
Top_1
 62
3
100
AcDbSpline
 70
8
 71
3
 72
8
 73
4
 74
0
 40
0
 40
0
 40
0
 40
0
 40
1
 40
1
 40
1
 40
1
 10
122.721655
 20
251.528181
 30
0.0
 10
123.139578
 20
251.528181
 30
0.0
 10
123.476027
 20
251.191732
 30
0.0
 10
123.476027
 20
250.773809
 30
0.0
  0
LINE
  5
1a6
100
AcDbEntity
  8
Top_1
 62
3
100
AcDbLine
 10
123.476027
 20
250.773809
 30
0.0
 11
123.476027
 21
242.714951
 31
0.0
  0
SPLINE
  5
1a7
100
AcDbEntity
  8
Top_1
 62
3
100
AcDbSpline
 70
8
 71
3
 72
8
 73
4
 74
0
 40
0
 40
0
 40
0
 40
0
 40
1
 40
1
 40
1
 40
1
 10
123.476027
 20
242.714951
 30
0.0
 10
123.476027
 20
242.297028
 30
0.0
 10
123.139578
 20
241.960579
 30
0.0
 10
122.721655
 20
241.960579
 30
0.0
  0
LINE
  5
1a8
100
AcDbEntity
  8
Top_1
 62
3
100
AcDbLine
 10
122.721655
 20
241.960579
 30
0.0
 11
116.498045
 21
241.960579
 31
0.0
  0
SPLINE
  5
1a9
100
AcDbEntity
  8
Top_1
 62
3
100
AcDbSpline
 70
8
 71
3
 72
8
 73
4
 74
0
 40
0
 40
0
 40
0
 40
0
 40
1
 40
1
 40
1
 40
1
 10
116.498045
 20
241.960579
 30
0.0
 10
116.080125
 20
241.960579
 30
0.0
 10
115.743677
 20
242.297028
 30
0.0
 10
115.743677
 20
242.714951
 30
0.0
  0
LINE
  5
1aa
100
AcDbEntity
  8
Top_1
 62
3
100
AcDbLine
 10
115.743677
 20
242.714951
 30
0.0
 11
115.743677
 21
250.773809
 31
0.0
  0
SPLINE
  5
1ab
100
AcDbEntity
  8
Top_1
 62
3
100
AcDbSpline
 70
8
 71
3
 72
8
 73
4
 74
0
 40
0
 40
0
 40
0
 40
0
 40
1
 40
1
 40
1
 40
1
 10
115.743677
 20
250.773809
 30
0.0
 10
115.743677
 20
251.191732
 30
0.0
 10
116.080125
 20
251.528181
 30
0.0
 10
116.498045
 20
251.528181
 30
0.0
  0
LINE
  5
1ac
100
AcDbEntity
  8
Top_1
 62
3
100
AcDbLine
 10
116.498045
 20
251.528181
 30
0.0
 11
116.498045
 21
251.528181
 31
0.0
  0
LINE
  5
1ad
100
AcDbEntity
  8
Top_1
 62
3
100
AcDbLine
 10
126.636472
 20
251.528181
 30
0.0
 11
132.860082
 21
251.528181
 31
0.0
  0
SPLINE
  5
1ae
100
AcDbEntity
  8
Top_1
 62
3
100
AcDbSpline
 70
8
 71
3
 72
8
 73
4
 74
0
 40
0
 40
0
 40
0
 40
0
 40
1
 40
1
 40
1
 40
1
 10
132.860082
 20
251.528181
 30
0.0
 10
133.278002
 20
251.528181
 30
0.0
 10
133.614451
 20
251.191732
 30
0.0
 10
133.614451
 20
250.773809
 30
0.0
  0
LINE
  5
1af
100
AcDbEntity
  8
Top_1
 62
3
100
AcDbLine
 10
133.614451
 20
250.773809
 30
0.0
 11
133.614451
 21
242.714951
 31
0.0
  0
SPLINE
  5
1b0
100
AcDbEntity
  8
Top_1
 62
3
100
AcDbSpline
 70
8
 71
3
 72
8
 73
4
 74
0
 40
0
 40
0
 40
0
 40
0
 40
1
 40
1
 40
1
 40
1
 10
133.614451
 20
242.714951
 30
0.0
 10
133.614451
 20
242.297028
 30
0.0
 10
133.278002
 20
241.960579
 30
0.0
 10
132.860082
 20
241.960579
 30
0.0
  0
LINE
  5
1b1
100
AcDbEntity
  8
Top_1
 62
3
100
AcDbLine
 10
132.860082
 20
241.960579
 30
0.0
 11
126.636472
 21
241.960579
 31
0.0
  0
SPLINE
  5
1b2
100
AcDbEntity
  8
Top_1
 62
3
100
AcDbSpline
 70
8
 71
3
 72
8
 73
4
 74
0
 40
0
 40
0
 40
0
 40
0
 40
1
 40
1
 40
1
 40
1
 10
126.636472
 20
241.960579
 30
0.0
 10
126.218549
 20
241.960579
 30
0.0
 10
125.882101
 20
242.297028
 30
0.0
 10
125.882101
 20
242.714951
 30
0.0
  0
LINE
  5
1b3
100
AcDbEntity
  8
Top_1
 62
3
100
AcDbLine
 10
125.882101
 20
242.714951
 30
0.0
 11
125.882101
 21
250.773809
 31
0.0
  0
SPLINE
  5
1b4
100
AcDbEntity
  8
Top_1
 62
3
100
AcDbSpline
 70
8
 71
3
 72
8
 73
4
 74
0
 40
0
 40
0
 40
0
 40
0
 40
1
 40
1
 40
1
 40
1
 10
125.882101
 20
250.773809
 30
0.0
 10
125.882101
 20
251.191732
 30
0.0
 10
126.218549
 20
251.528181
 30
0.0
 10
126.636472
 20
251.528181
 30
0.0
  0
LINE
  5
1b5
100
AcDbEntity
  8
Top_1
 62
3
100
AcDbLine
 10
126.636472
 20
251.528181
 30
0.0
 11
126.636472
 21
251.528181
 31
0.0
  0
LINE
  5
1b6
100
AcDbEntity
  8
Top_1
 62
3
100
AcDbLine
 10
136.810527
 20
251.528181
 30
0.0
 11
143.034137
 21
251.528181
 31
0.0
  0
SPLINE
  5
1b7
100
AcDbEntity
  8
Top_1
 62
3
100
AcDbSpline
 70
8
 71
3
 72
8
 73
4
 74
0
 40
0
 40
0
 40
0
 40
0
 40
1
 40
1
 40
1
 40
1
 10
143.034137
 20
251.528181
 30
0.0
 10
143.452060
 20
251.528181
 30
0.0
 10
143.788508
 20
251.191732
 30
0.0
 10
143.788508
 20
250.773809
 30
0.0
  0
LINE
  5
1b8
100
AcDbEntity
  8
Top_1
 62
3
100
AcDbLine
 10
143.788508
 20
250.773809
 30
0.0
 11
143.788508
 21
242.714951
 31
0.0
  0
SPLINE
  5
1b9
100
AcDbEntity
  8
Top_1
 62
3
100
AcDbSpline
 70
8
 71
3
 72
8
 73
4
 74
0
 40
0
 40
0
 40
0
 40
0
 40
1
 40
1
 40
1
 40
1
 10
143.788508
 20
242.714951
 30
0.0
 10
143.788508
 20
242.297028
 30
0.0
 10
143.452060
 20
241.960579
 30
0.0
 10
143.034137
 20
241.960579
 30
0.0
  0
LINE
  5
1ba
100
AcDbEntity
  8
Top_1
 62
3
100
AcDbLine
 10
143.034137
 20
241.960579
 30
0.0
 11
136.810527
 21
241.960579
 31
0.0
  0
SPLINE
  5
1bb
100
AcDbEntity
  8
Top_1
 62
3
100
AcDbSpline
 70
8
 71
3
 72
8
 73
4
 74
0
 40
0
 40
0
 40
0
 40
0
 40
1
 40
1
 40
1
 40
1
 10
136.810527
 20
241.960579
 30
0.0
 10
136.392607
 20
241.960579
 30
0.0
 10
136.056158
 20
242.297028
 30
0.0
 10
136.056158
 20
242.714951
 30
0.0
  0
LINE
  5
1bc
100
AcDbEntity
  8
Top_1
 62
3
100
AcDbLine
 10
136.056158
 20
242.714951
 30
0.0
 11
136.056158
 21
250.773809
 31
0.0
  0
SPLINE
  5
1bd
100
AcDbEntity
  8
Top_1
 62
3
100
AcDbSpline
 70
8
 71
3
 72
8
 73
4
 74
0
 40
0
 40
0
 40
0
 40
0
 40
1
 40
1
 40
1
 40
1
 10
136.056158
 20
250.773809
 30
0.0
 10
136.056158
 20
251.191732
 30
0.0
 10
136.392607
 20
251.528181
 30
0.0
 10
136.810527
 20
251.528181
 30
0.0
  0
LINE
  5
1be
100
AcDbEntity
  8
Top_1
 62
3
100
AcDbLine
 10
136.810527
 20
251.528181
 30
0.0
 11
136.810527
 21
251.528181
 31
0.0
  0
LINE
  5
1bf
100
AcDbEntity
  8
Top_1
 62
3
100
AcDbLine
 10
146.952389
 20
251.528181
 30
0.0
 11
153.175998
 21
251.528181
 31
0.0
  0
SPLINE
  5
1c0
100
AcDbEntity
  8
Top_1
 62
3
100
AcDbSpline
 70
8
 71
3
 72
8
 73
4
 74
0
 40
0
 40
0
 40
0
 40
0
 40
1
 40
1
 40
1
 40
1
 10
153.175998
 20
251.528181
 30
0.0
 10
153.593921
 20
251.528181
 30
0.0
 10
153.930370
 20
251.191732
 30
0.0
 10
153.930370
 20
250.773809
 30
0.0
  0
LINE
  5
1c1
100
AcDbEntity
  8
Top_1
 62
3
100
AcDbLine
 10
153.930370
 20
250.773809
 30
0.0
 11
153.930370
 21
242.714951
 31
0.0
  0
SPLINE
  5
1c2
100
AcDbEntity
  8
Top_1
 62
3
100
AcDbSpline
 70
8
 71
3
 72
8
 73
4
 74
0
 40
0
 40
0
 40
0
 40
0
 40
1
 40
1
 40
1
 40
1
 10
153.930370
 20
242.714951
 30
0.0
 10
153.930370
 20
242.297028
 30
0.0
 10
153.593921
 20
241.960579
 30
0.0
 10
153.175998
 20
241.960579
 30
0.0
  0
LINE
  5
1c3
100
AcDbEntity
  8
Top_1
 62
3
100
AcDbLine
 10
153.175998
 20
241.960579
 30
0.0
 11
146.952389
 21
241.960579
 31
0.0
  0
SPLINE
  5
1c4
100
AcDbEntity
  8
Top_1
 62
3
100
AcDbSpline
 70
8
 71
3
 72
8
 73
4
 74
0
 40
0
 40
0
 40
0
 40
0
 40
1
 40
1
 40
1
 40
1
 10
146.952389
 20
241.960579
 30
0.0
 10
146.534468
 20
241.960579
 30
0.0
 10
146.198020
 20
242.297028
 30
0.0
 10
146.198020
 20
242.714951
 30
0.0
  0
LINE
  5
1c5
100
AcDbEntity
  8
Top_1
 62
3
100
AcDbLine
 10
146.198020
 20
242.714951
 30
0.0
 11
146.198020
 21
250.773809
 31
0.0
  0
SPLINE
  5
1c6
100
AcDbEntity
  8
Top_1
 62
3
100
AcDbSpline
 70
8
 71
3
 72
8
 73
4
 74
0
 40
0
 40
0
 40
0
 40
0
 40
1
 40
1
 40
1
 40
1
 10
146.198020
 20
250.773809
 30
0.0
 10
146.198020
 20
251.191732
 30
0.0
 10
146.534468
 20
251.528181
 30
0.0
 10
146.952389
 20
251.528181
 30
0.0
  0
LINE
  5
1c7
100
AcDbEntity
  8
Top_1
 62
3
100
AcDbLine
 10
146.952389
 20
251.528181
 30
0.0
 11
146.952389
 21
251.528181
 31
0.0
  0
LINE
  5
1c8
100
AcDbEntity
  8
Top_1
 62
3
100
AcDbLine
 10
157.126426
 20
251.528181
 30
0.0
 11
163.350039
 21
251.528181
 31
0.0
  0
SPLINE
  5
1c9
100
AcDbEntity
  8
Top_1
 62
3
100
AcDbSpline
 70
8
 71
3
 72
8
 73
4
 74
0
 40
0
 40
0
 40
0
 40
0
 40
1
 40
1
 40
1
 40
1
 10
163.350039
 20
251.528181
 30
0.0
 10
163.767959
 20
251.528181
 30
0.0
 10
164.104407
 20
251.191732
 30
0.0
 10
164.104407
 20
250.773809
 30
0.0
  0
LINE
  5
1ca
100
AcDbEntity
  8
Top_1
 62
3
100
AcDbLine
 10
164.104407
 20
250.773809
 30
0.0
 11
164.104407
 21
242.714951
 31
0.0
  0
SPLINE
  5
1cb
100
AcDbEntity
  8
Top_1
 62
3
100
AcDbSpline
 70
8
 71
3
 72
8
 73
4
 74
0
 40
0
 40
0
 40
0
 40
0
 40
1
 40
1
 40
1
 40
1
 10
164.104407
 20
242.714951
 30
0.0
 10
164.104407
 20
242.297028
 30
0.0
 10
163.767959
 20
241.960579
 30
0.0
 10
163.350039
 20
241.960579
 30
0.0
  0
LINE
  5
1cc
100
AcDbEntity
  8
Top_1
 62
3
100
AcDbLine
 10
163.350039
 20
241.960579
 30
0.0
 11
157.126426
 21
241.960579
 31
0.0
  0
SPLINE
  5
1cd
100
AcDbEntity
  8
Top_1
 62
3
100
AcDbSpline
 70
8
 71
3
 72
8
 73
4
 74
0
 40
0
 40
0
 40
0
 40
0
 40
1
 40
1
 40
1
 40
1
 10
157.126426
 20
241.960579
 30
0.0
 10
156.708506
 20
241.960579
 30
0.0
 10
156.372058
 20
242.297028
 30
0.0
 10
156.372058
 20
242.714951
 30
0.0
  0
LINE
  5
1ce
100
AcDbEntity
  8
Top_1
 62
3
100
AcDbLine
 10
156.372058
 20
242.714951
 30
0.0
 11
156.372058
 21
250.773809
 31
0.0
  0
SPLINE
  5
1cf
100
AcDbEntity
  8
Top_1
 62
3
100
AcDbSpline
 70
8
 71
3
 72
8
 73
4
 74
0
 40
0
 40
0
 40
0
 40
0
 40
1
 40
1
 40
1
 40
1
 10
156.372058
 20
250.773809
 30
0.0
 10
156.372058
 20
251.191732
 30
0.0
 10
156.708506
 20
251.528181
 30
0.0
 10
157.126426
 20
251.528181
 30
0.0
  0
LINE
  5
1d0
100
AcDbEntity
  8
Top_1
 62
3
100
AcDbLine
 10
157.126426
 20
251.528181
 30
0.0
 11
157.126426
 21
251.528181
 31
0.0
  0
LINE
  5
1d1
100
AcDbEntity
  8
Top_1
 62
3
100
AcDbLine
 10
68.206264
 20
238.852110
 30
0.0
 11
74.429874
 21
238.852110
 31
0.0
  0
SPLINE
  5
1d2
100
AcDbEntity
  8
Top_1
 62
3
100
AcDbSpline
 70
8
 71
3
 72
8
 73
4
 74
0
 40
0
 40
0
 40
0
 40
0
 40
1
 40
1
 40
1
 40
1
 10
74.429874
 20
238.852110
 30
0.0
 10
74.847797
 20
238.852110
 30
0.0
 10
75.184246
 20
238.515662
 30
0.0
 10
75.184246
 20
238.097741
 30
0.0
  0
LINE
  5
1d3
100
AcDbEntity
  8
Top_1
 62
3
100
AcDbLine
 10
75.184246
 20
238.097741
 30
0.0
 11
75.184246
 21
230.038880
 31
0.0
  0
SPLINE
  5
1d4
100
AcDbEntity
  8
Top_1
 62
3
100
AcDbSpline
 70
8
 71
3
 72
8
 73
4
 74
0
 40
0
 40
0
 40
0
 40
0
 40
1
 40
1
 40
1
 40
1
 10
75.184246
 20
230.038880
 30
0.0
 10
75.184246
 20
229.620960
 30
0.0
 10
74.847797
 20
229.284509
 30
0.0
 10
74.429874
 20
229.284509
 30
0.0
  0
LINE
  5
1d5
100
AcDbEntity
  8
Top_1
 62
3
100
AcDbLine
 10
74.429874
 20
229.284509
 30
0.0
 11
68.206264
 21
229.284509
 31
0.0
  0
SPLINE
  5
1d6
100
AcDbEntity
  8
Top_1
 62
3
100
AcDbSpline
 70
8
 71
3
 72
8
 73
4
 74
0
 40
0
 40
0
 40
0
 40
0
 40
1
 40
1
 40
1
 40
1
 10
68.206264
 20
229.284509
 30
0.0
 10
67.788344
 20
229.284509
 30
0.0
 10
67.451896
 20
229.620960
 30
0.0
 10
67.451896
 20
230.038880
 30
0.0
  0
LINE
  5
1d7
100
AcDbEntity
  8
Top_1
 62
3
100
AcDbLine
 10
67.451896
 20
230.038880
 30
0.0
 11
67.451896
 21
238.097741
 31
0.0
  0
SPLINE
  5
1d8
100
AcDbEntity
  8
Top_1
 62
3
100
AcDbSpline
 70
8
 71
3
 72
8
 73
4
 74
0
 40
0
 40
0
 40
0
 40
0
 40
1
 40
1
 40
1
 40
1
 10
67.451896
 20
238.097741
 30
0.0
 10
67.451896
 20
238.515662
 30
0.0
 10
67.788344
 20
238.852110
 30
0.0
 10
68.206264
 20
238.852110
 30
0.0
  0
LINE
  5
1d9
100
AcDbEntity
  8
Top_1
 62
3
100
AcDbLine
 10
68.206264
 20
238.852110
 30
0.0
 11
68.206264
 21
238.852110
 31
0.0
  0
LINE
  5
1da
100
AcDbEntity
  8
Top_1
 62
3
100
AcDbLine
 10
78.380322
 20
238.852110
 30
0.0
 11
84.603931
 21
238.852110
 31
0.0
  0
SPLINE
  5
1db
100
AcDbEntity
  8
Top_1
 62
3
100
AcDbSpline
 70
8
 71
3
 72
8
 73
4
 74
0
 40
0
 40
0
 40
0
 40
0
 40
1
 40
1
 40
1
 40
1
 10
84.603931
 20
238.852110
 30
0.0
 10
85.021852
 20
238.852110
 30
0.0
 10
85.358300
 20
238.515662
 30
0.0
 10
85.358300
 20
238.097741
 30
0.0
  0
LINE
  5
1dc
100
AcDbEntity
  8
Top_1
 62
3
100
AcDbLine
 10
85.358300
 20
238.097741
 30
0.0
 11
85.358300
 21
230.038880
 31
0.0
  0
SPLINE
  5
1dd
100
AcDbEntity
  8
Top_1
 62
3
100
AcDbSpline
 70
8
 71
3
 72
8
 73
4
 74
0
 40
0
 40
0
 40
0
 40
0
 40
1
 40
1
 40
1
 40
1
 10
85.358300
 20
230.038880
 30
0.0
 10
85.358300
 20
229.620960
 30
0.0
 10
85.021852
 20
229.284509
 30
0.0
 10
84.603931
 20
229.284509
 30
0.0
  0
LINE
  5
1de
100
AcDbEntity
  8
Top_1
 62
3
100
AcDbLine
 10
84.603931
 20
229.284509
 30
0.0
 11
78.380322
 21
229.284509
 31
0.0
  0
SPLINE
  5
1df
100
AcDbEntity
  8
Top_1
 62
3
100
AcDbSpline
 70
8
 71
3
 72
8
 73
4
 74
0
 40
0
 40
0
 40
0
 40
0
 40
1
 40
1
 40
1
 40
1
 10
78.380322
 20
229.284509
 30
0.0
 10
77.962399
 20
229.284509
 30
0.0
 10
77.625950
 20
229.620960
 30
0.0
 10
77.625950
 20
230.038880
 30
0.0
  0
LINE
  5
1e0
100
AcDbEntity
  8
Top_1
 62
3
100
AcDbLine
 10
77.625950
 20
230.038880
 30
0.0
 11
77.625950
 21
238.097741
 31
0.0
  0
SPLINE
  5
1e1
100
AcDbEntity
  8
Top_1
 62
3
100
AcDbSpline
 70
8
 71
3
 72
8
 73
4
 74
0
 40
0
 40
0
 40
0
 40
0
 40
1
 40
1
 40
1
 40
1
 10
77.625950
 20
238.097741
 30
0.0
 10
77.625950
 20
238.515662
 30
0.0
 10
77.962399
 20
238.852110
 30
0.0
 10
78.380322
 20
238.852110
 30
0.0
  0
LINE
  5
1e2
100
AcDbEntity
  8
Top_1
 62
3
100
AcDbLine
 10
78.380322
 20
238.852110
 30
0.0
 11
78.380322
 21
238.852110
 31
0.0
  0
LINE
  5
1e3
100
AcDbEntity
  8
Top_1
 62
3
100
AcDbLine
 10
88.518746
 20
238.852110
 30
0.0
 11
94.742356
 21
238.852110
 31
0.0
  0
SPLINE
  5
1e4
100
AcDbEntity
  8
Top_1
 62
3
100
AcDbSpline
 70
8
 71
3
 72
8
 73
4
 74
0
 40
0
 40
0
 40
0
 40
0
 40
1
 40
1
 40
1
 40
1
 10
94.742356
 20
238.852110
 30
0.0
 10
95.160279
 20
238.852110
 30
0.0
 10
95.496727
 20
238.515662
 30
0.0
 10
95.496727
 20
238.097741
 30
0.0
  0
LINE
  5
1e5
100
AcDbEntity
  8
Top_1
 62
3
100
AcDbLine
 10
95.496727
 20
238.097741
 30
0.0
 11
95.496727
 21
230.038880
 31
0.0
  0
SPLINE
  5
1e6
100
AcDbEntity
  8
Top_1
 62
3
100
AcDbSpline
 70
8
 71
3
 72
8
 73
4
 74
0
 40
0
 40
0
 40
0
 40
0
 40
1
 40
1
 40
1
 40
1
 10
95.496727
 20
230.038880
 30
0.0
 10
95.496727
 20
229.620960
 30
0.0
 10
95.160279
 20
229.284509
 30
0.0
 10
94.742356
 20
229.284509
 30
0.0
  0
LINE
  5
1e7
100
AcDbEntity
  8
Top_1
 62
3
100
AcDbLine
 10
94.742356
 20
229.284509
 30
0.0
 11
88.518746
 21
229.284509
 31
0.0
  0
SPLINE
  5
1e8
100
AcDbEntity
  8
Top_1
 62
3
100
AcDbSpline
 70
8
 71
3
 72
8
 73
4
 74
0
 40
0
 40
0
 40
0
 40
0
 40
1
 40
1
 40
1
 40
1
 10
88.518746
 20
229.284509
 30
0.0
 10
88.100826
 20
229.284509
 30
0.0
 10
87.764377
 20
229.620960
 30
0.0
 10
87.764377
 20
230.038880
 30
0.0
  0
LINE
  5
1e9
100
AcDbEntity
  8
Top_1
 62
3
100
AcDbLine
 10
87.764377
 20
230.038880
 30
0.0
 11
87.764377
 21
238.097741
 31
0.0
  0
SPLINE
  5
1ea
100
AcDbEntity
  8
Top_1
 62
3
100
AcDbSpline
 70
8
 71
3
 72
8
 73
4
 74
0
 40
0
 40
0
 40
0
 40
0
 40
1
 40
1
 40
1
 40
1
 10
87.764377
 20
238.097741
 30
0.0
 10
87.764377
 20
238.515662
 30
0.0
 10
88.100826
 20
238.852110
 30
0.0
 10
88.518746
 20
238.852110
 30
0.0
  0
LINE
  5
1eb
100
AcDbEntity
  8
Top_1
 62
3
100
AcDbLine
 10
88.518746
 20
238.852110
 30
0.0
 11
88.518746
 21
238.852110
 31
0.0
  0
LINE
  5
1ec
100
AcDbEntity
  8
Top_1
 62
3
100
AcDbLine
 10
98.692801
 20
238.852110
 30
0.0
 11
104.916413
 21
238.852110
 31
0.0
  0
SPLINE
  5
1ed
100
AcDbEntity
  8
Top_1
 62
3
100
AcDbSpline
 70
8
 71
3
 72
8
 73
4
 74
0
 40
0
 40
0
 40
0
 40
0
 40
1
 40
1
 40
1
 40
1
 10
104.916413
 20
238.852110
 30
0.0
 10
105.334333
 20
238.852110
 30
0.0
 10
105.670782
 20
238.515662
 30
0.0
 10
105.670782
 20
238.097741
 30
0.0
  0
LINE
  5
1ee
100
AcDbEntity
  8
Top_1
 62
3
100
AcDbLine
 10
105.670782
 20
238.097741
 30
0.0
 11
105.670782
 21
230.038880
 31
0.0
  0
SPLINE
  5
1ef
100
AcDbEntity
  8
Top_1
 62
3
100
AcDbSpline
 70
8
 71
3
 72
8
 73
4
 74
0
 40
0
 40
0
 40
0
 40
0
 40
1
 40
1
 40
1
 40
1
 10
105.670782
 20
230.038880
 30
0.0
 10
105.670782
 20
229.620960
 30
0.0
 10
105.334333
 20
229.284509
 30
0.0
 10
104.916413
 20
229.284509
 30
0.0
  0
LINE
  5
1f0
100
AcDbEntity
  8
Top_1
 62
3
100
AcDbLine
 10
104.916413
 20
229.284509
 30
0.0
 11
98.692801
 21
229.284509
 31
0.0
  0
SPLINE
  5
1f1
100
AcDbEntity
  8
Top_1
 62
3
100
AcDbSpline
 70
8
 71
3
 72
8
 73
4
 74
0
 40
0
 40
0
 40
0
 40
0
 40
1
 40
1
 40
1
 40
1
 10
98.692801
 20
229.284509
 30
0.0
 10
98.274880
 20
229.284509
 30
0.0
 10
97.938432
 20
229.620960
 30
0.0
 10
97.938432
 20
230.038880
 30
0.0
  0
LINE
  5
1f2
100
AcDbEntity
  8
Top_1
 62
3
100
AcDbLine
 10
97.938432
 20
230.038880
 30
0.0
 11
97.938432
 21
238.097741
 31
0.0
  0
SPLINE
  5
1f3
100
AcDbEntity
  8
Top_1
 62
3
100
AcDbSpline
 70
8
 71
3
 72
8
 73
4
 74
0
 40
0
 40
0
 40
0
 40
0
 40
1
 40
1
 40
1
 40
1
 10
97.938432
 20
238.097741
 30
0.0
 10
97.938432
 20
238.515662
 30
0.0
 10
98.274880
 20
238.852110
 30
0.0
 10
98.692801
 20
238.852110
 30
0.0
  0
LINE
  5
1f4
100
AcDbEntity
  8
Top_1
 62
3
100
AcDbLine
 10
98.692801
 20
238.852110
 30
0.0
 11
98.692801
 21
238.852110
 31
0.0
  0
LINE
  5
1f5
100
AcDbEntity
  8
Top_1
 62
3
100
AcDbLine
 10
108.864705
 20
238.852110
 30
0.0
 11
115.088314
 21
238.852110
 31
0.0
  0
SPLINE
  5
1f6
100
AcDbEntity
  8
Top_1
 62
3
100
AcDbSpline
 70
8
 71
3
 72
8
 73
4
 74
0
 40
0
 40
0
 40
0
 40
0
 40
1
 40
1
 40
1
 40
1
 10
115.088314
 20
238.852110
 30
0.0
 10
115.506238
 20
238.852110
 30
0.0
 10
115.842686
 20
238.515662
 30
0.0
 10
115.842686
 20
238.097741
 30
0.0
  0
LINE
  5
1f7
100
AcDbEntity
  8
Top_1
 62
3
100
AcDbLine
 10
115.842686
 20
238.097741
 30
0.0
 11
115.842686
 21
230.038880
 31
0.0
  0
SPLINE
  5
1f8
100
AcDbEntity
  8
Top_1
 62
3
100
AcDbSpline
 70
8
 71
3
 72
8
 73
4
 74
0
 40
0
 40
0
 40
0
 40
0
 40
1
 40
1
 40
1
 40
1
 10
115.842686
 20
230.038880
 30
0.0
 10
115.842686
 20
229.620960
 30
0.0
 10
115.506238
 20
229.284509
 30
0.0
 10
115.088314
 20
229.284509
 30
0.0
  0
LINE
  5
1f9
100
AcDbEntity
  8
Top_1
 62
3
100
AcDbLine
 10
115.088314
 20
229.284509
 30
0.0
 11
108.864705
 21
229.284509
 31
0.0
  0
SPLINE
  5
1fa
100
AcDbEntity
  8
Top_1
 62
3
100
AcDbSpline
 70
8
 71
3
 72
8
 73
4
 74
0
 40
0
 40
0
 40
0
 40
0
 40
1
 40
1
 40
1
 40
1
 10
108.864705
 20
229.284509
 30
0.0
 10
108.446784
 20
229.284509
 30
0.0
 10
108.110336
 20
229.620960
 30
0.0
 10
108.110336
 20
230.038880
 30
0.0
  0
LINE
  5
1fb
100
AcDbEntity
  8
Top_1
 62
3
100
AcDbLine
 10
108.110336
 20
230.038880
 30
0.0
 11
108.110336
 21
238.097741
 31
0.0
  0
SPLINE
  5
1fc
100
AcDbEntity
  8
Top_1
 62
3
100
AcDbSpline
 70
8
 71
3
 72
8
 73
4
 74
0
 40
0
 40
0
 40
0
 40
0
 40
1
 40
1
 40
1
 40
1
 10
108.110336
 20
238.097741
 30
0.0
 10
108.110336
 20
238.515662
 30
0.0
 10
108.446784
 20
238.852110
 30
0.0
 10
108.864705
 20
238.852110
 30
0.0
  0
LINE
  5
1fd
100
AcDbEntity
  8
Top_1
 62
3
100
AcDbLine
 10
108.864705
 20
238.852110
 30
0.0
 11
108.864705
 21
238.852110
 31
0.0
  0
LINE
  5
1fe
100
AcDbEntity
  8
Top_1
 62
3
100
AcDbLine
 10
119.038759
 20
238.852110
 30
0.0
 11
125.262372
 21
238.852110
 31
0.0
  0
SPLINE
  5
1ff
100
AcDbEntity
  8
Top_1
 62
3
100
AcDbSpline
 70
8
 71
3
 72
8
 73
4
 74
0
 40
0
 40
0
 40
0
 40
0
 40
1
 40
1
 40
1
 40
1
 10
125.262372
 20
238.852110
 30
0.0
 10
125.680292
 20
238.852110
 30
0.0
 10
126.016741
 20
238.515662
 30
0.0
 10
126.016741
 20
238.097741
 30
0.0
  0
LINE
  5
200
100
AcDbEntity
  8
Top_1
 62
3
100
AcDbLine
 10
126.016741
 20
238.097741
 30
0.0
 11
126.016741
 21
230.038880
 31
0.0
  0
SPLINE
  5
201
100
AcDbEntity
  8
Top_1
 62
3
100
AcDbSpline
 70
8
 71
3
 72
8
 73
4
 74
0
 40
0
 40
0
 40
0
 40
0
 40
1
 40
1
 40
1
 40
1
 10
126.016741
 20
230.038880
 30
0.0
 10
126.016741
 20
229.620960
 30
0.0
 10
125.680292
 20
229.284509
 30
0.0
 10
125.262372
 20
229.284509
 30
0.0
  0
LINE
  5
202
100
AcDbEntity
  8
Top_1
 62
3
100
AcDbLine
 10
125.262372
 20
229.284509
 30
0.0
 11
119.038759
 21
229.284509
 31
0.0
  0
SPLINE
  5
203
100
AcDbEntity
  8
Top_1
 62
3
100
AcDbSpline
 70
8
 71
3
 72
8
 73
4
 74
0
 40
0
 40
0
 40
0
 40
0
 40
1
 40
1
 40
1
 40
1
 10
119.038759
 20
229.284509
 30
0.0
 10
118.620839
 20
229.284509
 30
0.0
 10
118.284391
 20
229.620960
 30
0.0
 10
118.284391
 20
230.038880
 30
0.0
  0
LINE
  5
204
100
AcDbEntity
  8
Top_1
 62
3
100
AcDbLine
 10
118.284391
 20
230.038880
 30
0.0
 11
118.284391
 21
238.097741
 31
0.0
  0
SPLINE
  5
205
100
AcDbEntity
  8
Top_1
 62
3
100
AcDbSpline
 70
8
 71
3
 72
8
 73
4
 74
0
 40
0
 40
0
 40
0
 40
0
 40
1
 40
1
 40
1
 40
1
 10
118.284391
 20
238.097741
 30
0.0
 10
118.284391
 20
238.515662
 30
0.0
 10
118.620839
 20
238.852110
 30
0.0
 10
119.038759
 20
238.852110
 30
0.0
  0
LINE
  5
206
100
AcDbEntity
  8
Top_1
 62
3
100
AcDbLine
 10
119.038759
 20
238.852110
 30
0.0
 11
119.038759
 21
238.852110
 31
0.0
  0
LINE
  5
207
100
AcDbEntity
  8
Top_1
 62
3
100
AcDbLine
 10
129.177186
 20
238.852110
 30
0.0
 11
135.400796
 21
238.852110
 31
0.0
  0
SPLINE
  5
208
100
AcDbEntity
  8
Top_1
 62
3
100
AcDbSpline
 70
8
 71
3
 72
8
 73
4
 74
0
 40
0
 40
0
 40
0
 40
0
 40
1
 40
1
 40
1
 40
1
 10
135.400796
 20
238.852110
 30
0.0
 10
135.818716
 20
238.852110
 30
0.0
 10
136.155168
 20
238.515662
 30
0.0
 10
136.155168
 20
238.097741
 30
0.0
  0
LINE
  5
209
100
AcDbEntity
  8
Top_1
 62
3
100
AcDbLine
 10
136.155168
 20
238.097741
 30
0.0
 11
136.155168
 21
230.038880
 31
0.0
  0
SPLINE
  5
20a
100
AcDbEntity
  8
Top_1
 62
3
100
AcDbSpline
 70
8
 71
3
 72
8
 73
4
 74
0
 40
0
 40
0
 40
0
 40
0
 40
1
 40
1
 40
1
 40
1
 10
136.155168
 20
230.038880
 30
0.0
 10
136.155168
 20
229.620960
 30
0.0
 10
135.818716
 20
229.284509
 30
0.0
 10
135.400796
 20
229.284509
 30
0.0
  0
LINE
  5
20b
100
AcDbEntity
  8
Top_1
 62
3
100
AcDbLine
 10
135.400796
 20
229.284509
 30
0.0
 11
129.177186
 21
229.284509
 31
0.0
  0
SPLINE
  5
20c
100
AcDbEntity
  8
Top_1
 62
3
100
AcDbSpline
 70
8
 71
3
 72
8
 73
4
 74
0
 40
0
 40
0
 40
0
 40
0
 40
1
 40
1
 40
1
 40
1
 10
129.177186
 20
229.284509
 30
0.0
 10
128.759266
 20
229.284509
 30
0.0
 10
128.422815
 20
229.620960
 30
0.0
 10
128.422815
 20
230.038880
 30
0.0
  0
LINE
  5
20d
100
AcDbEntity
  8
Top_1
 62
3
100
AcDbLine
 10
128.422815
 20
230.038880
 30
0.0
 11
128.422815
 21
238.097741
 31
0.0
  0
SPLINE
  5
20e
100
AcDbEntity
  8
Top_1
 62
3
100
AcDbSpline
 70
8
 71
3
 72
8
 73
4
 74
0
 40
0
 40
0
 40
0
 40
0
 40
1
 40
1
 40
1
 40
1
 10
128.422815
 20
238.097741
 30
0.0
 10
128.422815
 20
238.515662
 30
0.0
 10
128.759266
 20
238.852110
 30
0.0
 10
129.177186
 20
238.852110
 30
0.0
  0
LINE
  5
20f
100
AcDbEntity
  8
Top_1
 62
3
100
AcDbLine
 10
129.177186
 20
238.852110
 30
0.0
 11
129.177186
 21
238.852110
 31
0.0
  0
LINE
  5
210
100
AcDbEntity
  8
Top_1
 62
3
100
AcDbLine
 10
139.351241
 20
238.852110
 30
0.0
 11
145.574853
 21
238.852110
 31
0.0
  0
SPLINE
  5
211
100
AcDbEntity
  8
Top_1
 62
3
100
AcDbSpline
 70
8
 71
3
 72
8
 73
4
 74
0
 40
0
 40
0
 40
0
 40
0
 40
1
 40
1
 40
1
 40
1
 10
145.574853
 20
238.852110
 30
0.0
 10
145.992774
 20
238.852110
 30
0.0
 10
146.329222
 20
238.515662
 30
0.0
 10
146.329222
 20
238.097741
 30
0.0
  0
LINE
  5
212
100
AcDbEntity
  8
Top_1
 62
3
100
AcDbLine
 10
146.329222
 20
238.097741
 30
0.0
 11
146.329222
 21
230.038880
 31
0.0
  0
SPLINE
  5
213
100
AcDbEntity
  8
Top_1
 62
3
100
AcDbSpline
 70
8
 71
3
 72
8
 73
4
 74
0
 40
0
 40
0
 40
0
 40
0
 40
1
 40
1
 40
1
 40
1
 10
146.329222
 20
230.038880
 30
0.0
 10
146.329222
 20
229.620960
 30
0.0
 10
145.992774
 20
229.284509
 30
0.0
 10
145.574853
 20
229.284509
 30
0.0
  0
LINE
  5
214
100
AcDbEntity
  8
Top_1
 62
3
100
AcDbLine
 10
145.574853
 20
229.284509
 30
0.0
 11
139.351241
 21
229.284509
 31
0.0
  0
SPLINE
  5
215
100
AcDbEntity
  8
Top_1
 62
3
100
AcDbSpline
 70
8
 71
3
 72
8
 73
4
 74
0
 40
0
 40
0
 40
0
 40
0
 40
1
 40
1
 40
1
 40
1
 10
139.351241
 20
229.284509
 30
0.0
 10
138.933321
 20
229.284509
 30
0.0
 10
138.596872
 20
229.620960
 30
0.0
 10
138.596872
 20
230.038880
 30
0.0
  0
LINE
  5
216
100
AcDbEntity
  8
Top_1
 62
3
100
AcDbLine
 10
138.596872
 20
230.038880
 30
0.0
 11
138.596872
 21
238.097741
 31
0.0
  0
SPLINE
  5
217
100
AcDbEntity
  8
Top_1
 62
3
100
AcDbSpline
 70
8
 71
3
 72
8
 73
4
 74
0
 40
0
 40
0
 40
0
 40
0
 40
1
 40
1
 40
1
 40
1
 10
138.596872
 20
238.097741
 30
0.0
 10
138.596872
 20
238.515662
 30
0.0
 10
138.933321
 20
238.852110
 30
0.0
 10
139.351241
 20
238.852110
 30
0.0
  0
LINE
  5
218
100
AcDbEntity
  8
Top_1
 62
3
100
AcDbLine
 10
139.351241
 20
238.852110
 30
0.0
 11
139.351241
 21
238.852110
 31
0.0
  0
LINE
  5
219
100
AcDbEntity
  8
Top_1
 62
3
100
AcDbLine
 10
149.493111
 20
238.852110
 30
0.0
 11
155.716724
 21
238.852110
 31
0.0
  0
SPLINE
  5
21a
100
AcDbEntity
  8
Top_1
 62
3
100
AcDbSpline
 70
8
 71
3
 72
8
 73
4
 74
0
 40
0
 40
0
 40
0
 40
0
 40
1
 40
1
 40
1
 40
1
 10
155.716724
 20
238.852110
 30
0.0
 10
156.134644
 20
238.852110
 30
0.0
 10
156.471092
 20
238.515662
 30
0.0
 10
156.471092
 20
238.097741
 30
0.0
  0
LINE
  5
21b
100
AcDbEntity
  8
Top_1
 62
3
100
AcDbLine
 10
156.471092
 20
238.097741
 30
0.0
 11
156.471092
 21
230.038880
 31
0.0
  0
SPLINE
  5
21c
100
AcDbEntity
  8
Top_1
 62
3
100
AcDbSpline
 70
8
 71
3
 72
8
 73
4
 74
0
 40
0
 40
0
 40
0
 40
0
 40
1
 40
1
 40
1
 40
1
 10
156.471092
 20
230.038880
 30
0.0
 10
156.471092
 20
229.620960
 30
0.0
 10
156.134644
 20
229.284509
 30
0.0
 10
155.716724
 20
229.284509
 30
0.0
  0
LINE
  5
21d
100
AcDbEntity
  8
Top_1
 62
3
100
AcDbLine
 10
155.716724
 20
229.284509
 30
0.0
 11
149.493111
 21
229.284509
 31
0.0
  0
SPLINE
  5
21e
100
AcDbEntity
  8
Top_1
 62
3
100
AcDbSpline
 70
8
 71
3
 72
8
 73
4
 74
0
 40
0
 40
0
 40
0
 40
0
 40
1
 40
1
 40
1
 40
1
 10
149.493111
 20
229.284509
 30
0.0
 10
149.075191
 20
229.284509
 30
0.0
 10
148.738742
 20
229.620960
 30
0.0
 10
148.738742
 20
230.038880
 30
0.0
  0
LINE
  5
21f
100
AcDbEntity
  8
Top_1
 62
3
100
AcDbLine
 10
148.738742
 20
230.038880
 30
0.0
 11
148.738742
 21
238.097741
 31
0.0
  0
SPLINE
  5
220
100
AcDbEntity
  8
Top_1
 62
3
100
AcDbSpline
 70
8
 71
3
 72
8
 73
4
 74
0
 40
0
 40
0
 40
0
 40
0
 40
1
 40
1
 40
1
 40
1
 10
148.738742
 20
238.097741
 30
0.0
 10
148.738742
 20
238.515662
 30
0.0
 10
149.075191
 20
238.852110
 30
0.0
 10
149.493111
 20
238.852110
 30
0.0
  0
LINE
  5
221
100
AcDbEntity
  8
Top_1
 62
3
100
AcDbLine
 10
149.493111
 20
238.852110
 30
0.0
 11
149.493111
 21
238.852110
 31
0.0
  0
LINE
  5
222
100
AcDbEntity
  8
Top_1
 62
3
100
AcDbLine
 10
159.667152
 20
238.852110
 30
0.0
 11
165.890761
 21
238.852110
 31
0.0
  0
SPLINE
  5
223
100
AcDbEntity
  8
Top_1
 62
3
100
AcDbSpline
 70
8
 71
3
 72
8
 73
4
 74
0
 40
0
 40
0
 40
0
 40
0
 40
1
 40
1
 40
1
 40
1
 10
165.890761
 20
238.852110
 30
0.0
 10
166.308682
 20
238.852110
 30
0.0
 10
166.645130
 20
238.515662
 30
0.0
 10
166.645130
 20
238.097741
 30
0.0
  0
LINE
  5
224
100
AcDbEntity
  8
Top_1
 62
3
100
AcDbLine
 10
166.645130
 20
238.097741
 30
0.0
 11
166.645130
 21
230.038880
 31
0.0
  0
SPLINE
  5
225
100
AcDbEntity
  8
Top_1
 62
3
100
AcDbSpline
 70
8
 71
3
 72
8
 73
4
 74
0
 40
0
 40
0
 40
0
 40
0
 40
1
 40
1
 40
1
 40
1
 10
166.645130
 20
230.038880
 30
0.0
 10
166.645130
 20
229.620960
 30
0.0
 10
166.308682
 20
229.284509
 30
0.0
 10
165.890761
 20
229.284509
 30
0.0
  0
LINE
  5
226
100
AcDbEntity
  8
Top_1
 62
3
100
AcDbLine
 10
165.890761
 20
229.284509
 30
0.0
 11
159.667152
 21
229.284509
 31
0.0
  0
SPLINE
  5
227
100
AcDbEntity
  8
Top_1
 62
3
100
AcDbSpline
 70
8
 71
3
 72
8
 73
4
 74
0
 40
0
 40
0
 40
0
 40
0
 40
1
 40
1
 40
1
 40
1
 10
159.667152
 20
229.284509
 30
0.0
 10
159.249229
 20
229.284509
 30
0.0
 10
158.912780
 20
229.620960
 30
0.0
 10
158.912780
 20
230.038880
 30
0.0
  0
LINE
  5
228
100
AcDbEntity
  8
Top_1
 62
3
100
AcDbLine
 10
158.912780
 20
230.038880
 30
0.0
 11
158.912780
 21
238.097741
 31
0.0
  0
SPLINE
  5
229
100
AcDbEntity
  8
Top_1
 62
3
100
AcDbSpline
 70
8
 71
3
 72
8
 73
4
 74
0
 40
0
 40
0
 40
0
 40
0
 40
1
 40
1
 40
1
 40
1
 10
158.912780
 20
238.097741
 30
0.0
 10
158.912780
 20
238.515662
 30
0.0
 10
159.249229
 20
238.852110
 30
0.0
 10
159.667152
 20
238.852110
 30
0.0
  0
LINE
  5
22a
100
AcDbEntity
  8
Top_1
 62
3
100
AcDbLine
 10
159.667152
 20
238.852110
 30
0.0
 11
159.667152
 21
238.852110
 31
0.0
  0
LINE
  5
22b
100
AcDbEntity
  8
Top_1
 62
3
100
AcDbLine
 10
63.145964
 20
226.138990
 30
0.0
 11
69.369573
 21
226.138990
 31
0.0
  0
SPLINE
  5
22c
100
AcDbEntity
  8
Top_1
 62
3
100
AcDbSpline
 70
8
 71
3
 72
8
 73
4
 74
0
 40
0
 40
0
 40
0
 40
0
 40
1
 40
1
 40
1
 40
1
 10
69.369573
 20
226.138990
 30
0.0
 10
69.787493
 20
226.138990
 30
0.0
 10
70.123942
 20
225.802541
 30
0.0
 10
70.123942
 20
225.384618
 30
0.0
  0
LINE
  5
22d
100
AcDbEntity
  8
Top_1
 62
3
100
AcDbLine
 10
70.123942
 20
225.384618
 30
0.0
 11
70.123942
 21
217.325760
 31
0.0
  0
SPLINE
  5
22e
100
AcDbEntity
  8
Top_1
 62
3
100
AcDbSpline
 70
8
 71
3
 72
8
 73
4
 74
0
 40
0
 40
0
 40
0
 40
0
 40
1
 40
1
 40
1
 40
1
 10
70.123942
 20
217.325760
 30
0.0
 10
70.123942
 20
216.907837
 30
0.0
 10
69.787493
 20
216.571388
 30
0.0
 10
69.369573
 20
216.571388
 30
0.0
  0
LINE
  5
22f
100
AcDbEntity
  8
Top_1
 62
3
100
AcDbLine
 10
69.369573
 20
216.571388
 30
0.0
 11
63.145964
 21
216.571388
 31
0.0
  0
SPLINE
  5
230
100
AcDbEntity
  8
Top_1
 62
3
100
AcDbSpline
 70
8
 71
3
 72
8
 73
4
 74
0
 40
0
 40
0
 40
0
 40
0
 40
1
 40
1
 40
1
 40
1
 10
63.145964
 20
216.571388
 30
0.0
 10
62.728040
 20
216.571388
 30
0.0
 10
62.391592
 20
216.907837
 30
0.0
 10
62.391592
 20
217.325760
 30
0.0
  0
LINE
  5
231
100
AcDbEntity
  8
Top_1
 62
3
100
AcDbLine
 10
62.391592
 20
217.325760
 30
0.0
 11
62.391592
 21
225.384618
 31
0.0
  0
SPLINE
  5
232
100
AcDbEntity
  8
Top_1
 62
3
100
AcDbSpline
 70
8
 71
3
 72
8
 73
4
 74
0
 40
0
 40
0
 40
0
 40
0
 40
1
 40
1
 40
1
 40
1
 10
62.391592
 20
225.384618
 30
0.0
 10
62.391592
 20
225.802541
 30
0.0
 10
62.728040
 20
226.138990
 30
0.0
 10
63.145964
 20
226.138990
 30
0.0
  0
LINE
  5
233
100
AcDbEntity
  8
Top_1
 62
3
100
AcDbLine
 10
63.145964
 20
226.138990
 30
0.0
 11
63.145964
 21
226.138990
 31
0.0
  0
LINE
  5
234
100
AcDbEntity
  8
Top_1
 62
3
100
AcDbLine
 10
73.320018
 20
226.138990
 30
0.0
 11
79.543628
 21
226.138990
 31
0.0
  0
SPLINE
  5
235
100
AcDbEntity
  8
Top_1
 62
3
100
AcDbSpline
 70
8
 71
3
 72
8
 73
4
 74
0
 40
0
 40
0
 40
0
 40
0
 40
1
 40
1
 40
1
 40
1
 10
79.543628
 20
226.138990
 30
0.0
 10
79.961551
 20
226.138990
 30
0.0
 10
80.297999
 20
225.802541
 30
0.0
 10
80.297999
 20
225.384618
 30
0.0
  0
LINE
  5
236
100
AcDbEntity
  8
Top_1
 62
3
100
AcDbLine
 10
80.297999
 20
225.384618
 30
0.0
 11
80.297999
 21
217.325760
 31
0.0
  0
SPLINE
  5
237
100
AcDbEntity
  8
Top_1
 62
3
100
AcDbSpline
 70
8
 71
3
 72
8
 73
4
 74
0
 40
0
 40
0
 40
0
 40
0
 40
1
 40
1
 40
1
 40
1
 10
80.297999
 20
217.325760
 30
0.0
 10
80.297999
 20
216.907837
 30
0.0
 10
79.961551
 20
216.571388
 30
0.0
 10
79.543628
 20
216.571388
 30
0.0
  0
LINE
  5
238
100
AcDbEntity
  8
Top_1
 62
3
100
AcDbLine
 10
79.543628
 20
216.571388
 30
0.0
 11
73.320018
 21
216.571388
 31
0.0
  0
SPLINE
  5
239
100
AcDbEntity
  8
Top_1
 62
3
100
AcDbSpline
 70
8
 71
3
 72
8
 73
4
 74
0
 40
0
 40
0
 40
0
 40
0
 40
1
 40
1
 40
1
 40
1
 10
73.320018
 20
216.571388
 30
0.0
 10
72.902098
 20
216.571388
 30
0.0
 10
72.565649
 20
216.907837
 30
0.0
 10
72.565649
 20
217.325760
 30
0.0
  0
LINE
  5
23a
100
AcDbEntity
  8
Top_1
 62
3
100
AcDbLine
 10
72.565649
 20
217.325760
 30
0.0
 11
72.565649
 21
225.384618
 31
0.0
  0
SPLINE
  5
23b
100
AcDbEntity
  8
Top_1
 62
3
100
AcDbSpline
 70
8
 71
3
 72
8
 73
4
 74
0
 40
0
 40
0
 40
0
 40
0
 40
1
 40
1
 40
1
 40
1
 10
72.565649
 20
225.384618
 30
0.0
 10
72.565649
 20
225.802541
 30
0.0
 10
72.902098
 20
226.138990
 30
0.0
 10
73.320018
 20
226.138990
 30
0.0
  0
LINE
  5
23c
100
AcDbEntity
  8
Top_1
 62
3
100
AcDbLine
 10
73.320018
 20
226.138990
 30
0.0
 11
73.320018
 21
226.138990
 31
0.0
  0
LINE
  5
23d
100
AcDbEntity
  8
Top_1
 62
3
100
AcDbLine
 10
83.458442
 20
226.138990
 30
0.0
 11
89.682055
 21
226.138990
 31
0.0
  0
SPLINE
  5
23e
100
AcDbEntity
  8
Top_1
 62
3
100
AcDbSpline
 70
8
 71
3
 72
8
 73
4
 74
0
 40
0
 40
0
 40
0
 40
0
 40
1
 40
1
 40
1
 40
1
 10
89.682055
 20
226.138990
 30
0.0
 10
90.099975
 20
226.138990
 30
0.0
 10
90.436423
 20
225.802541
 30
0.0
 10
90.436423
 20
225.384618
 30
0.0
  0
LINE
  5
23f
100
AcDbEntity
  8
Top_1
 62
3
100
AcDbLine
 10
90.436423
 20
225.384618
 30
0.0
 11
90.436423
 21
217.325760
 31
0.0
  0
SPLINE
  5
240
100
AcDbEntity
  8
Top_1
 62
3
100
AcDbSpline
 70
8
 71
3
 72
8
 73
4
 74
0
 40
0
 40
0
 40
0
 40
0
 40
1
 40
1
 40
1
 40
1
 10
90.436423
 20
217.325760
 30
0.0
 10
90.436423
 20
216.907837
 30
0.0
 10
90.099975
 20
216.571388
 30
0.0
 10
89.682055
 20
216.571388
 30
0.0
  0
LINE
  5
241
100
AcDbEntity
  8
Top_1
 62
3
100
AcDbLine
 10
89.682055
 20
216.571388
 30
0.0
 11
83.458442
 21
216.571388
 31
0.0
  0
SPLINE
  5
242
100
AcDbEntity
  8
Top_1
 62
3
100
AcDbSpline
 70
8
 71
3
 72
8
 73
4
 74
0
 40
0
 40
0
 40
0
 40
0
 40
1
 40
1
 40
1
 40
1
 10
83.458442
 20
216.571388
 30
0.0
 10
83.040522
 20
216.571388
 30
0.0
 10
82.704074
 20
216.907837
 30
0.0
 10
82.704074
 20
217.325760
 30
0.0
  0
LINE
  5
243
100
AcDbEntity
  8
Top_1
 62
3
100
AcDbLine
 10
82.704074
 20
217.325760
 30
0.0
 11
82.704074
 21
225.384618
 31
0.0
  0
SPLINE
  5
244
100
AcDbEntity
  8
Top_1
 62
3
100
AcDbSpline
 70
8
 71
3
 72
8
 73
4
 74
0
 40
0
 40
0
 40
0
 40
0
 40
1
 40
1
 40
1
 40
1
 10
82.704074
 20
225.384618
 30
0.0
 10
82.704074
 20
225.802541
 30
0.0
 10
83.040522
 20
226.138990
 30
0.0
 10
83.458442
 20
226.138990
 30
0.0
  0
LINE
  5
245
100
AcDbEntity
  8
Top_1
 62
3
100
AcDbLine
 10
83.458442
 20
226.138990
 30
0.0
 11
83.458442
 21
226.138990
 31
0.0
  0
LINE
  5
246
100
AcDbEntity
  8
Top_1
 62
3
100
AcDbLine
 10
93.632500
 20
226.138990
 30
0.0
 11
99.856109
 21
226.138990
 31
0.0
  0
SPLINE
  5
247
100
AcDbEntity
  8
Top_1
 62
3
100
AcDbSpline
 70
8
 71
3
 72
8
 73
4
 74
0
 40
0
 40
0
 40
0
 40
0
 40
1
 40
1
 40
1
 40
1
 10
99.856109
 20
226.138990
 30
0.0
 10
100.274030
 20
226.138990
 30
0.0
 10
100.610481
 20
225.802541
 30
0.0
 10
100.610481
 20
225.384618
 30
0.0
  0
LINE
  5
248
100
AcDbEntity
  8
Top_1
 62
3
100
AcDbLine
 10
100.610481
 20
225.384618
 30
0.0
 11
100.610481
 21
217.325760
 31
0.0
  0
SPLINE
  5
249
100
AcDbEntity
  8
Top_1
 62
3
100
AcDbSpline
 70
8
 71
3
 72
8
 73
4
 74
0
 40
0
 40
0
 40
0
 40
0
 40
1
 40
1
 40
1
 40
1
 10
100.610481
 20
217.325760
 30
0.0
 10
100.610481
 20
216.907837
 30
0.0
 10
100.274030
 20
216.571388
 30
0.0
 10
99.856109
 20
216.571388
 30
0.0
  0
LINE
  5
24a
100
AcDbEntity
  8
Top_1
 62
3
100
AcDbLine
 10
99.856109
 20
216.571388
 30
0.0
 11
93.632500
 21
216.571388
 31
0.0
  0
SPLINE
  5
24b
100
AcDbEntity
  8
Top_1
 62
3
100
AcDbSpline
 70
8
 71
3
 72
8
 73
4
 74
0
 40
0
 40
0
 40
0
 40
0
 40
1
 40
1
 40
1
 40
1
 10
93.632500
 20
216.571388
 30
0.0
 10
93.214579
 20
216.571388
 30
0.0
 10
92.878128
 20
216.907837
 30
0.0
 10
92.878128
 20
217.325760
 30
0.0
  0
LINE
  5
24c
100
AcDbEntity
  8
Top_1
 62
3
100
AcDbLine
 10
92.878128
 20
217.325760
 30
0.0
 11
92.878128
 21
225.384618
 31
0.0
  0
SPLINE
  5
24d
100
AcDbEntity
  8
Top_1
 62
3
100
AcDbSpline
 70
8
 71
3
 72
8
 73
4
 74
0
 40
0
 40
0
 40
0
 40
0
 40
1
 40
1
 40
1
 40
1
 10
92.878128
 20
225.384618
 30
0.0
 10
92.878128
 20
225.802541
 30
0.0
 10
93.214579
 20
226.138990
 30
0.0
 10
93.632500
 20
226.138990
 30
0.0
  0
LINE
  5
24e
100
AcDbEntity
  8
Top_1
 62
3
100
AcDbLine
 10
93.632500
 20
226.138990
 30
0.0
 11
93.632500
 21
226.138990
 31
0.0
  0
LINE
  5
24f
100
AcDbEntity
  8
Top_1
 62
3
100
AcDbLine
 10
103.804401
 20
226.138990
 30
0.0
 11
110.028014
 21
226.138990
 31
0.0
  0
SPLINE
  5
250
100
AcDbEntity
  8
Top_1
 62
3
100
AcDbSpline
 70
8
 71
3
 72
8
 73
4
 74
0
 40
0
 40
0
 40
0
 40
0
 40
1
 40
1
 40
1
 40
1
 10
110.028014
 20
226.138990
 30
0.0
 10
110.445934
 20
226.138990
 30
0.0
 10
110.782382
 20
225.802541
 30
0.0
 10
110.782382
 20
225.384618
 30
0.0
  0
LINE
  5
251
100
AcDbEntity
  8
Top_1
 62
3
100
AcDbLine
 10
110.782382
 20
225.384618
 30
0.0
 11
110.782382
 21
217.325760
 31
0.0
  0
SPLINE
  5
252
100
AcDbEntity
  8
Top_1
 62
3
100
AcDbSpline
 70
8
 71
3
 72
8
 73
4
 74
0
 40
0
 40
0
 40
0
 40
0
 40
1
 40
1
 40
1
 40
1
 10
110.782382
 20
217.325760
 30
0.0
 10
110.782382
 20
216.907837
 30
0.0
 10
110.445934
 20
216.571388
 30
0.0
 10
110.028014
 20
216.571388
 30
0.0
  0
LINE
  5
253
100
AcDbEntity
  8
Top_1
 62
3
100
AcDbLine
 10
110.028014
 20
216.571388
 30
0.0
 11
103.804401
 21
216.571388
 31
0.0
  0
SPLINE
  5
254
100
AcDbEntity
  8
Top_1
 62
3
100
AcDbSpline
 70
8
 71
3
 72
8
 73
4
 74
0
 40
0
 40
0
 40
0
 40
0
 40
1
 40
1
 40
1
 40
1
 10
103.804401
 20
216.571388
 30
0.0
 10
103.386481
 20
216.571388
 30
0.0
 10
103.050032
 20
216.907837
 30
0.0
 10
103.050032
 20
217.325760
 30
0.0
  0
LINE
  5
255
100
AcDbEntity
  8
Top_1
 62
3
100
AcDbLine
 10
103.050032
 20
217.325760
 30
0.0
 11
103.050032
 21
225.384618
 31
0.0
  0
SPLINE
  5
256
100
AcDbEntity
  8
Top_1
 62
3
100
AcDbSpline
 70
8
 71
3
 72
8
 73
4
 74
0
 40
0
 40
0
 40
0
 40
0
 40
1
 40
1
 40
1
 40
1
 10
103.050032
 20
225.384618
 30
0.0
 10
103.050032
 20
225.802541
 30
0.0
 10
103.386481
 20
226.138990
 30
0.0
 10
103.804401
 20
226.138990
 30
0.0
  0
LINE
  5
257
100
AcDbEntity
  8
Top_1
 62
3
100
AcDbLine
 10
103.804401
 20
226.138990
 30
0.0
 11
103.804401
 21
226.138990
 31
0.0
  0
LINE
  5
258
100
AcDbEntity
  8
Top_1
 62
3
100
AcDbLine
 10
113.978459
 20
226.138990
 30
0.0
 11
120.202068
 21
226.138990
 31
0.0
  0
SPLINE
  5
259
100
AcDbEntity
  8
Top_1
 62
3
100
AcDbSpline
 70
8
 71
3
 72
8
 73
4
 74
0
 40
0
 40
0
 40
0
 40
0
 40
1
 40
1
 40
1
 40
1
 10
120.202068
 20
226.138990
 30
0.0
 10
120.619988
 20
226.138990
 30
0.0
 10
120.956440
 20
225.802541
 30
0.0
 10
120.956440
 20
225.384618
 30
0.0
  0
LINE
  5
25a
100
AcDbEntity
  8
Top_1
 62
3
100
AcDbLine
 10
120.956440
 20
225.384618
 30
0.0
 11
120.956440
 21
217.325760
 31
0.0
  0
SPLINE
  5
25b
100
AcDbEntity
  8
Top_1
 62
3
100
AcDbSpline
 70
8
 71
3
 72
8
 73
4
 74
0
 40
0
 40
0
 40
0
 40
0
 40
1
 40
1
 40
1
 40
1
 10
120.956440
 20
217.325760
 30
0.0
 10
120.956440
 20
216.907837
 30
0.0
 10
120.619988
 20
216.571388
 30
0.0
 10
120.202068
 20
216.571388
 30
0.0
  0
LINE
  5
25c
100
AcDbEntity
  8
Top_1
 62
3
100
AcDbLine
 10
120.202068
 20
216.571388
 30
0.0
 11
113.978459
 21
216.571388
 31
0.0
  0
SPLINE
  5
25d
100
AcDbEntity
  8
Top_1
 62
3
100
AcDbSpline
 70
8
 71
3
 72
8
 73
4
 74
0
 40
0
 40
0
 40
0
 40
0
 40
1
 40
1
 40
1
 40
1
 10
113.978459
 20
216.571388
 30
0.0
 10
113.560538
 20
216.571388
 30
0.0
 10
113.224087
 20
216.907837
 30
0.0
 10
113.224087
 20
217.325760
 30
0.0
  0
LINE
  5
25e
100
AcDbEntity
  8
Top_1
 62
3
100
AcDbLine
 10
113.224087
 20
217.325760
 30
0.0
 11
113.224087
 21
225.384618
 31
0.0
  0
SPLINE
  5
25f
100
AcDbEntity
  8
Top_1
 62
3
100
AcDbSpline
 70
8
 71
3
 72
8
 73
4
 74
0
 40
0
 40
0
 40
0
 40
0
 40
1
 40
1
 40
1
 40
1
 10
113.224087
 20
225.384618
 30
0.0
 10
113.224087
 20
225.802541
 30
0.0
 10
113.560538
 20
226.138990
 30
0.0
 10
113.978459
 20
226.138990
 30
0.0
  0
LINE
  5
260
100
AcDbEntity
  8
Top_1
 62
3
100
AcDbLine
 10
113.978459
 20
226.138990
 30
0.0
 11
113.978459
 21
226.138990
 31
0.0
  0
LINE
  5
261
100
AcDbEntity
  8
Top_1
 62
3
100
AcDbLine
 10
124.116883
 20
226.138990
 30
0.0
 11
130.340492
 21
226.138990
 31
0.0
  0
SPLINE
  5
262
100
AcDbEntity
  8
Top_1
 62
3
100
AcDbSpline
 70
8
 71
3
 72
8
 73
4
 74
0
 40
0
 40
0
 40
0
 40
0
 40
1
 40
1
 40
1
 40
1
 10
130.340492
 20
226.138990
 30
0.0
 10
130.758415
 20
226.138990
 30
0.0
 10
131.094864
 20
225.802541
 30
0.0
 10
131.094864
 20
225.384618
 30
0.0
  0
LINE
  5
263
100
AcDbEntity
  8
Top_1
 62
3
100
AcDbLine
 10
131.094864
 20
225.384618
 30
0.0
 11
131.094864
 21
217.325760
 31
0.0
  0
SPLINE
  5
264
100
AcDbEntity
  8
Top_1
 62
3
100
AcDbSpline
 70
8
 71
3
 72
8
 73
4
 74
0
 40
0
 40
0
 40
0
 40
0
 40
1
 40
1
 40
1
 40
1
 10
131.094864
 20
217.325760
 30
0.0
 10
131.094864
 20
216.907837
 30
0.0
 10
130.758415
 20
216.571388
 30
0.0
 10
130.340492
 20
216.571388
 30
0.0
  0
LINE
  5
265
100
AcDbEntity
  8
Top_1
 62
3
100
AcDbLine
 10
130.340492
 20
216.571388
 30
0.0
 11
124.116883
 21
216.571388
 31
0.0
  0
SPLINE
  5
266
100
AcDbEntity
  8
Top_1
 62
3
100
AcDbSpline
 70
8
 71
3
 72
8
 73
4
 74
0
 40
0
 40
0
 40
0
 40
0
 40
1
 40
1
 40
1
 40
1
 10
124.116883
 20
216.571388
 30
0.0
 10
123.698962
 20
216.571388
 30
0.0
 10
123.362514
 20
216.907837
 30
0.0
 10
123.362514
 20
217.325760
 30
0.0
  0
LINE
  5
267
100
AcDbEntity
  8
Top_1
 62
3
100
AcDbLine
 10
123.362514
 20
217.325760
 30
0.0
 11
123.362514
 21
225.384618
 31
0.0
  0
SPLINE
  5
268
100
AcDbEntity
  8
Top_1
 62
3
100
AcDbSpline
 70
8
 71
3
 72
8
 73
4
 74
0
 40
0
 40
0
 40
0
 40
0
 40
1
 40
1
 40
1
 40
1
 10
123.362514
 20
225.384618
 30
0.0
 10
123.362514
 20
225.802541
 30
0.0
 10
123.698962
 20
226.138990
 30
0.0
 10
124.116883
 20
226.138990
 30
0.0
  0
LINE
  5
269
100
AcDbEntity
  8
Top_1
 62
3
100
AcDbLine
 10
124.116883
 20
226.138990
 30
0.0
 11
124.116883
 21
226.138990
 31
0.0
  0
LINE
  5
26a
100
AcDbEntity
  8
Top_1
 62
3
100
AcDbLine
 10
134.290940
 20
226.138990
 30
0.0
 11
140.514550
 21
226.138990
 31
0.0
  0
SPLINE
  5
26b
100
AcDbEntity
  8
Top_1
 62
3
100
AcDbSpline
 70
8
 71
3
 72
8
 73
4
 74
0
 40
0
 40
0
 40
0
 40
0
 40
1
 40
1
 40
1
 40
1
 10
140.514550
 20
226.138990
 30
0.0
 10
140.932470
 20
226.138990
 30
0.0
 10
141.268918
 20
225.802541
 30
0.0
 10
141.268918
 20
225.384618
 30
0.0
  0
LINE
  5
26c
100
AcDbEntity
  8
Top_1
 62
3
100
AcDbLine
 10
141.268918
 20
225.384618
 30
0.0
 11
141.268918
 21
217.325760
 31
0.0
  0
SPLINE
  5
26d
100
AcDbEntity
  8
Top_1
 62
3
100
AcDbSpline
 70
8
 71
3
 72
8
 73
4
 74
0
 40
0
 40
0
 40
0
 40
0
 40
1
 40
1
 40
1
 40
1
 10
141.268918
 20
217.325760
 30
0.0
 10
141.268918
 20
216.907837
 30
0.0
 10
140.932470
 20
216.571388
 30
0.0
 10
140.514550
 20
216.571388
 30
0.0
  0
LINE
  5
26e
100
AcDbEntity
  8
Top_1
 62
3
100
AcDbLine
 10
140.514550
 20
216.571388
 30
0.0
 11
134.290940
 21
216.571388
 31
0.0
  0
SPLINE
  5
26f
100
AcDbEntity
  8
Top_1
 62
3
100
AcDbSpline
 70
8
 71
3
 72
8
 73
4
 74
0
 40
0
 40
0
 40
0
 40
0
 40
1
 40
1
 40
1
 40
1
 10
134.290940
 20
216.571388
 30
0.0
 10
133.873017
 20
216.571388
 30
0.0
 10
133.536569
 20
216.907837
 30
0.0
 10
133.536569
 20
217.325760
 30
0.0
  0
LINE
  5
270
100
AcDbEntity
  8
Top_1
 62
3
100
AcDbLine
 10
133.536569
 20
217.325760
 30
0.0
 11
133.536569
 21
225.384618
 31
0.0
  0
SPLINE
  5
271
100
AcDbEntity
  8
Top_1
 62
3
100
AcDbSpline
 70
8
 71
3
 72
8
 73
4
 74
0
 40
0
 40
0
 40
0
 40
0
 40
1
 40
1
 40
1
 40
1
 10
133.536569
 20
225.384618
 30
0.0
 10
133.536569
 20
225.802541
 30
0.0
 10
133.873017
 20
226.138990
 30
0.0
 10
134.290940
 20
226.138990
 30
0.0
  0
LINE
  5
272
100
AcDbEntity
  8
Top_1
 62
3
100
AcDbLine
 10
134.290940
 20
226.138990
 30
0.0
 11
134.290940
 21
226.138990
 31
0.0
  0
LINE
  5
273
100
AcDbEntity
  8
Top_1
 62
3
100
AcDbLine
 10
144.432810
 20
226.138990
 30
0.0
 11
150.656420
 21
226.138990
 31
0.0
  0
SPLINE
  5
274
100
AcDbEntity
  8
Top_1
 62
3
100
AcDbSpline
 70
8
 71
3
 72
8
 73
4
 74
0
 40
0
 40
0
 40
0
 40
0
 40
1
 40
1
 40
1
 40
1
 10
150.656420
 20
226.138990
 30
0.0
 10
151.074340
 20
226.138990
 30
0.0
 10
151.410789
 20
225.802541
 30
0.0
 10
151.410789
 20
225.384618
 30
0.0
  0
LINE
  5
275
100
AcDbEntity
  8
Top_1
 62
3
100
AcDbLine
 10
151.410789
 20
225.384618
 30
0.0
 11
151.410789
 21
217.325760
 31
0.0
  0
SPLINE
  5
276
100
AcDbEntity
  8
Top_1
 62
3
100
AcDbSpline
 70
8
 71
3
 72
8
 73
4
 74
0
 40
0
 40
0
 40
0
 40
0
 40
1
 40
1
 40
1
 40
1
 10
151.410789
 20
217.325760
 30
0.0
 10
151.410789
 20
216.907837
 30
0.0
 10
151.074340
 20
216.571388
 30
0.0
 10
150.656420
 20
216.571388
 30
0.0
  0
LINE
  5
277
100
AcDbEntity
  8
Top_1
 62
3
100
AcDbLine
 10
150.656420
 20
216.571388
 30
0.0
 11
144.432810
 21
216.571388
 31
0.0
  0
SPLINE
  5
278
100
AcDbEntity
  8
Top_1
 62
3
100
AcDbSpline
 70
8
 71
3
 72
8
 73
4
 74
0
 40
0
 40
0
 40
0
 40
0
 40
1
 40
1
 40
1
 40
1
 10
144.432810
 20
216.571388
 30
0.0
 10
144.014887
 20
216.571388
 30
0.0
 10
143.678439
 20
216.907837
 30
0.0
 10
143.678439
 20
217.325760
 30
0.0
  0
LINE
  5
279
100
AcDbEntity
  8
Top_1
 62
3
100
AcDbLine
 10
143.678439
 20
217.325760
 30
0.0
 11
143.678439
 21
225.384618
 31
0.0
  0
SPLINE
  5
27a
100
AcDbEntity
  8
Top_1
 62
3
100
AcDbSpline
 70
8
 71
3
 72
8
 73
4
 74
0
 40
0
 40
0
 40
0
 40
0
 40
1
 40
1
 40
1
 40
1
 10
143.678439
 20
225.384618
 30
0.0
 10
143.678439
 20
225.802541
 30
0.0
 10
144.014887
 20
226.138990
 30
0.0
 10
144.432810
 20
226.138990
 30
0.0
  0
LINE
  5
27b
100
AcDbEntity
  8
Top_1
 62
3
100
AcDbLine
 10
144.432810
 20
226.138990
 30
0.0
 11
144.432810
 21
226.138990
 31
0.0
  0
LINE
  5
27c
100
AcDbEntity
  8
Top_1
 62
3
100
AcDbLine
 10
154.606856
 20
226.138990
 30
0.0
 11
160.830466
 21
226.138990
 31
0.0
  0
SPLINE
  5
27d
100
AcDbEntity
  8
Top_1
 62
3
100
AcDbSpline
 70
8
 71
3
 72
8
 73
4
 74
0
 40
0
 40
0
 40
0
 40
0
 40
1
 40
1
 40
1
 40
1
 10
160.830466
 20
226.138990
 30
0.0
 10
161.248389
 20
226.138990
 30
0.0
 10
161.584838
 20
225.802541
 30
0.0
 10
161.584838
 20
225.384618
 30
0.0
  0
LINE
  5
27e
100
AcDbEntity
  8
Top_1
 62
3
100
AcDbLine
 10
161.584838
 20
225.384618
 30
0.0
 11
161.584838
 21
217.325760
 31
0.0
  0
SPLINE
  5
27f
100
AcDbEntity
  8
Top_1
 62
3
100
AcDbSpline
 70
8
 71
3
 72
8
 73
4
 74
0
 40
0
 40
0
 40
0
 40
0
 40
1
 40
1
 40
1
 40
1
 10
161.584838
 20
217.325760
 30
0.0
 10
161.584838
 20
216.907837
 30
0.0
 10
161.248389
 20
216.571388
 30
0.0
 10
160.830466
 20
216.571388
 30
0.0
  0
LINE
  5
280
100
AcDbEntity
  8
Top_1
 62
3
100
AcDbLine
 10
160.830466
 20
216.571388
 30
0.0
 11
154.606856
 21
216.571388
 31
0.0
  0
SPLINE
  5
281
100
AcDbEntity
  8
Top_1
 62
3
100
AcDbSpline
 70
8
 71
3
 72
8
 73
4
 74
0
 40
0
 40
0
 40
0
 40
0
 40
1
 40
1
 40
1
 40
1
 10
154.606856
 20
216.571388
 30
0.0
 10
154.188936
 20
216.571388
 30
0.0
 10
153.852488
 20
216.907837
 30
0.0
 10
153.852488
 20
217.325760
 30
0.0
  0
LINE
  5
282
100
AcDbEntity
  8
Top_1
 62
3
100
AcDbLine
 10
153.852488
 20
217.325760
 30
0.0
 11
153.852488
 21
225.384618
 31
0.0
  0
SPLINE
  5
283
100
AcDbEntity
  8
Top_1
 62
3
100
AcDbSpline
 70
8
 71
3
 72
8
 73
4
 74
0
 40
0
 40
0
 40
0
 40
0
 40
1
 40
1
 40
1
 40
1
 10
153.852488
 20
225.384618
 30
0.0
 10
153.852488
 20
225.802541
 30
0.0
 10
154.188936
 20
226.138990
 30
0.0
 10
154.606856
 20
226.138990
 30
0.0
  0
LINE
  5
284
100
AcDbEntity
  8
Top_1
 62
3
100
AcDbLine
 10
154.606856
 20
226.138990
 30
0.0
 11
154.606856
 21
226.138990
 31
0.0
  0
ENDSEC
  0
SECTION
  2
OBJECTS
  0
DICTIONARY
  5
C
330
0
100
AcDbDictionary
  3
ACAD_GROUP
350
D
  3
ACAD_MLINESTYLE
350
17
  0
DICTIONARY
  5
D
330
C
100
AcDbDictionary
  0
DICTIONARY
  5
1A
330
C
100
AcDbDictionary
  0
DICTIONARY
  5
17
330
C
100
AcDbDictionary
  3
STANDARD
350
18
  0
DICTIONARY
  5
19
330
C
100
AcDbDictionary
  0
ENDSEC
  0
EOF
